<svg width="1728" height="1117" viewBox="0 0 1728 1117" fill="none" xmlns="http://www.w3.org/2000/svg">
<g clip-path="url(#clip0_8_3)">
<rect width="1728" height="1117" fill="#292929"/>
<g clip-path="url(#clip1_8_3)">
<rect width="1728" height="1117" transform="translate(0 -1)" fill="black"/>
<g filter="url(#filter0_f_8_3)">
<circle cx="573.582" cy="1049.11" r="559.349" transform="rotate(-90 573.582 1049.11)" fill="#11025E"/>
</g>
<g filter="url(#filter1_f_8_3)">
<circle cx="1614" cy="-446.757" r="559.349" transform="rotate(-90 1614 -446.757)" fill="#1D004D"/>
</g>
<g filter="url(#filter2_f_8_3)">
<circle cx="1362.08" cy="898.243" r="559.349" transform="rotate(-90 1362.08 898.243)" fill="#1D1D1D"/>
</g>
<g filter="url(#filter3_f_8_3)">
<circle cx="423.426" cy="195.854" r="423.426" transform="rotate(-90 423.426 195.854)" fill="#015C68"/>
</g>
</g>
<mask id="mask0_8_3" style="mask-type:luminance" maskUnits="userSpaceOnUse" x="-61" y="220" width="1200" height="800">
<path d="M1139 220H-61V1020H1139V220Z" fill="white"/>
</mask>
<g mask="url(#mask0_8_3)">
<path d="M110 931C111.105 931 112 930.105 112 929C112 927.895 111.105 927 110 927C108.895 927 108 927.895 108 929C108 930.105 108.895 931 110 931Z" fill="#33F0FF"/>
<path d="M110 908C111.105 908 112 907.105 112 906C112 904.895 111.105 904 110 904C108.895 904 108 904.895 108 906C108 907.105 108.895 908 110 908Z" fill="#33F0FF"/>
<path d="M110 885C111.105 885 112 884.105 112 883C112 881.895 111.105 881 110 881C108.895 881 108 881.895 108 883C108 884.105 108.895 885 110 885Z" fill="#33F0FF"/>
<path d="M110 862C111.105 862 112 861.105 112 860C112 858.895 111.105 858 110 858C108.895 858 108 858.895 108 860C108 861.105 108.895 862 110 862Z" fill="#33F0FF"/>
<path d="M110 839C111.105 839 112 838.105 112 837C112 835.895 111.105 835 110 835C108.895 835 108 835.895 108 837C108 838.105 108.895 839 110 839Z" fill="#33F0FF"/>
<path d="M135 931C136.105 931 137 930.105 137 929C137 927.895 136.105 927 135 927C133.895 927 133 927.895 133 929C133 930.105 133.895 931 135 931Z" fill="#33F0FF"/>
<path d="M135 908C136.105 908 137 907.105 137 906C137 904.895 136.105 904 135 904C133.895 904 133 904.895 133 906C133 907.105 133.895 908 135 908Z" fill="#33F0FF"/>
<path d="M135 885C136.105 885 137 884.105 137 883C137 881.895 136.105 881 135 881C133.895 881 133 881.895 133 883C133 884.105 133.895 885 135 885Z" fill="#33F0FF"/>
<path d="M135 862C136.105 862 137 861.105 137 860C137 858.895 136.105 858 135 858C133.895 858 133 858.895 133 860C133 861.105 133.895 862 135 862Z" fill="#33F0FF"/>
<path d="M135 839C136.105 839 137 838.105 137 837C137 835.895 136.105 835 135 835C133.895 835 133 835.895 133 837C133 838.105 133.895 839 135 839Z" fill="#33F0FF"/>
<path d="M160 931C161.105 931 162 930.105 162 929C162 927.895 161.105 927 160 927C158.895 927 158 927.895 158 929C158 930.105 158.895 931 160 931Z" fill="#33F0FF"/>
<path d="M160 908C161.105 908 162 907.105 162 906C162 904.895 161.105 904 160 904C158.895 904 158 904.895 158 906C158 907.105 158.895 908 160 908Z" fill="#33F0FF"/>
<path d="M160 885C161.105 885 162 884.105 162 883C162 881.895 161.105 881 160 881C158.895 881 158 881.895 158 883C158 884.105 158.895 885 160 885Z" fill="#33F0FF"/>
<path d="M160 862C161.105 862 162 861.105 162 860C162 858.895 161.105 858 160 858C158.895 858 158 858.895 158 860C158 861.105 158.895 862 160 862Z" fill="#33F0FF"/>
<path d="M160 839C161.105 839 162 838.105 162 837C162 835.895 161.105 835 160 835C158.895 835 158 835.895 158 837C158 838.105 158.895 839 160 839Z" fill="#33F0FF"/>
<path d="M185 931C186.105 931 187 930.105 187 929C187 927.895 186.105 927 185 927C183.895 927 183 927.895 183 929C183 930.105 183.895 931 185 931Z" fill="#33F0FF"/>
<path d="M185 908C186.105 908 187 907.105 187 906C187 904.895 186.105 904 185 904C183.895 904 183 904.895 183 906C183 907.105 183.895 908 185 908Z" fill="#33F0FF"/>
<path d="M185 885C186.105 885 187 884.105 187 883C187 881.895 186.105 881 185 881C183.895 881 183 881.895 183 883C183 884.105 183.895 885 185 885Z" fill="#33F0FF"/>
<path d="M185 862C186.105 862 187 861.105 187 860C187 858.895 186.105 858 185 858C183.895 858 183 858.895 183 860C183 861.105 183.895 862 185 862Z" fill="#33F0FF"/>
<path d="M185 839C186.105 839 187 838.105 187 837C187 835.895 186.105 835 185 835C183.895 835 183 835.895 183 837C183 838.105 183.895 839 185 839Z" fill="#33F0FF"/>
<path d="M210 931C211.105 931 212 930.105 212 929C212 927.895 211.105 927 210 927C208.895 927 208 927.895 208 929C208 930.105 208.895 931 210 931Z" fill="#33F0FF"/>
<path d="M210 908C211.105 908 212 907.105 212 906C212 904.895 211.105 904 210 904C208.895 904 208 904.895 208 906C208 907.105 208.895 908 210 908Z" fill="#33F0FF"/>
<path d="M210 885C211.105 885 212 884.105 212 883C212 881.895 211.105 881 210 881C208.895 881 208 881.895 208 883C208 884.105 208.895 885 210 885Z" fill="#33F0FF"/>
<path d="M210 862C211.105 862 212 861.105 212 860C212 858.895 211.105 858 210 858C208.895 858 208 858.895 208 860C208 861.105 208.895 862 210 862Z" fill="#33F0FF"/>
<path d="M210 839C211.105 839 212 838.105 212 837C212 835.895 211.105 835 210 835C208.895 835 208 835.895 208 837C208 838.105 208.895 839 210 839Z" fill="#33F0FF"/>
<path d="M235 931C236.105 931 237 930.105 237 929C237 927.895 236.105 927 235 927C233.895 927 233 927.895 233 929C233 930.105 233.895 931 235 931Z" fill="#33F0FF"/>
<path d="M235 908C236.105 908 237 907.105 237 906C237 904.895 236.105 904 235 904C233.895 904 233 904.895 233 906C233 907.105 233.895 908 235 908Z" fill="#33F0FF"/>
<path d="M235 885C236.105 885 237 884.105 237 883C237 881.895 236.105 881 235 881C233.895 881 233 881.895 233 883C233 884.105 233.895 885 235 885Z" fill="#33F0FF"/>
<path d="M235 862C236.105 862 237 861.105 237 860C237 858.895 236.105 858 235 858C233.895 858 233 858.895 233 860C233 861.105 233.895 862 235 862Z" fill="#33F0FF"/>
<path d="M235 839C236.105 839 237 838.105 237 837C237 835.895 236.105 835 235 835C233.895 835 233 835.895 233 837C233 838.105 233.895 839 235 839Z" fill="#33F0FF"/>
<path d="M260 931C261.105 931 262 930.105 262 929C262 927.895 261.105 927 260 927C258.895 927 258 927.895 258 929C258 930.105 258.895 931 260 931Z" fill="#33F0FF"/>
<path d="M260 908C261.105 908 262 907.105 262 906C262 904.895 261.105 904 260 904C258.895 904 258 904.895 258 906C258 907.105 258.895 908 260 908Z" fill="#33F0FF"/>
<path d="M260 885C261.105 885 262 884.105 262 883C262 881.895 261.105 881 260 881C258.895 881 258 881.895 258 883C258 884.105 258.895 885 260 885Z" fill="#33F0FF"/>
<path d="M260 862C261.105 862 262 861.105 262 860C262 858.895 261.105 858 260 858C258.895 858 258 858.895 258 860C258 861.105 258.895 862 260 862Z" fill="#33F0FF"/>
<path d="M260 839C261.105 839 262 838.105 262 837C262 835.895 261.105 835 260 835C258.895 835 258 835.895 258 837C258 838.105 258.895 839 260 839Z" fill="#33F0FF"/>
<path d="M285 931C286.105 931 287 930.105 287 929C287 927.895 286.105 927 285 927C283.895 927 283 927.895 283 929C283 930.105 283.895 931 285 931Z" fill="#33F0FF"/>
<path d="M285 908C286.105 908 287 907.105 287 906C287 904.895 286.105 904 285 904C283.895 904 283 904.895 283 906C283 907.105 283.895 908 285 908Z" fill="#33F0FF"/>
<path d="M285 885C286.105 885 287 884.105 287 883C287 881.895 286.105 881 285 881C283.895 881 283 881.895 283 883C283 884.105 283.895 885 285 885Z" fill="#33F0FF"/>
<path d="M285 862C286.105 862 287 861.105 287 860C287 858.895 286.105 858 285 858C283.895 858 283 858.895 283 860C283 861.105 283.895 862 285 862Z" fill="#33F0FF"/>
<path d="M285 839C286.105 839 287 838.105 287 837C287 835.895 286.105 835 285 835C283.895 835 283 835.895 283 837C283 838.105 283.895 839 285 839Z" fill="#33F0FF"/>
<path d="M310 931C311.105 931 312 930.105 312 929C312 927.895 311.105 927 310 927C308.895 927 308 927.895 308 929C308 930.105 308.895 931 310 931Z" fill="#33F0FF"/>
<path d="M310 908C311.105 908 312 907.105 312 906C312 904.895 311.105 904 310 904C308.895 904 308 904.895 308 906C308 907.105 308.895 908 310 908Z" fill="#33F0FF"/>
<path d="M310 885C311.105 885 312 884.105 312 883C312 881.895 311.105 881 310 881C308.895 881 308 881.895 308 883C308 884.105 308.895 885 310 885Z" fill="#33F0FF"/>
<path d="M310 862C311.105 862 312 861.105 312 860C312 858.895 311.105 858 310 858C308.895 858 308 858.895 308 860C308 861.105 308.895 862 310 862Z" fill="#33F0FF"/>
<path d="M310 839C311.105 839 312 838.105 312 837C312 835.895 311.105 835 310 835C308.895 835 308 835.895 308 837C308 838.105 308.895 839 310 839Z" fill="#33F0FF"/>
<path d="M335 931C336.105 931 337 930.105 337 929C337 927.895 336.105 927 335 927C333.895 927 333 927.895 333 929C333 930.105 333.895 931 335 931Z" fill="#33F0FF"/>
<path d="M335 908C336.105 908 337 907.105 337 906C337 904.895 336.105 904 335 904C333.895 904 333 904.895 333 906C333 907.105 333.895 908 335 908Z" fill="#33F0FF"/>
<path d="M335 885C336.105 885 337 884.105 337 883C337 881.895 336.105 881 335 881C333.895 881 333 881.895 333 883C333 884.105 333.895 885 335 885Z" fill="#33F0FF"/>
<path d="M335 862C336.105 862 337 861.105 337 860C337 858.895 336.105 858 335 858C333.895 858 333 858.895 333 860C333 861.105 333.895 862 335 862Z" fill="#33F0FF"/>
<path d="M335 839C336.105 839 337 838.105 337 837C337 835.895 336.105 835 335 835C333.895 835 333 835.895 333 837C333 838.105 333.895 839 335 839Z" fill="#33F0FF"/>
<path d="M360 931C361.105 931 362 930.105 362 929C362 927.895 361.105 927 360 927C358.895 927 358 927.895 358 929C358 930.105 358.895 931 360 931Z" fill="#33F0FF"/>
<path d="M360 908C361.105 908 362 907.105 362 906C362 904.895 361.105 904 360 904C358.895 904 358 904.895 358 906C358 907.105 358.895 908 360 908Z" fill="#33F0FF"/>
<path d="M360 885C361.105 885 362 884.105 362 883C362 881.895 361.105 881 360 881C358.895 881 358 881.895 358 883C358 884.105 358.895 885 360 885Z" fill="#33F0FF"/>
<path d="M360 862C361.105 862 362 861.105 362 860C362 858.895 361.105 858 360 858C358.895 858 358 858.895 358 860C358 861.105 358.895 862 360 862Z" fill="#33F0FF"/>
<path d="M360 839C361.105 839 362 838.105 362 837C362 835.895 361.105 835 360 835C358.895 835 358 835.895 358 837C358 838.105 358.895 839 360 839Z" fill="#33F0FF"/>
<path d="M385 931C386.105 931 387 930.105 387 929C387 927.895 386.105 927 385 927C383.895 927 383 927.895 383 929C383 930.105 383.895 931 385 931Z" fill="#33F0FF"/>
<path d="M385 908C386.105 908 387 907.105 387 906C387 904.895 386.105 904 385 904C383.895 904 383 904.895 383 906C383 907.105 383.895 908 385 908Z" fill="#33F0FF"/>
<path d="M385 885C386.105 885 387 884.105 387 883C387 881.895 386.105 881 385 881C383.895 881 383 881.895 383 883C383 884.105 383.895 885 385 885Z" fill="#33F0FF"/>
<path d="M385 862C386.105 862 387 861.105 387 860C387 858.895 386.105 858 385 858C383.895 858 383 858.895 383 860C383 861.105 383.895 862 385 862Z" fill="#33F0FF"/>
<path d="M385 839C386.105 839 387 838.105 387 837C387 835.895 386.105 835 385 835C383.895 835 383 835.895 383 837C383 838.105 383.895 839 385 839Z" fill="#33F0FF"/>
<path d="M410 931C411.105 931 412 930.105 412 929C412 927.895 411.105 927 410 927C408.895 927 408 927.895 408 929C408 930.105 408.895 931 410 931Z" fill="#33F0FF"/>
<path d="M410 908C411.105 908 412 907.105 412 906C412 904.895 411.105 904 410 904C408.895 904 408 904.895 408 906C408 907.105 408.895 908 410 908Z" fill="#33F0FF"/>
<path d="M410 885C411.105 885 412 884.105 412 883C412 881.895 411.105 881 410 881C408.895 881 408 881.895 408 883C408 884.105 408.895 885 410 885Z" fill="#33F0FF"/>
<path d="M410 862C411.105 862 412 861.105 412 860C412 858.895 411.105 858 410 858C408.895 858 408 858.895 408 860C408 861.105 408.895 862 410 862Z" fill="#33F0FF"/>
<path d="M410 839C411.105 839 412 838.105 412 837C412 835.895 411.105 835 410 835C408.895 835 408 835.895 408 837C408 838.105 408.895 839 410 839Z" fill="#33F0FF"/>
<path d="M435 931C436.105 931 437 930.105 437 929C437 927.895 436.105 927 435 927C433.895 927 433 927.895 433 929C433 930.105 433.895 931 435 931Z" fill="#33F0FF"/>
<path d="M435 908C436.105 908 437 907.105 437 906C437 904.895 436.105 904 435 904C433.895 904 433 904.895 433 906C433 907.105 433.895 908 435 908Z" fill="#33F0FF"/>
<path d="M435 885C436.105 885 437 884.105 437 883C437 881.895 436.105 881 435 881C433.895 881 433 881.895 433 883C433 884.105 433.895 885 435 885Z" fill="#33F0FF"/>
<path d="M435 862C436.105 862 437 861.105 437 860C437 858.895 436.105 858 435 858C433.895 858 433 858.895 433 860C433 861.105 433.895 862 435 862Z" fill="#33F0FF"/>
<path d="M435 839C436.105 839 437 838.105 437 837C437 835.895 436.105 835 435 835C433.895 835 433 835.895 433 837C433 838.105 433.895 839 435 839Z" fill="#33F0FF"/>
<path d="M460 931C461.105 931 462 930.105 462 929C462 927.895 461.105 927 460 927C458.895 927 458 927.895 458 929C458 930.105 458.895 931 460 931Z" fill="#33F0FF"/>
<path d="M460 908C461.105 908 462 907.105 462 906C462 904.895 461.105 904 460 904C458.895 904 458 904.895 458 906C458 907.105 458.895 908 460 908Z" fill="#33F0FF"/>
<path d="M460 885C461.105 885 462 884.105 462 883C462 881.895 461.105 881 460 881C458.895 881 458 881.895 458 883C458 884.105 458.895 885 460 885Z" fill="#33F0FF"/>
<path d="M460 862C461.105 862 462 861.105 462 860C462 858.895 461.105 858 460 858C458.895 858 458 858.895 458 860C458 861.105 458.895 862 460 862Z" fill="#33F0FF"/>
<path d="M460 839C461.105 839 462 838.105 462 837C462 835.895 461.105 835 460 835C458.895 835 458 835.895 458 837C458 838.105 458.895 839 460 839Z" fill="#33F0FF"/>
</g>
<mask id="mask1_8_3" style="mask-type:luminance" maskUnits="userSpaceOnUse" x="-61" y="-1" width="1200" height="800">
<path d="M1139 -1H-61V799H1139V-1Z" fill="white"/>
</mask>
<g mask="url(#mask1_8_3)">
<path d="M-267.4 631.4C-203.8 585.3 -136.9 537.7 -59.1999 526.1C-10.7999 518.9 39.1001 526.2 87.2001 517C159.7 503.2 223.3 449.5 249.2 380.3C256.4 361 261 340.4 272.7 323.5C294.1 292.4 334.4 280.8 371.9 276.6C409.4 272.4 448.5 273.2 483.1 258.3C545.5 231.4 577.8 150.2 551 87.8C539 59.8 510.9 34.3 481 40.6C438.9 49.6 430.4 109.3 393.8 131.9C369.8 146.8 338.4 142.4 312.2 131.8C286 121.1 262.3 104.8 235.5 96C168.7 74 88.2001 107.4 56.7001 170.2C30.1001 223.2 37.0001 288.2 10.5001 341.4C-6.8999 376.4 -38.6999 404 -75.8999 416.3C-113.1 428.6 -155 425.5 -189.9 407.9L-267.4 631.4Z" fill="#194D59"/>
</g>
<mask id="mask2_8_3" style="mask-type:luminance" maskUnits="userSpaceOnUse" x="-61" y="-85" width="1200" height="800">
<path d="M1139 -85H-61V715H1139V-85Z" fill="white"/>
</mask>
<g mask="url(#mask2_8_3)">
<path d="M-120.5 538C-44.7 570.2 53.6 528.7 83.6 452.1C100.5 408.9 97.1 360.8 92.3 314.7C85.5 249.5 74.4 156.8 132.7 109.9C155.6 91.5 186.6 83.6 215.5 88.9C259.2 96.9 292.9 131.9 334.4 147.4C380.6 164.7 426.8 158.7 463.1 126C497.7 94.9 525 56.6 560.4 26.4C621 -25.3 704.3 -48.7 783.1 -38.4C874.3 -26.4 959.5 16.4 1053.5 9C1089.9 6.2 1124.5 -6.4 1153 -29.5C1204.5 -71.2 1244 -125.2 1280.9 -180" stroke="#F2F2F2" stroke-miterlimit="10"/>
<path d="M-121.1 526.3C-66.7001 546.9 -0.000102997 529.7 44.2999 490.5C60.0999 476.4 73.0999 459.5 81.3999 440.3C89.6999 421.3 93.7999 401.3 95.5999 380.9C97.6999 357.2 96.5999 333.1 95.0999 309.3C94.1999 293.6 92.8999 276.1 92.4999 258C91.1999 203.8 96.5999 143.7 139.3 108.4C161.7 89.8 191.9 81.4 220.3 85.7C263.2 92.2 297.1 125 338.5 139.8C363 148.6 387.5 151.2 410.4 147.1C430.4 143.5 449.4 134.8 466.3 120.7C500.9 91.8 528.6 56.3 564 28.5C624.5 -19.3 706.7 -40.3 785 -30.7C789.4 -30.2 793.7 -29.6 798.1 -28.9C879.5 -16.5 956.6 15.6 1039.4 10.9C1043.6 10.7 1047.8 10.3 1052 9.90001C1087.7 6.20001 1121.6 -6.79999 1149.6 -29.9C1200.3 -71.6 1239.3 -125.3 1275.7 -179.7" stroke="#E8F2F3" stroke-miterlimit="10"/>
<path d="M-121.8 514.6C-68.8003 532.1 -3.40033 514 41.0997 476.4C56.9997 462.9 70.1997 446.8 78.9997 428.5C87.6997 410.5 92.5997 391.5 95.0997 372.2C98.0997 349.7 98.0997 326.7 97.6997 303.9C97.4997 288.8 96.9997 271.9 97.1997 254.3C97.8997 201.6 104 142.3 145.7 106.7C167.6 88 197 78.9 224.9 82.2C267.1 87.2 301.1 117.8 342.3 131.9C366.6 140.3 390.8 142.9 413.7 139.3C433.6 136.1 452.4 128.1 469.3 115.1C503.9 88.4 532 55.8 567.3 30.2C627.7 -13.6 708.9 -32.3 786.5 -23.4C790.8 -22.9 795.2 -22.3 799.5 -21.7C880.3 -10.4 956.7 18.4 1037.8 11.7C1041.9 11.4 1046 10.9 1050.2 10.4C1085.2 5.90001 1118.4 -7.6 1145.9 -30.7C1195.7 -72.5 1234.2 -125.8 1270.2 -179.8" stroke="#DDF2F3" stroke-miterlimit="10"/>
<path d="M-122.5 502.8C-70.9 517.1 -6.8 498.1 38 462.1C54 449.2 67.4 433.9 76.7 416.6C85.9 399.5 91.4 381.7 94.8 363.4C98.7 342.1 99.8 320.3 100.5 298.4C101 283.9 101.3 267.7 102.2 250.6C104.9 199.4 111.6 141 152.3 105.1C173.7 86.2 202.3 76.5 229.7 78.8C271.2 82.3 305.3 110.8 346.3 124.1C370.4 132 394.4 134.7 417.1 131.5C436.8 128.7 455.5 121.4 472.4 109.5C507.1 84.9 535.5 55.2 570.8 32C631 -7.8 711.2 -24.2 788.3 -16C792.6 -15.5 796.9 -15 801.2 -14.5C881.3 -4.2 957 21.2 1036.5 12.5C1040.5 12 1044.6 11.5 1048.6 10.9C1082.9 5.50001 1115.4 -8.4 1142.4 -31.5C1191.3 -73.3 1229.3 -126.3 1264.9 -179.9" stroke="#D3F1F4" stroke-miterlimit="10"/>
<path d="M-123.2 491.1C-73.0002 502.3 -10.2002 482.4 34.8998 447.9C50.9998 435.6 64.6998 421.1 74.3998 404.8C84.0998 388.7 90.1998 371.9 94.3998 354.6C99.2998 334.5 101.4 313.8 103.2 292.9C104.4 279 105.6 263.4 107.1 246.8C111.8 197.1 119.1 139.5 158.9 103.4C179.8 84.4 207.6 74.1 234.5 75.3C275.2 77.3 309.5 103.5 350.3 116.2C374.2 123.6 398 126.3 420.5 123.6C440.1 121.2 458.6 114.7 475.4 103.8C510.1 81.4 538.9 54.5 574.1 33.7C634.2 -2.09999 713.3 -16.2 789.8 -8.7C794.1 -8.3 798.3 -7.79999 802.6 -7.29999C882 2.00001 957 24.1 1034.9 13.3C1038.9 12.7 1042.8 12.1 1046.8 11.4C1080.4 5.20001 1112.1 -9.19999 1138.7 -32.4C1186.7 -74.3 1224.2 -126.9 1259.4 -180.1" stroke="#C9F1F4" stroke-miterlimit="10"/>
<path d="M-123.8 479.4C-74.9003 487.5 -13.5003 466.7 31.8997 433.8C48.0997 422 61.9997 408.4 72.1997 393.1C82.2997 378 89.1997 362.2 94.0997 346C99.8997 327.2 103.1 307.6 106.1 287.6C108.1 274.3 109.9 259.3 112.1 243.2C118.6 194.9 126.8 138.2 165.6 101.8C186 82.6 212.9 71.7 239.4 72C279.4 72.4 313.8 96.6 354.4 108.5C378.1 115.5 401.7 118.2 424 116C443.4 114.1 461.8 108.2 478.6 98.4C513.4 78.2 542.5 54.3 577.7 35.7C637.7 4.00001 715.8 -7.89999 791.7 -1.09999C795.9 -0.699991 800.1 -0.299994 804.4 0.100006C883.1 8.40001 957.4 27.1 1033.7 14.2C1037.6 13.5 1041.5 12.8 1045.3 12C1078.2 5 1109.2 -9.89999 1135.3 -33.1C1182.5 -75 1219.4 -127.3 1254.2 -180.1" stroke="#BEF1F5" stroke-miterlimit="10"/>
<path d="M-124.5 467.6C-77 472.6 -16.9 450.8 28.8 419.5C45.1 408.3 59.2 395.5 70 381.2C80.6 367.1 88.1 352.4 93.9 337.2C100.6 319.6 104.9 301.1 109 282.1C111.7 269.4 114.4 255.1 117.2 239.5C125.7 192.7 134.5 136.8 172.3 100.2C192.2 80.8 218.3 69.3 244.3 68.6C283.6 67.5 318.2 89.5 358.5 100.7C382 107.2 405.4 110 427.5 108.2C446.8 106.7 465 101.5 481.8 92.8C516.6 74.8 546.1 53.7 581.2 37.4C641.1 9.70001 718.1 0.100012 793.5 6.20001C797.7 6.50001 801.9 6.9 806 7.3C884.1 14.5 957.7 29.9 1032.3 15C1036.1 14.2 1039.9 13.4 1043.7 12.4C1075.9 4.50001 1106.2 -10.8 1131.8 -34C1178.1 -76 1214.5 -127.9 1248.9 -180.3" stroke="#B4F1F6" stroke-miterlimit="10"/>
<path d="M-125.2 455.9C-79.1002 457.8 -20.3002 435.1 25.6998 405.3C42.0998 394.7 56.3998 382.7 67.6998 369.4C78.7998 356.2 86.9998 342.6 93.4998 328.4C101.1 312 106.5 294.6 111.7 276.6C115.2 264.5 118.6 250.8 122 235.7C132.5 190.4 142 135.3 178.8 98.5C198.2 79 223.5 66.9 249 65.1C287.5 62.5 322.3 82.3 362.4 92.8C385.7 98.9 408.9 101.7 430.8 100.3C449.9 99.2 468.1 94.7 484.8 87.1C519.7 71.2 549.5 53.1 584.6 39.1C644.4 15.4 720.3 8.2 795.1 13.5C799.2 13.8 803.4 14.1 807.5 14.5C884.9 20.7 957.8 32.9 1030.8 15.8C1034.5 14.9 1038.2 14 1042 12.9C1073.5 4.20001 1103.1 -11.6 1128.2 -34.8C1173.6 -76.8 1209.5 -128.4 1243.5 -180.4" stroke="#AAF1F6" stroke-miterlimit="10"/>
<path d="M-125.8 444.2C-81.1003 443 -23.6003 419.3 22.6997 391.2C39.1997 381.1 53.7997 370 65.4997 357.7C76.9997 345.5 85.8997 332.9 93.1997 319.8C101.8 304.6 108.2 288.4 114.5 271.3C118.7 259.8 122.9 246.7 127 232.2C139.5 188.4 149.6 134.1 185.4 97.1C204.3 77.4 228.8 64.7 253.8 62C291.6 57.9 326.5 75.6 366.4 85.3C389.4 90.9 412.5 93.7 434.3 92.9C453.3 92.2 471.3 88.5 488 81.9C523 68.2 553.1 52.9 588.1 41.3C647.7 21.6 722.7 16.7 796.9 21.3C801 21.6 805.1 21.8 809.2 22.1C885.9 27.3 958.2 36.2 1029.6 17C1033.2 16 1036.9 15 1040.5 13.8C1071.3 4.3 1100.1 -12 1124.8 -35.3C1169.3 -77.4 1204.7 -128.6 1238.3 -180.1" stroke="#9FF0F7" stroke-miterlimit="10"/>
<path d="M-126.5 432.5C-83.2 428.2 -27 403.6 19.6 377C36.2 367.5 51 357.2 63.2 345.9C75.2 334.7 84.7 323.2 92.8 311.1C102.3 297 109.8 282 117.2 266C122.2 255.1 127.1 242.6 131.9 228.6C146.3 186.3 157.2 132.8 192 95.5C210.4 75.7 234 62.3 258.6 58.6C295.7 53 330.7 68.5 370.4 77.5C393.2 82.7 416.1 85.5 437.7 85.1C456.5 84.8 474.4 81.8 491.1 76.3C526.1 64.8 556.6 52.4 591.6 43.1C651.1 27.3 725 24.8 798.6 28.7C802.7 28.9 806.7 29.1 810.8 29.4C886.8 33.6 958.4 39.1 1028.2 17.9C1031.8 16.8 1035.3 15.7 1038.9 14.4C1069 4.00001 1097.1 -12.7 1121.2 -36C1164.9 -78.1 1199.7 -129 1232.9 -180.1" stroke="#95F0F8" stroke-miterlimit="10"/>
<path d="M-127.2 420.7C-85.3002 413.3 -30.4002 387.8 16.4998 362.8C33.0998 353.9 48.1998 344.4 60.8998 334C73.3998 323.8 83.5998 313.3 92.4998 302.2C102.9 289.3 111.6 275.4 120 260.4C125.8 250.1 131.4 238.3 136.8 224.7C153.2 183.9 164.7 131.2 198.6 93.7C216.5 73.7 239.3 59.8 263.4 55C299.7 47.9 334.9 61.2 374.4 69.5C397 74.2 419.7 77.1 441.1 77.2C459.8 77.3 477.6 75 494.2 70.6C529.3 61.3 560 51.7 595 44.8C654.3 33 727.2 32.8 800.3 36C804.3 36.2 808.4 36.4 812.4 36.5C887.8 39.6 958.7 41.8 1026.8 18.6C1030.3 17.4 1033.8 16.1 1037.2 14.8C1066.6 3.6 1094 -13.6 1117.6 -36.9C1160.4 -79.1 1194.7 -129.6 1227.5 -180.3" stroke="#8BF0F8" stroke-miterlimit="10"/>
<path d="M-127.9 409C-87.3999 398.5 -33.7999 372 13.4001 348.6C30.1001 340.2 45.5001 331.6 58.6001 322.2C71.5001 312.9 82.4001 303.5 92.1001 293.5C103.4 281.8 113.2 269.1 122.7 255C129.2 245.3 135.6 234.1 141.7 221.1C160.1 181.7 172.3 129.9 205.1 92.2C222.5 72.1 244.5 57.5 268.1 51.7C303.7 43 339 54.3 378.3 61.8C400.7 66.1 423.2 68.9 444.4 69.5C462.9 70 480.6 68.5 497.1 65.2C532.3 58.2 563.3 51.3 598.3 46.7C657.5 38.9 729.4 41 801.8 43.5C805.8 43.6 809.8 43.8 813.8 43.9C888.5 46 958.7 44.9 1025.2 19.6C1028.6 18.3 1032 16.9 1035.4 15.5C1064.1 3.4 1090.8 -14.2 1113.9 -37.5C1155.8 -79.7 1189.6 -129.9 1222 -180.2" stroke="#80F0F9" stroke-miterlimit="10"/>
<path d="M-128.5 397.3C-89.3 383.7 -37.1 356.3 10.3 334.4C27.1 326.6 42.7 318.8 56.3 310.4C69.7 302.1 81.2 293.8 91.7 284.8C103.9 274.3 114.9 262.7 125.4 249.6C132.7 240.5 139.8 229.9 146.6 217.4C167 179.5 179.8 128.5 211.7 90.5C228.6 70.2 249.8 55.1 272.9 48.3C307.8 38.1 343.2 47.2 382.3 54C404.5 57.9 426.8 60.7 447.8 61.7C466.2 62.6 483.7 61.8 500.2 59.6C535.5 54.8 566.8 50.8 601.7 48.5C660.7 44.7 731.6 49.1 803.5 50.9C807.5 51 811.4 51.1 815.4 51.1C889.4 52.2 958.9 47.7 1023.8 20.4C1027.1 19 1030.4 17.5 1033.7 16C1061.7 3.1 1087.7 -15 1110.3 -38.4C1151.3 -80.7 1184.7 -130.5 1216.6 -180.4" stroke="#76F0F9" stroke-miterlimit="10"/>
<path d="M-129.2 385.5C-91.4002 368.8 -40.5002 340.4 7.19983 320.2C24.0998 313 39.8998 306 53.9998 298.6C67.8998 291.3 80.0998 284 91.3998 276C104.6 266.7 116.6 256.2 128.2 244.1C136.3 235.6 144.1 225.6 151.5 213.7C173.9 177.3 187.4 127.1 218.3 88.9C234.7 68.4 255.1 52.7 277.7 44.9C311.8 33.2 347.4 40.2 386.4 46.2C408.4 49.6 430.5 52.5 451.3 54C469.5 55.3 487 55.3 503.4 54.1C538.8 51.5 570.4 50.6 605.3 50.4C664.2 50.1 734 57.3 805.3 58.4C809.2 58.5 813.2 58.5 817.1 58.5C890.5 58.6 959.3 50.7 1022.5 21.4C1025.7 19.9 1029 18.3 1032.2 16.7C1059.4 3.00001 1084.7 -15.6 1106.9 -39C1147.1 -81.4 1179.9 -130.8 1211.4 -180.3" stroke="#6CF0FA" stroke-miterlimit="10"/>
<path d="M-129.9 373.8C-93.4999 353.9 -43.8999 324.7 4.1001 306C21.1001 299.3 37.2001 293.2 51.7001 286.8C66.0001 280.5 78.9001 274.2 91.0001 267.3C105.1 259.2 118.3 249.9 131 238.7C139.9 230.9 148.5 221.5 156.5 210C180.9 175.1 195 125.7 224.9 87.3C240.8 66.7 260.3 50.3 282.5 41.5C315.9 28.3 351.6 33.1 390.4 38.4C412.2 41.4 434.1 44.3 454.8 46.2C472.9 47.9 490.2 48.2 506.6 48.5C542.1 49.1 574 49.7 608.9 52.2C667.6 56.3 736.5 65.5 807.2 65.8C811.1 65.8 815 65.8 818.9 65.8C891.6 64.9 959.7 53.6 1021.3 22.3C1024.5 20.7 1027.6 19 1030.8 17.3C1057.3 2.7 1081.9 -16.3 1103.6 -39.7C1142.9 -82.1 1175.2 -131.2 1206.3 -180.3" stroke="#61EFFB" stroke-miterlimit="10"/>
<path d="M-130.6 362.1C-95.6001 339.1 -47.3001 309 0.999908 291.8C18.0999 285.7 34.3999 280.4 49.3999 275C64.1999 269.6 77.7999 264.5 90.5999 258.6C105.6 251.8 120 243.6 133.7 233.3C143.4 226.1 152.7 217.3 161.3 206.3C187.7 172.9 202.5 124.3 231.4 85.7C246.8 64.9 265.5 48 287.2 38.2C319.9 23.5 355.7 26.2 394.3 30.7C415.9 33.2 437.6 36.1 458.1 38.5C476 40.6 493.3 42.1 509.6 43C545.2 45 577.4 49.3 612.2 54C670.8 62 738.6 73.6 808.7 73.2C812.5 73.2 816.4 73.1 820.3 73C892.3 71 959.7 56.4 1019.7 23.1C1022.8 21.4 1025.9 19.6 1028.9 17.8C1054.7 2.4 1078.6 -17.1 1099.8 -40.5C1138.2 -83 1170 -131.7 1200.7 -180.4" stroke="#57EFFB" stroke-miterlimit="10"/>
<path d="M-131.2 350.3C-97.6002 324.2 -50.6002 293.1 -2.00018 277.6C15.1998 272.1 31.6998 267.6 47.1998 263.2C62.4998 258.8 76.6998 254.7 90.3998 249.8C106.4 244.2 121.9 237.1 136.6 227.8C147 221.2 157.1 213 166.4 202.6C194.8 170.7 210.2 122.9 238.2 84C253.1 63.1 271 45.5 292.2 34.7C324.1 18.5 360.1 19 398.5 22.8C419.9 24.9 441.4 27.8 461.7 30.7C479.5 33.2 496.6 35.5 512.9 37.4C548.6 41.6 581.1 48.7 615.9 55.8C674.4 67.8 741.1 81.7 810.7 80.6C814.5 80.5 818.3 80.4 822.2 80.3C893.5 77.3 960.3 59.4 1018.6 24C1021.6 22.2 1024.6 20.3 1027.6 18.4C1052.7 2.10001 1075.9 -17.9 1096.6 -41.3C1134.1 -83.8 1165.4 -132.2 1195.7 -180.5" stroke="#4DEFFC" stroke-miterlimit="10"/>
<path d="M-131.9 338.6C-99.6999 309.4 -53.9999 277.4 -5.09991 263.4C12.2001 258.4 29.0001 254.8 44.9001 251.4C60.6001 248 75.6001 244.9 90.0001 241.1C106.9 236.7 123.5 230.8 139.3 222.5C150.5 216.5 161.3 209 171.3 199C201.7 168.6 217.8 121.6 244.7 82.5C259.1 61.4 276.2 43.2 296.9 31.4C328.1 13.7 364.2 12.1 402.4 15.1C423.6 16.8 444.9 19.7 465 23C482.6 25.9 499.6 28.9 515.9 31.9C551.7 38.4 584.4 48.2 619.2 57.7C677.5 73.6 743.3 89.9 812.3 88.1C816.1 88 819.9 87.9 823.7 87.6C894.4 83.6 960.3 62.2 1017.1 24.9C1020 23 1022.9 21 1025.8 19C1050.2 1.9 1072.7 -18.6 1092.8 -42C1129.5 -84.6 1160.2 -132.6 1190.1 -180.5" stroke="#42EFFD" stroke-miterlimit="10"/>
<path d="M-132.6 326.9C-101.8 294.6 -57.4001 261.6 -8.2001 249.2C9.0999 244.8 26.1999 242 42.5999 239.6C58.7999 237.2 74.3999 235.2 89.5999 232.4C107.4 229.2 125.2 224.5 142 217.1C154 211.8 165.6 204.8 176.1 195.4C208.5 166.6 225.2 120.4 251.2 81C265.1 59.8 281.4 41 301.6 28.1C332.1 8.80001 368.4 5.20001 406.3 7.40001C427.3 8.60001 448.4 11.5 468.3 15.4C485.8 18.8 502.7 22.5 518.9 26.5C554.7 35.3 587.9 47.8 622.6 59.7C680.8 79.5 745.5 98.2 813.9 95.7C817.6 95.6 821.4 95.4 825.1 95.1C895.1 90.1 960.3 65.3 1015.5 26C1018.4 24 1021.2 21.9 1024 19.7C1047.7 1.80001 1069.4 -19.2 1089.1 -42.6C1124.9 -85.2 1155.1 -132.9 1184.7 -180.4" stroke="#38EFFD" stroke-miterlimit="10"/>
<path d="M-133.2 315.2C-103.7 279.8 -60.7002 245.9 -11.2002 235.1C6.1998 231.3 23.4998 229.3 40.3998 227.8C57.0998 226.3 73.3998 225.4 89.3998 223.6C108.1 221.6 127 218.1 144.9 211.6C157.7 206.9 170 200.5 181.2 191.6C215.6 164.3 233 118.9 257.9 79.2C271.4 57.8 286.7 38.4 306.5 24.6C336.2 3.80001 372.7 -1.9 410.4 -0.5C431.1 0.3 452 3.2 471.8 7.5C489.1 11.3 505.9 15.8 522 20.8C557.9 32 591.4 47.1 626 61.4C684.1 85.1 747.8 106.2 815.6 103C819.3 102.8 823 102.6 826.7 102.3C896 96.2 960.6 68.1 1014.1 26.8C1016.9 24.6 1019.6 22.5 1022.3 20.2C1045.3 1.40001 1066.3 -20 1085.5 -43.4C1120.4 -86.1 1150.1 -133.4 1179.3 -180.5" stroke="#2EEEFE" stroke-miterlimit="10"/>
<path d="M-133.9 303.4C-105.8 264.9 -64.0999 230.1 -14.2999 220.8C3.2001 217.5 20.8001 216.4 38.1001 215.9C55.2001 215.4 72.2001 215.5 89.0001 214.8C108.7 214 128.7 211.7 147.6 206.1C161.2 202.1 174.2 196.3 186 187.8C222.4 162 240.4 117.4 264.4 77.5C277.4 55.9 291.9 35.9 311.2 21.1C340.2 -1.19999 376.8 -9.09999 414.3 -8.39999C434.8 -7.99999 455.5 -5.09999 475.1 -0.399994C492.3 3.80001 508.9 9.10001 525 15.1C561 28.6 594.7 46.4 629.4 63C687.4 90.7 750 114.1 817.2 110.2C820.9 110 824.5 109.7 828.2 109.3C896.9 102.2 960.7 70.8 1012.6 27.3C1015.3 25 1018 22.7 1020.6 20.4C1042.9 0.800009 1063.2 -21.1 1081.9 -44.5C1115.9 -87.2 1145.1 -134.2 1173.9 -180.9" stroke="#23EEFE" stroke-miterlimit="10"/>
<path d="M-134.6 291.7C-107.9 250.1 -67.5001 214.3 -17.4001 206.7C17.5999 201.3 53.1999 205.6 88.5999 206.2C124 206.8 161 203.2 190.9 184.3C250.1 146.8 262.4 63 316 17.9C359.6 -18.9 423.5 -22.8 478.6 -8C533.7 6.8 582.9 37.6 632.9 65.1C693.9 98.5 759 125.3 829.9 116.9C897.9 108.8 961 74 1011.3 28.5C1076.2 -30.2 1122.9 -106 1168.6 -180.6" stroke="#19EEFF" stroke-miterlimit="10"/>
</g>
<path d="M1779.86 1052.97C1713.76 1021.37 1630.86 1028.07 1570.76 1069.97C1550.86 1083.77 1533.56 1101.06 1513.76 1115.06C1493.96 1129.06 1470.66 1140.06 1446.46 1138.76C1408.36 1136.66 1378.86 1105.77 1344.36 1089.37C1290.06 1063.57 1225.56 1074.87 1168.56 1093.87C1111.46 1112.87 1055.46 1139.06 995.459 1141.96C976.559 1142.86 957.159 1141.37 939.859 1133.67C922.559 1125.97 907.559 1111.56 902.659 1093.26C894.159 1061.36 919.559 1028.17 950.559 1016.97C981.559 1005.77 1015.96 1011.26 1048.06 1019.06C1080.16 1026.86 1112.46 1036.86 1145.36 1034.26C1202.06 1029.76 1248.76 989.165 1287.66 947.765C1326.56 906.365 1364.56 860.465 1417.36 839.465C1463.26 821.165 1514.86 824.065 1563.36 833.165C1611.86 842.265 1659.36 857.265 1708.46 862.465C1757.56 867.665 1810.16 861.965 1850.36 833.165L1779.86 1052.97Z" fill="#194D59"/>
<path d="M568.37 1456.54C572.87 1362.44 625.27 1273.74 705.27 1224.04C745.77 1198.84 792.67 1184.05 840.37 1180.85C894.57 1177.15 938.37 1196.05 990.27 1205.65C1030.67 1213.15 1072.67 1214.95 1112.47 1203.65C1153.67 1192.05 1190.87 1166.55 1216.57 1132.35C1259.57 1075.25 1252.47 1003.14 1280.47 939.845C1305.77 882.545 1359.27 838.545 1420.37 824.745C1481.47 810.945 1548.67 827.745 1596.17 868.645" stroke="#F2F2F2" stroke-miterlimit="10"/>
<path d="M561.47 1456.74C565.67 1363.54 617.17 1275.54 695.97 1225.74C736.67 1199.84 784.07 1184.74 832.17 1181.54C846.47 1180.54 860.07 1181.25 873.37 1182.85C910.67 1187.35 944.97 1199.85 983.47 1207.35C991.07 1208.85 998.77 1210.05 1006.37 1211.15C1039.97 1215.65 1074.17 1215.25 1106.87 1205.95C1124.87 1200.85 1141.97 1193.05 1157.77 1182.85C1178.37 1169.55 1196.47 1152.44 1211.07 1132.74C1213.17 1129.84 1215.27 1126.94 1217.17 1124.04C1249.17 1075.24 1252.97 1019.94 1272.27 969.845C1275.27 962.145 1278.57 954.445 1282.37 947.045C1298.17 916.445 1322.67 890.445 1352.47 871.445C1374.47 857.445 1399.37 847.245 1425.57 841.945C1443.47 838.345 1461.87 837.045 1480.07 837.845C1524.87 839.745 1568.97 853.645 1600.97 878.645" stroke="#E7EBEC" stroke-miterlimit="10"/>
<path d="M554.57 1456.85C558.47 1364.55 609.27 1277.45 686.77 1227.45C727.77 1201.05 775.57 1185.45 824.17 1182.35C838.57 1181.45 852.37 1182.05 865.77 1183.65C903.47 1188.35 938.07 1201.15 976.87 1208.95C984.57 1210.45 992.27 1211.85 999.97 1212.95C1033.87 1217.75 1068.57 1217.65 1101.47 1208.15C1119.57 1202.95 1136.87 1194.95 1152.67 1184.35C1173.27 1170.65 1191.07 1153.05 1205.77 1133.05C1207.87 1130.15 1209.97 1127.15 1211.87 1124.25C1244.37 1074.75 1251.77 1021.85 1273.47 975.245C1276.77 968.045 1280.47 960.945 1284.57 954.145C1301.57 925.945 1326.77 902.345 1356.97 885.345C1379.27 872.745 1404.47 863.745 1430.97 859.045C1449.07 855.845 1467.67 854.645 1486.07 855.245C1531.37 856.545 1575.77 867.545 1606.17 888.645" stroke="#DDE4E6" stroke-miterlimit="10"/>
<path d="M547.67 1456.95C551.27 1365.55 601.17 1279.15 677.57 1229.15C718.77 1202.15 767.07 1186.14 816.17 1183.04C830.67 1182.14 844.67 1182.75 858.27 1184.45C896.37 1189.25 931.37 1202.34 970.37 1210.54C978.07 1212.14 985.87 1213.64 993.67 1214.74C1027.97 1219.94 1062.97 1219.94 1096.17 1210.24C1114.37 1204.94 1131.77 1196.74 1147.67 1185.74C1168.27 1171.64 1185.87 1153.55 1200.57 1133.35C1202.77 1130.35 1204.77 1127.45 1206.77 1124.45C1239.77 1074.35 1250.67 1023.65 1274.77 980.645C1278.47 974.045 1282.47 967.545 1286.87 961.145C1305.17 935.345 1330.97 914.245 1361.67 899.145C1384.37 888.045 1409.77 880.145 1436.57 876.045C1454.87 873.245 1473.57 872.245 1492.27 872.545C1538.07 873.345 1582.77 881.345 1611.47 898.445" stroke="#D2DDE1" stroke-miterlimit="10"/>
<path d="M540.77 1457.04C544.07 1366.54 593.07 1280.84 668.27 1230.74C709.67 1203.24 758.37 1186.84 808.07 1183.74C822.77 1182.84 836.77 1183.44 850.57 1185.24C888.97 1190.14 924.47 1203.65 963.67 1212.15C971.47 1213.85 979.27 1215.35 987.17 1216.65C1021.77 1222.15 1057.27 1222.34 1090.67 1212.54C1109.07 1207.14 1126.47 1198.75 1142.37 1187.45C1162.97 1172.95 1180.27 1154.35 1195.17 1133.85C1197.37 1130.85 1199.37 1127.85 1201.37 1124.85C1234.87 1074.05 1249.27 1025.74 1275.77 986.245C1279.87 980.145 1284.17 974.245 1288.87 968.445C1308.37 945.045 1334.87 926.445 1365.97 913.345C1388.97 903.645 1414.77 896.945 1441.77 893.445C1460.27 891.045 1479.17 890.145 1498.07 890.245C1544.27 890.545 1589.37 895.545 1616.47 908.645" stroke="#C7D6DB" stroke-miterlimit="10"/>
<path d="M533.77 1457.15C536.77 1367.55 584.87 1282.55 658.97 1232.45C700.47 1204.35 749.77 1187.55 799.97 1184.45C814.77 1183.55 828.97 1184.24 842.87 1186.04C881.67 1191.14 917.57 1204.84 956.97 1213.74C964.87 1215.54 972.77 1217.15 980.67 1218.45C1015.67 1224.35 1051.57 1224.65 1085.27 1214.65C1103.77 1209.15 1121.37 1200.55 1137.27 1188.85C1157.87 1173.95 1174.97 1154.84 1189.87 1134.04C1192.07 1131.04 1194.17 1127.95 1196.17 1124.95C1230.17 1073.55 1248.07 1027.54 1277.07 991.445C1281.57 985.945 1286.17 980.545 1291.17 975.345C1311.87 954.245 1339.07 938.245 1370.67 927.045C1393.97 918.745 1420.07 913.245 1447.37 910.245C1466.07 908.245 1485.17 907.445 1504.27 907.345C1550.97 907.145 1596.47 909.145 1621.77 918.245" stroke="#BCCFD5" stroke-miterlimit="10"/>
<path d="M526.87 1457.24C529.57 1368.54 576.87 1284.24 649.77 1234.14C691.47 1205.44 741.27 1188.24 791.97 1185.24C806.87 1184.34 821.27 1185.04 835.27 1186.94C874.47 1192.14 910.67 1206.24 950.37 1215.44C958.27 1217.34 966.27 1218.95 974.27 1220.35C1009.57 1226.55 1045.87 1227.14 1079.87 1216.94C1098.47 1211.34 1116.17 1202.54 1132.17 1190.44C1152.67 1175.04 1169.57 1155.44 1184.57 1134.44C1186.77 1131.34 1188.87 1128.34 1190.87 1125.24C1225.37 1073.24 1246.77 1029.44 1278.17 996.945C1282.97 991.945 1287.97 987.145 1293.27 982.545C1315.17 963.845 1342.97 950.245 1375.07 941.045C1398.77 934.245 1425.07 929.845 1452.67 927.445C1471.57 925.845 1490.87 925.145 1510.07 924.845C1557.17 924.045 1603.07 923.145 1626.67 928.345" stroke="#B2C8CF" stroke-miterlimit="10"/>
<path d="M519.97 1457.35C522.37 1369.55 568.77 1285.95 640.47 1235.75C682.37 1206.45 732.67 1188.85 783.77 1185.85C798.77 1184.95 813.27 1185.65 827.57 1187.55C867.17 1192.85 903.77 1207.25 943.67 1216.95C951.67 1218.85 959.67 1220.65 967.77 1222.15C1003.47 1228.75 1040.17 1229.45 1074.37 1219.05C1093.07 1213.35 1110.87 1204.35 1126.97 1191.85C1147.47 1176.05 1164.17 1155.95 1179.17 1134.65C1181.37 1131.55 1183.47 1128.45 1185.57 1125.35C1220.67 1072.65 1245.47 1031.25 1279.27 1002.25C1284.47 997.845 1289.77 993.545 1295.37 989.545C1318.57 973.245 1346.97 962.145 1379.57 954.845C1403.57 949.445 1430.27 946.245 1458.07 944.445C1477.17 943.245 1496.67 942.745 1516.07 942.145C1563.67 940.845 1609.87 936.945 1631.87 938.145" stroke="#A7C1C9" stroke-miterlimit="10"/>
<path d="M513.07 1457.54C515.17 1370.64 560.67 1287.74 631.27 1237.54C673.37 1207.64 724.07 1189.64 775.77 1186.74C790.87 1185.84 805.57 1186.64 819.97 1188.54C859.97 1194.04 896.97 1208.74 937.07 1218.74C945.17 1220.74 953.27 1222.64 961.37 1224.14C997.37 1231.04 1034.47 1231.95 1068.97 1221.35C1087.87 1215.55 1105.67 1206.34 1121.87 1193.54C1142.37 1177.24 1158.77 1156.74 1173.87 1135.14C1176.07 1132.04 1178.17 1128.84 1180.27 1125.74C1215.87 1072.44 1244.07 1033.25 1280.47 1007.85C1285.97 1003.95 1291.67 1000.25 1297.57 996.845C1321.97 982.945 1351.07 974.345 1384.07 969.045C1408.47 965.145 1435.37 963.045 1463.47 961.845C1482.77 961.045 1502.47 960.645 1522.07 959.845C1570.17 958.045 1616.67 951.245 1636.97 948.345" stroke="#9CBAC4" stroke-miterlimit="10"/>
<path d="M506.07 1457.65C507.87 1371.75 552.47 1289.35 621.97 1239.15C664.27 1208.55 715.47 1190.25 767.67 1187.35C782.87 1186.55 797.77 1187.24 812.27 1189.24C852.67 1194.84 889.97 1209.84 930.37 1220.24C938.47 1222.34 946.67 1224.25 954.87 1225.85C991.27 1233.15 1028.77 1234.15 1063.47 1223.45C1082.47 1217.55 1100.47 1208.15 1116.57 1194.95C1137.07 1178.25 1153.27 1157.25 1168.37 1135.35C1170.57 1132.15 1172.77 1128.95 1174.87 1125.85C1210.97 1071.85 1242.67 1035.05 1281.47 1013.15C1287.37 1009.85 1293.37 1006.65 1299.57 1003.85C1325.17 992.245 1354.97 986.145 1388.47 982.845C1413.17 980.345 1440.47 979.445 1468.77 978.845C1488.27 978.445 1508.17 978.145 1527.97 977.245C1576.47 974.945 1623.37 965.145 1641.97 958.245" stroke="#92B3BE" stroke-miterlimit="10"/>
<path d="M499.17 1457.74C500.67 1372.74 544.37 1291.05 612.67 1240.85C655.17 1209.65 706.87 1190.95 759.57 1188.15C774.97 1187.35 789.97 1188.05 804.67 1190.15C845.47 1195.85 883.17 1211.25 923.77 1221.95C931.97 1224.15 940.17 1226.15 948.47 1227.85C985.17 1235.45 1023.17 1236.74 1058.07 1225.74C1077.17 1219.74 1095.27 1210.14 1111.47 1196.54C1131.97 1179.44 1147.87 1157.94 1163.07 1135.74C1165.27 1132.54 1167.47 1129.35 1169.57 1126.15C1206.17 1071.55 1241.27 1036.94 1282.57 1018.54C1288.87 1015.74 1295.17 1013.15 1301.67 1010.95C1328.57 1001.75 1358.97 998.145 1392.97 996.745C1417.97 995.645 1445.57 995.945 1474.17 995.845C1493.87 995.845 1513.87 995.645 1533.87 994.545C1582.87 991.745 1630.17 978.945 1647.07 968.145" stroke="#87ACB8" stroke-miterlimit="10"/>
<path d="M492.27 1457.85C493.47 1373.75 536.17 1292.64 603.47 1242.54C646.07 1210.74 698.27 1191.65 751.57 1188.85C767.07 1188.05 782.17 1188.75 797.07 1190.95C838.17 1196.75 876.37 1212.44 917.17 1223.54C925.37 1225.84 933.67 1227.85 942.07 1229.65C979.07 1237.65 1017.47 1239.05 1052.77 1227.95C1072.07 1221.85 1090.17 1212.05 1106.47 1198.15C1126.87 1180.65 1142.67 1158.65 1157.87 1136.15C1160.07 1132.85 1162.27 1129.65 1164.47 1126.45C1201.57 1071.15 1240.07 1038.84 1283.97 1024.04C1290.57 1021.84 1297.27 1019.85 1304.07 1018.15C1332.17 1011.35 1363.27 1010.24 1397.67 1010.74C1423.07 1011.14 1450.87 1012.54 1479.77 1013.04C1499.67 1013.44 1519.87 1013.44 1540.07 1012.04C1589.47 1008.64 1637.17 992.945 1652.37 978.145" stroke="#7CA6B2" stroke-miterlimit="10"/>
<path d="M485.37 1457.95C486.27 1374.75 528.07 1294.35 594.27 1244.15C637.07 1211.75 689.77 1192.25 743.57 1189.55C759.17 1188.75 774.47 1189.55 789.47 1191.65C830.97 1197.65 869.57 1213.65 910.67 1225.05C918.97 1227.35 927.37 1229.55 935.77 1231.35C973.17 1239.65 1011.97 1241.25 1047.47 1229.95C1066.87 1223.75 1085.07 1213.75 1101.47 1199.45C1121.87 1181.55 1137.37 1158.95 1152.67 1136.25C1154.87 1132.95 1157.07 1129.65 1159.27 1126.45C1196.87 1070.55 1238.87 1040.55 1285.17 1029.25C1292.17 1027.55 1299.17 1026.15 1306.27 1025.05C1335.57 1020.65 1367.27 1021.95 1402.27 1024.55C1427.97 1026.35 1456.17 1028.95 1485.27 1030.05C1505.37 1030.85 1525.77 1030.95 1546.17 1029.35C1596.07 1025.45 1644.07 1006.75 1657.67 987.945" stroke="#719FAC" stroke-miterlimit="10"/>
<path d="M478.47 1458.04C479.07 1375.74 519.97 1295.94 584.97 1245.84C627.97 1212.74 681.17 1193.04 735.37 1190.24C751.07 1189.44 766.57 1190.24 781.67 1192.44C823.57 1198.54 862.47 1214.84 903.87 1226.74C912.27 1229.14 920.67 1231.34 929.17 1233.34C966.87 1242.04 1006.07 1243.74 1041.87 1232.34C1061.37 1226.04 1079.77 1215.84 1096.17 1201.14C1116.57 1182.84 1131.87 1159.74 1147.17 1136.74C1149.37 1133.44 1151.57 1130.04 1153.87 1126.84C1192.07 1070.24 1237.37 1042.54 1286.17 1034.84C1293.47 1033.64 1300.87 1032.84 1308.27 1032.34C1338.87 1030.24 1371.17 1034.14 1406.57 1038.64C1432.57 1041.94 1461.07 1045.64 1490.47 1047.34C1510.67 1048.54 1531.37 1048.74 1551.97 1046.94C1602.37 1042.54 1650.67 1020.84 1662.57 998.045" stroke="#6798A6" stroke-miterlimit="10"/>
<path d="M471.47 1458.15C471.77 1376.75 511.67 1297.55 575.67 1247.45C618.77 1213.75 672.57 1193.65 727.27 1190.95C743.07 1190.15 758.67 1190.94 774.07 1193.24C816.37 1199.44 855.67 1216.15 897.27 1228.35C905.67 1230.85 914.17 1233.15 922.77 1235.15C960.87 1244.15 1000.47 1246.15 1036.47 1234.45C1056.17 1228.15 1074.57 1217.74 1090.97 1202.54C1111.37 1183.84 1126.37 1160.25 1141.77 1136.95C1143.97 1133.55 1146.27 1130.25 1148.47 1126.85C1187.17 1069.65 1235.87 1044.14 1287.17 1040.04C1294.87 1039.44 1302.57 1039.14 1310.27 1039.24C1342.07 1039.54 1375.07 1045.95 1410.97 1052.35C1437.37 1057.05 1466.07 1061.95 1495.77 1064.15C1516.17 1065.75 1537.07 1066.04 1557.87 1064.04C1608.67 1059.14 1657.37 1034.44 1667.57 1007.74" stroke="#5C91A1" stroke-miterlimit="10"/>
<path d="M464.57 1458.35C464.57 1377.85 503.57 1299.24 566.47 1249.24C609.77 1214.84 663.97 1194.44 719.27 1191.74C735.17 1190.94 750.97 1191.85 766.47 1194.15C809.17 1200.55 848.87 1217.44 890.67 1230.04C899.17 1232.64 907.77 1235.04 916.37 1237.04C954.77 1246.44 994.87 1248.54 1031.07 1236.74C1050.87 1230.34 1069.47 1219.74 1085.87 1204.24C1106.27 1185.14 1121.07 1161.05 1136.57 1137.45C1138.77 1134.05 1141.07 1130.64 1143.37 1127.24C1182.57 1069.44 1234.77 1046.04 1288.57 1045.54C1296.67 1045.44 1304.67 1045.75 1312.67 1046.35C1345.67 1049.05 1379.37 1057.94 1415.67 1066.24C1442.37 1072.34 1471.47 1078.44 1501.37 1081.24C1521.97 1083.24 1543.07 1083.75 1563.97 1081.45C1615.27 1075.95 1664.27 1048.35 1672.87 1017.65" stroke="#518A9B" stroke-miterlimit="10"/>
<path d="M457.67 1458.45C457.37 1378.85 495.37 1300.85 557.17 1250.95C600.57 1215.95 655.37 1195.14 711.17 1192.54C727.17 1191.74 743.17 1192.64 758.77 1195.04C801.87 1201.54 841.87 1218.84 883.97 1231.74C892.57 1234.34 901.17 1236.84 909.87 1239.04C948.67 1248.74 989.07 1251.04 1025.67 1239.04C1045.57 1232.54 1064.27 1221.75 1080.77 1205.85C1101.17 1186.25 1115.67 1161.75 1131.27 1137.85C1133.57 1134.45 1135.77 1130.94 1138.07 1127.54C1177.77 1069.04 1233.37 1047.94 1289.67 1051.04C1298.07 1051.54 1306.47 1052.34 1314.77 1053.54C1349.07 1058.64 1383.37 1069.95 1420.17 1080.35C1447.27 1087.95 1476.57 1095.04 1506.77 1098.54C1527.57 1100.94 1548.87 1101.54 1569.97 1099.04C1621.67 1093.04 1671.17 1062.54 1677.97 1027.74" stroke="#478395" stroke-miterlimit="10"/>
<path d="M450.77 1458.55C450.17 1379.85 487.27 1302.45 547.97 1252.55C591.47 1216.85 646.87 1195.75 703.17 1193.15C719.37 1192.45 735.37 1193.25 751.27 1195.65C794.67 1202.25 835.17 1219.85 877.47 1233.15C886.07 1235.85 894.77 1238.45 903.57 1240.65C942.67 1250.75 983.57 1253.25 1020.37 1241.05C1040.47 1234.45 1059.17 1223.45 1075.77 1207.15C1096.17 1187.15 1110.47 1162.05 1126.07 1137.95C1128.37 1134.45 1130.57 1131.05 1132.97 1127.55C1173.17 1068.45 1232.27 1049.55 1290.97 1056.25C1299.77 1057.25 1308.47 1058.65 1317.07 1060.45C1352.57 1067.85 1387.57 1081.75 1424.77 1094.05C1452.17 1103.05 1481.77 1111.35 1512.27 1115.45C1533.27 1118.25 1554.77 1118.95 1576.07 1116.25C1628.27 1109.75 1678.07 1076.25 1683.27 1037.45" stroke="#3C7C8F" stroke-miterlimit="10"/>
<path d="M443.77 1458.64C442.87 1380.84 478.97 1303.94 538.67 1254.24C582.37 1217.84 638.27 1196.44 695.07 1193.94C711.37 1193.24 727.57 1194.04 743.57 1196.54C787.37 1203.34 828.27 1221.24 870.77 1234.94C879.47 1237.74 888.17 1240.34 897.07 1242.74C936.57 1253.14 977.77 1255.84 1014.87 1243.44C1035.07 1236.74 1053.97 1225.54 1070.57 1208.94C1090.97 1188.54 1104.97 1162.94 1120.67 1138.64C1122.97 1135.14 1125.27 1131.64 1127.57 1128.14C1168.27 1068.34 1230.77 1051.74 1292.07 1062.04C1301.17 1063.54 1310.27 1065.54 1319.17 1067.94C1355.87 1077.74 1391.57 1094.14 1429.27 1108.34C1456.97 1118.84 1486.97 1128.24 1517.67 1132.84C1538.87 1136.04 1560.47 1136.84 1582.07 1134.04C1634.67 1127.04 1684.87 1090.54 1688.37 1047.84" stroke="#317589" stroke-miterlimit="10"/>
<path d="M436.87 1458.74C435.67 1381.84 470.77 1305.55 529.37 1255.95C573.17 1218.85 629.57 1197.15 686.87 1194.65C703.27 1193.95 719.67 1194.85 735.77 1197.35C779.97 1204.25 821.27 1222.44 863.97 1236.54C872.77 1239.44 881.57 1242.14 890.47 1244.54C930.27 1255.34 971.97 1258.15 1009.27 1245.65C1029.57 1238.85 1048.57 1227.45 1065.17 1210.45C1085.57 1189.65 1099.37 1163.55 1115.07 1138.95C1117.37 1135.35 1119.67 1131.85 1122.07 1128.35C1163.37 1067.95 1229.27 1053.35 1292.97 1067.45C1302.47 1069.55 1311.87 1072.04 1321.07 1075.04C1358.97 1087.24 1395.27 1106.04 1433.47 1122.24C1461.57 1134.14 1491.77 1144.75 1522.77 1149.95C1544.17 1153.55 1565.97 1154.55 1587.67 1151.45C1640.77 1143.85 1691.27 1104.44 1693.07 1057.74" stroke="#266E84" stroke-miterlimit="10"/>
<path d="M429.97 1458.85C428.47 1382.85 462.47 1307.05 520.17 1257.55C563.97 1219.75 621.07 1197.75 678.87 1195.35C695.37 1194.65 711.87 1195.55 728.17 1198.15C772.77 1205.15 814.37 1223.75 857.37 1238.15C866.17 1241.15 875.07 1243.85 884.07 1246.35C924.27 1257.45 966.37 1260.45 1003.87 1247.75C1024.27 1240.85 1043.37 1229.25 1060.07 1211.85C1080.47 1190.65 1093.97 1164.05 1109.77 1139.15C1112.07 1135.55 1114.37 1131.95 1116.77 1128.45C1158.57 1067.35 1227.97 1055.15 1294.07 1072.65C1303.97 1075.25 1313.67 1078.45 1323.17 1081.95C1362.37 1096.55 1399.27 1117.85 1437.97 1136.05C1466.37 1149.35 1496.87 1161.15 1528.17 1166.95C1549.77 1170.95 1571.77 1172.05 1593.67 1168.75C1647.27 1160.65 1698.07 1118.25 1698.27 1067.55" stroke="#1C677E" stroke-miterlimit="10"/>
<path d="M423.07 1458.95C421.27 1383.85 454.37 1308.64 510.97 1259.24C567.57 1209.84 646.47 1187.15 720.67 1198.95C774.97 1207.55 824.87 1233.24 877.67 1248.24C940.27 1265.94 1007.57 1263.95 1054.97 1213.45C1078.27 1188.65 1092.27 1156.84 1111.57 1128.74C1153.87 1067.04 1226.77 1057.05 1295.37 1078.15C1347.67 1094.25 1393.97 1125.04 1442.57 1150.04C1491.27 1175.04 1545.77 1194.84 1599.77 1186.24C1653.77 1177.64 1705.07 1132.24 1703.47 1077.54" stroke="#116078" stroke-miterlimit="10"/>
<path d="M436.87 1458.85C437.47 1385.45 472.07 1313.55 528.67 1265.35C535.17 1259.85 541.87 1254.64 548.87 1249.74C602.87 1212.14 670.67 1194.25 734.57 1201.95C764.37 1205.55 792.77 1214.25 821.07 1223.45C842.87 1230.55 864.67 1237.85 887.07 1243.15C947.67 1257.75 1012.87 1253.54 1059.57 1203.54C1082.57 1178.94 1096.87 1147.64 1116.27 1120.04C1158.47 1059.84 1230.37 1049.55 1297.97 1070.15C1310.77 1074.05 1323.27 1078.84 1335.57 1084.24C1372.57 1100.64 1407.17 1122.55 1443.27 1141.15C1451.47 1145.45 1459.97 1149.55 1468.47 1153.35C1509.67 1171.85 1554.27 1183.84 1598.37 1176.94C1651.67 1168.55 1702.37 1124.65 1702.27 1071.35" stroke="#11677E" stroke-miterlimit="10"/>
<path d="M450.67 1458.74C453.57 1387.14 489.77 1318.54 546.37 1271.54C552.87 1266.14 559.57 1261.04 566.57 1256.24C620.27 1219.24 686.47 1200.14 748.67 1205.14C777.67 1207.44 805.17 1214.64 832.57 1222.24C853.77 1228.04 874.87 1234.14 896.47 1238.24C955.17 1249.74 1018.17 1243.34 1064.07 1193.84C1086.77 1169.34 1101.37 1138.64 1120.87 1111.64C1163.07 1053.14 1233.87 1042.44 1300.57 1062.34C1313.27 1066.14 1325.57 1070.84 1337.67 1076.14C1374.17 1092.24 1408.27 1114.04 1443.77 1132.54C1451.87 1136.74 1460.17 1140.84 1468.57 1144.64C1509.17 1162.94 1553.17 1174.64 1596.77 1167.94C1649.37 1159.84 1699.47 1117.34 1700.87 1065.34" stroke="#126E85" stroke-miterlimit="10"/>
<path d="M464.47 1458.65C469.77 1388.75 507.47 1323.45 564.07 1277.75C570.57 1272.55 577.27 1267.55 584.17 1262.85C637.57 1226.45 702.27 1206.05 762.57 1208.35C790.77 1209.35 817.47 1214.95 843.97 1220.95C864.47 1225.55 884.87 1230.25 905.77 1233.35C962.47 1241.65 1023.37 1233.15 1068.57 1184.05C1090.97 1159.65 1105.87 1129.55 1125.47 1103.05C1167.67 1046.15 1237.37 1035.15 1303.07 1054.35C1315.57 1058.05 1327.77 1062.65 1339.77 1067.85C1375.87 1083.65 1409.37 1105.35 1444.37 1123.65C1452.37 1127.85 1460.57 1131.85 1468.87 1135.65C1508.97 1153.75 1552.37 1165.15 1595.37 1158.65C1647.37 1150.85 1696.77 1109.75 1699.67 1059.05" stroke="#12748B" stroke-miterlimit="10"/>
<path d="M478.27 1458.55C485.87 1390.45 525.17 1328.45 581.77 1283.85C588.27 1278.75 594.97 1273.85 601.87 1269.25C654.97 1233.55 717.97 1211.85 776.57 1211.45C803.87 1211.25 829.77 1215.25 855.47 1219.65C875.27 1223.05 895.07 1226.45 915.27 1228.35C970.07 1233.45 1028.77 1222.95 1073.17 1174.25C1095.27 1149.95 1110.37 1120.45 1130.17 1094.55C1172.37 1039.25 1240.97 1027.85 1305.77 1046.55C1318.17 1050.15 1330.17 1054.55 1341.97 1059.75C1377.57 1075.35 1410.57 1096.85 1444.97 1115.05C1452.87 1119.25 1460.87 1123.25 1469.07 1126.95C1508.57 1144.85 1551.47 1155.95 1593.87 1149.65C1645.17 1142.05 1693.97 1102.45 1698.37 1053.15" stroke="#137B92" stroke-miterlimit="10"/>
<path d="M492.07 1458.45C502.07 1392.05 542.87 1333.35 599.47 1290.05C605.97 1285.05 612.67 1280.35 619.47 1275.75C672.27 1240.65 733.77 1217.75 790.57 1214.55C817.07 1213.05 842.17 1215.45 866.87 1218.35C885.97 1220.55 905.07 1222.65 924.57 1223.45C977.37 1225.45 1034.07 1212.75 1077.57 1164.55C1099.37 1140.45 1114.77 1111.55 1134.67 1086.05C1176.77 1032.35 1244.37 1020.65 1308.17 1038.65C1320.37 1042.05 1332.27 1046.45 1343.97 1051.55C1379.07 1066.85 1411.57 1088.25 1445.47 1106.35C1453.27 1110.45 1461.17 1114.45 1469.27 1118.15C1508.17 1135.85 1550.47 1146.65 1592.37 1140.65C1642.97 1133.35 1691.17 1095.15 1697.07 1047.15" stroke="#138298" stroke-miterlimit="10"/>
<path d="M505.87 1458.35C518.27 1393.65 560.57 1338.25 617.17 1296.25C623.67 1291.45 630.37 1286.75 637.17 1282.35C689.67 1247.85 749.57 1223.65 804.67 1217.75C830.37 1214.95 854.57 1215.85 878.47 1217.15C896.97 1218.15 915.27 1218.94 934.07 1218.54C984.87 1217.44 1039.47 1202.55 1082.27 1154.85C1103.67 1130.85 1119.37 1102.55 1139.47 1077.55C1181.57 1025.35 1248.07 1013.35 1310.97 1030.85C1323.07 1034.15 1334.77 1038.45 1346.27 1043.45C1380.97 1058.45 1412.87 1079.75 1446.27 1097.65C1453.87 1101.75 1461.67 1105.65 1469.67 1109.35C1507.97 1126.95 1549.77 1137.35 1591.07 1131.55C1640.97 1124.55 1688.57 1087.75 1695.97 1041.15" stroke="#13899F" stroke-miterlimit="10"/>
<path d="M519.67 1458.24C534.37 1395.34 578.27 1343.25 634.87 1302.35C641.37 1297.65 647.97 1293.14 654.77 1288.74C706.97 1254.84 765.27 1229.45 818.57 1220.85C843.47 1216.75 866.87 1216.05 889.87 1215.85C907.67 1215.65 925.37 1215.14 943.47 1213.54C992.37 1209.24 1044.77 1192.25 1086.77 1144.95C1107.87 1121.05 1123.87 1093.35 1144.17 1068.95C1186.17 1018.35 1251.77 1006.05 1313.57 1022.85C1325.47 1026.05 1337.07 1030.25 1348.47 1035.15C1382.67 1049.95 1413.97 1071.05 1446.87 1088.85C1454.37 1092.95 1462.07 1096.85 1469.87 1100.45C1507.57 1117.85 1548.77 1127.95 1589.57 1122.35C1638.77 1115.55 1685.77 1080.25 1694.67 1034.95" stroke="#148FA5" stroke-miterlimit="10"/>
<path d="M533.47 1458.04C550.57 1396.84 595.97 1348.04 652.57 1308.44C659.07 1303.94 665.67 1299.44 672.47 1295.14C724.37 1261.94 781.07 1235.24 832.67 1223.84C856.77 1218.44 879.27 1216.24 901.37 1214.34C918.47 1212.84 935.47 1211.14 952.87 1208.44C999.77 1201.04 1050.07 1181.84 1091.37 1135.04C1112.17 1111.34 1128.37 1084.14 1148.87 1060.24C1190.77 1011.24 1255.37 998.645 1316.27 1014.84C1327.97 1017.94 1339.47 1021.94 1350.67 1026.74C1384.47 1041.24 1415.17 1062.24 1447.57 1079.94C1454.97 1083.94 1462.57 1087.84 1470.27 1091.44C1507.37 1108.64 1548.07 1118.44 1588.27 1113.04C1636.77 1106.54 1683.17 1072.64 1693.57 1028.64" stroke="#1496AB" stroke-miterlimit="10"/>
<path d="M547.37 1457.95C566.77 1398.45 613.77 1352.95 670.37 1314.55C676.87 1310.15 683.47 1305.85 690.17 1301.65C741.77 1269.05 796.87 1241.05 846.67 1226.95C869.87 1220.35 891.67 1216.45 912.87 1213.05C929.27 1210.35 945.57 1207.35 962.27 1203.45C1007.17 1192.95 1055.37 1171.55 1095.87 1125.25C1116.37 1101.65 1132.87 1075.05 1153.47 1051.75C1195.27 1004.35 1258.87 991.345 1318.77 1006.95C1330.37 1009.95 1341.67 1013.85 1352.77 1018.55C1386.07 1032.75 1416.27 1053.65 1448.07 1071.15C1455.37 1075.15 1462.77 1078.95 1470.37 1082.55C1506.87 1099.55 1547.07 1109.05 1586.67 1103.85C1634.47 1097.55 1680.37 1065.05 1692.17 1022.55" stroke="#149DB2" stroke-miterlimit="10"/>
<path d="M561.17 1457.85C582.97 1400.15 631.47 1357.94 688.07 1320.74C694.57 1316.44 701.17 1312.25 707.77 1308.15C759.07 1276.15 812.67 1246.95 860.67 1230.15C883.07 1222.25 903.97 1216.85 924.27 1211.85C940.07 1207.95 955.57 1203.65 971.67 1198.65C1014.57 1185.05 1060.77 1161.44 1100.47 1115.54C1120.67 1092.04 1137.37 1066.05 1158.17 1043.25C1199.87 997.345 1262.47 984.145 1321.47 999.045C1332.87 1001.94 1344.07 1005.75 1354.97 1010.35C1387.87 1024.25 1417.47 1045.05 1448.77 1062.45C1455.97 1066.45 1463.27 1070.25 1470.77 1073.75C1506.77 1090.55 1546.27 1099.75 1585.37 1094.85C1632.47 1088.85 1677.77 1057.74 1691.07 1016.54" stroke="#15A4B8" stroke-miterlimit="10"/>
<path d="M574.97 1457.75C599.07 1401.75 649.17 1362.85 705.77 1326.95C712.27 1322.85 718.87 1318.75 725.47 1314.65C776.47 1283.25 828.47 1252.85 874.67 1233.25C896.27 1224.05 916.37 1217.05 935.77 1210.55C950.87 1205.45 965.77 1199.95 981.07 1193.65C1021.97 1176.95 1066.07 1151.25 1104.97 1105.75C1124.87 1082.45 1141.87 1056.95 1162.77 1034.75C1204.37 990.445 1265.97 976.845 1323.97 991.245C1335.27 994.045 1346.27 997.745 1356.97 1002.25C1389.37 1015.95 1418.47 1036.65 1449.27 1053.85C1456.37 1057.75 1463.47 1061.55 1470.87 1065.05C1506.27 1081.65 1545.27 1090.55 1583.77 1085.85C1630.17 1080.15 1674.87 1050.45 1689.67 1010.65" stroke="#15AABF" stroke-miterlimit="10"/>
<path d="M588.77 1457.65C615.27 1403.35 666.87 1367.74 723.47 1333.04C729.97 1329.04 736.57 1325.15 743.07 1321.15C793.77 1290.45 844.17 1258.65 888.67 1236.45C909.47 1225.95 928.77 1217.44 947.27 1209.24C961.67 1202.94 975.87 1196.14 990.47 1188.74C1029.47 1168.94 1071.37 1141.04 1109.47 1096.04C1129.07 1072.84 1146.27 1047.94 1167.37 1026.24C1208.87 983.445 1269.47 969.645 1326.57 983.345C1337.67 986.045 1348.57 989.545 1359.17 994.045C1391.17 1007.44 1419.67 1028.04 1449.87 1045.04C1456.77 1048.94 1463.87 1052.65 1471.07 1056.15C1505.87 1072.65 1544.37 1081.25 1582.27 1076.65C1627.97 1071.15 1672.07 1042.94 1688.37 1004.44" stroke="#16B1C5" stroke-miterlimit="10"/>
<path d="M602.57 1457.54C631.37 1405.04 684.57 1372.74 741.17 1339.24C747.67 1335.44 754.17 1331.55 760.77 1327.65C811.27 1297.55 859.97 1264.54 902.67 1239.54C922.67 1227.84 941.07 1217.65 958.67 1207.95C972.47 1200.35 985.87 1192.35 999.87 1183.75C1036.87 1160.95 1076.67 1130.75 1114.07 1086.25C1133.37 1063.15 1150.87 1038.85 1172.07 1017.65C1213.47 976.445 1273.07 962.345 1329.17 975.445C1340.17 977.945 1350.87 981.445 1361.27 985.845C1392.77 998.945 1420.77 1019.45 1450.47 1036.35C1457.27 1040.25 1464.27 1043.95 1471.37 1047.35C1505.57 1063.65 1543.47 1071.94 1580.87 1067.54C1625.97 1062.34 1669.37 1035.55 1687.17 998.345" stroke="#16B8CC" stroke-miterlimit="10"/>
<path d="M616.37 1457.45C647.57 1406.65 702.27 1377.65 758.87 1345.45C765.37 1341.75 771.87 1338.05 778.37 1334.15C828.57 1304.65 875.67 1270.45 916.67 1242.65C935.77 1229.65 953.47 1217.95 970.17 1206.65C983.27 1197.85 995.97 1188.54 1009.27 1178.74C1044.27 1152.84 1081.97 1120.45 1118.57 1076.35C1137.57 1053.35 1155.27 1029.64 1176.77 1009.04C1218.07 969.345 1276.67 954.945 1331.77 967.445C1342.57 969.845 1353.17 973.245 1363.47 977.545C1394.57 990.445 1421.97 1010.74 1451.17 1027.44C1457.87 1031.24 1464.67 1034.95 1471.67 1038.35C1505.27 1054.45 1542.67 1062.44 1579.47 1058.24C1623.87 1053.24 1666.67 1027.95 1685.97 992.145" stroke="#16BFD2" stroke-miterlimit="10"/>
<path d="M630.17 1457.24C663.77 1408.14 719.97 1382.45 776.57 1351.45C783.07 1347.85 789.57 1344.24 796.07 1340.54C845.97 1311.64 891.47 1276.14 930.67 1245.74C948.97 1231.44 965.77 1218.15 981.67 1205.35C994.07 1195.35 1006.17 1184.85 1018.67 1173.85C1051.77 1144.95 1087.37 1110.25 1123.17 1066.65C1141.87 1043.85 1159.77 1020.64 1181.47 1000.54C1222.67 962.345 1280.27 947.745 1334.47 959.545C1345.07 961.845 1355.57 965.145 1365.67 969.345C1396.27 981.945 1423.07 1002.14 1451.77 1018.74C1458.37 1022.54 1465.07 1026.14 1471.97 1029.54C1504.97 1045.44 1541.87 1053.14 1578.07 1049.24C1621.77 1044.54 1663.97 1020.65 1684.77 986.145" stroke="#17C5D8" stroke-miterlimit="10"/>
<path d="M643.97 1457.15C679.87 1409.85 737.67 1387.45 794.37 1357.65C800.87 1354.25 807.37 1350.74 813.77 1347.04C863.37 1318.84 907.27 1282.05 944.67 1248.85C962.17 1233.25 978.17 1218.35 993.07 1203.95C1004.77 1192.65 1016.17 1180.94 1028.07 1168.74C1059.17 1136.74 1092.67 1099.84 1127.67 1056.74C1145.97 1034.04 1164.17 1011.45 1186.07 991.945C1227.07 955.245 1283.87 940.345 1336.97 951.645C1347.47 953.845 1357.77 956.945 1367.77 961.045C1397.87 973.345 1424.17 993.445 1452.37 1009.95C1458.87 1013.75 1465.37 1017.35 1472.17 1020.65C1504.57 1036.35 1540.87 1043.74 1576.57 1040.04C1619.57 1035.64 1661.17 1013.14 1683.47 980.045" stroke="#17CCDF" stroke-miterlimit="10"/>
<path d="M657.77 1457.04C696.07 1411.44 755.27 1392.34 812.07 1363.74C818.57 1360.44 825.07 1357.05 831.47 1353.45C880.77 1325.85 923.17 1287.85 958.77 1251.85C975.47 1234.95 990.57 1218.54 1004.67 1202.54C1015.67 1190.04 1026.47 1177.05 1037.57 1163.75C1066.77 1128.75 1098.07 1089.55 1132.37 1046.85C1150.37 1024.25 1168.77 1002.25 1190.87 983.245C1231.77 948.145 1287.57 932.945 1339.77 943.545C1350.07 945.645 1360.27 948.645 1370.07 952.645C1399.77 964.745 1425.47 984.645 1453.07 1000.95C1459.37 1004.75 1465.87 1008.24 1472.47 1011.54C1504.37 1027.04 1540.07 1034.15 1575.17 1030.65C1617.47 1026.45 1658.47 1005.45 1682.27 973.645" stroke="#17D3E5" stroke-miterlimit="10"/>
<path d="M671.57 1456.95C712.17 1413.15 772.97 1397.35 829.77 1369.95C836.27 1366.85 842.77 1363.55 849.07 1360.05C898.07 1333.05 938.87 1293.75 972.67 1255.15C988.57 1237.05 1002.77 1218.95 1016.07 1201.45C1026.37 1187.75 1036.47 1173.45 1046.87 1158.95C1074.17 1120.85 1103.27 1079.55 1136.77 1037.25C1154.47 1014.85 1173.17 993.245 1195.37 974.845C1236.07 941.145 1290.97 925.845 1342.17 935.845C1352.37 937.845 1362.37 940.745 1372.07 944.645C1401.27 956.445 1426.47 976.245 1453.57 992.445C1459.77 996.145 1466.17 999.745 1472.67 1002.95C1503.97 1018.35 1539.07 1025.05 1573.67 1021.75C1615.27 1017.85 1655.67 998.245 1680.97 967.745" stroke="#18DAEC" stroke-miterlimit="10"/>
<path d="M685.37 1456.85C728.37 1414.75 790.67 1402.25 847.47 1376.15C853.97 1373.15 860.37 1369.94 866.67 1366.54C915.37 1340.14 954.57 1299.64 986.67 1258.24C1001.67 1238.84 1015.17 1219.15 1027.47 1200.15C1037.17 1185.15 1046.57 1169.74 1056.17 1154.04C1081.47 1112.94 1108.47 1069.34 1141.17 1027.54C1158.57 1005.24 1177.47 984.245 1199.87 966.445C1240.47 934.245 1294.37 918.645 1344.67 928.045C1354.67 929.945 1364.47 932.745 1374.07 936.545C1402.87 948.045 1427.47 967.745 1454.07 983.845C1460.17 987.545 1466.37 991.045 1472.77 994.145C1503.47 1009.35 1538.07 1015.75 1572.07 1012.65C1612.97 1008.95 1652.87 990.845 1679.57 961.745" stroke="#18E0F2" stroke-miterlimit="10"/>
<path d="M699.17 1456.74C744.47 1416.34 808.37 1407.14 865.17 1382.24C871.67 1379.34 878.07 1376.34 884.37 1372.94C932.77 1347.24 970.37 1305.44 1000.67 1261.35C1014.87 1240.65 1027.47 1219.45 1038.97 1198.85C1047.97 1182.65 1056.67 1165.94 1065.67 1149.04C1089.17 1104.84 1113.97 1059.04 1145.87 1017.74C1162.97 995.545 1182.07 975.145 1204.67 957.845C1245.07 927.145 1298.07 911.345 1347.37 920.145C1357.27 921.845 1366.87 924.645 1376.37 928.345C1404.67 939.645 1428.77 959.145 1454.77 975.045C1460.77 978.745 1466.87 982.145 1473.17 985.245C1503.27 1000.24 1537.37 1006.34 1570.77 1003.54C1610.97 1000.14 1650.27 983.445 1678.47 955.645" stroke="#19E7F9" stroke-miterlimit="10"/>
<path d="M712.97 1456.64C766.17 1413.54 841.37 1411.14 901.97 1379.54C972.57 1342.64 1017.27 1267.04 1050.37 1197.54C1092.17 1110.04 1127.67 1008.54 1209.27 949.245C1257.57 914.145 1322.87 898.145 1378.47 920.045C1412.77 933.545 1440.47 959.845 1473.37 976.345C1538.37 1008.94 1622.77 997.845 1677.17 949.545" stroke="#19EEFF" stroke-miterlimit="10"/>
<mask id="mask3_8_3" style="mask-type:luminance" maskUnits="userSpaceOnUse" x="0" y="-111" width="1733" height="800">
<path d="M1733 -111H0V689H1733V-111Z" fill="white"/>
</mask>
<g mask="url(#mask3_8_3)">
<path d="M-311.94 917.9C-301.975 773 -185.287 636.5 -7.50963 559.8C82.6064 520.9 187.02 498.2 292.877 493.2C413.321 487.5 510.802 516.6 626.191 531.4C716.018 542.9 809.311 545.7 897.983 528.3C989.688 510.4 1072.29 471.2 1129.63 418.5C1225.23 330.6 1209.49 219.6 1271.73 122C1328.06 33.8 1447.06 -34 1582.95 -55.2C1718.85 -76.4 1868.32 -50.6 1973.89 12.4" stroke="#29282B" stroke-miterlimit="10"/>
<path d="M-327.393 918.1C-318.15 774.6 -203.484 639 -28.1617 562.4C62.3875 522.5 167.812 499.3 274.824 494.4C306.596 492.9 336.924 493.9 366.385 496.3C449.28 503.3 525.532 522.5 611.315 534C628.212 536.3 645.253 538.2 662.294 539.8C736.958 546.7 813.065 546.2 885.851 531.8C925.855 523.9 963.981 511.9 999.074 496.2C1044.85 475.8 1085 449.4 1117.64 419.1C1122.41 414.7 1126.88 410.2 1131.22 405.7C1202.27 330.5 1210.93 245.4 1253.82 168.3C1260.47 156.4 1267.83 144.6 1276.35 133.1C1311.45 86 1366.04 45.9 1432.18 16.7C1480.99 -4.89999 1536.45 -20.5 1594.79 -28.7C1634.51 -34.2 1675.52 -36.2 1716.1 -35.1C1815.89 -32.2 1913.81 -10.8 1985.01 27.8" stroke="#29282B" stroke-miterlimit="10"/>
<path d="M-342.701 918.3C-334.036 776.2 -221.102 642 -48.6688 565C42.4581 524.4 148.749 500.4 256.917 495.5C288.977 494.1 319.594 495 349.488 497.6C433.25 504.8 510.368 524.5 596.585 536.5C613.626 538.9 630.812 541 647.997 542.7C723.383 550.1 800.501 549.9 873.72 535.2C914.013 527.2 952.428 514.8 987.521 498.5C1033.3 477.4 1072.87 450.3 1105.65 419.6C1110.42 415.1 1115.04 410.6 1119.37 406C1191.58 329.8 1208.19 248.3 1256.28 176.5C1263.79 165.4 1271.88 154.5 1281.12 143.9C1318.96 100.5 1374.99 64.2 1442.14 38C1491.82 18.6 1547.86 4.7 1606.78 -2.5C1646.93 -7.4 1688.38 -9.2 1729.39 -8.4C1830.19 -6.3 1928.97 10.5 1996.42 43" stroke="#29282B" stroke-miterlimit="10"/>
<path d="M-358.153 918.5C-350.21 777.8 -239.154 644.7 -69.32 567.6C22.2402 526.1 129.686 501.5 239.01 496.6C271.359 495.2 302.409 496.2 332.592 498.8C417.22 506.2 495.205 526.4 581.999 539C599.185 541.5 616.515 543.7 633.845 545.5C710.097 553.5 788.082 553.5 861.879 538.6C902.46 530.4 941.019 517.8 976.401 500.9C1022.18 479.2 1061.32 451.3 1094.1 420.1C1098.87 415.6 1103.49 411 1107.82 406.4C1181.18 329.2 1205.45 251.2 1259.02 184.9C1267.26 174.7 1276.07 164.7 1286.03 154.9C1326.61 115.1 1384.09 82.7 1452.4 59.5C1502.8 42.3 1559.41 30.2 1618.91 23.9C1659.49 19.6 1701.23 18 1742.82 18.5C1844.63 19.8 1944.14 32.1 2007.97 58.4" stroke="#29282B" stroke-miterlimit="10"/>
<path d="M-373.606 918.6C-366.386 779.3 -257.207 647.3 -89.9721 570.1C2.02132 527.7 110.478 502.4 220.957 497.7C253.595 496.3 284.934 497.3 315.406 500C400.9 507.6 479.752 528.3 566.979 541.4C584.309 544 601.784 546.4 619.403 548.3C696.377 556.8 775.228 557.1 849.747 541.9C890.617 533.6 929.465 520.6 964.847 503.2C1010.63 480.8 1049.19 452.2 1082.11 420.6C1086.88 416 1091.5 411.4 1095.98 406.7C1170.5 328.5 1202.56 254.1 1261.48 193.2C1270.58 183.8 1280.11 174.7 1290.65 165.8C1333.98 129.7 1392.9 101.1 1462.22 80.9C1513.34 65.9 1570.67 55.6 1630.75 50.2C1671.91 46.5 1713.94 45.1 1755.96 45.3C1858.79 45.8 1959.16 53.5 2019.23 73.6" stroke="#29282B" stroke-miterlimit="10"/>
<path d="M-388.915 918.8C-382.271 780.9 -275.114 650 -110.479 572.7C-18.0525 529.4 91.4152 503.5 203.049 498.8C235.832 497.4 267.604 498.4 298.509 501.2C384.87 509 464.588 530.2 552.393 543.9C569.868 546.6 587.486 549.1 605.25 551.2C682.946 560.3 762.808 560.8 837.761 545.4C878.919 536.9 917.912 523.7 953.438 505.6C999.218 482.6 1037.2 453.2 1070.27 421.2C1075.04 416.5 1079.8 411.9 1084.28 407.1C1159.95 327.9 1199.81 257 1264.08 201.6C1274.04 193.1 1284.3 184.8 1295.56 176.8C1341.63 144.4 1402 119.6 1472.33 102.4C1524.17 89.7 1582.23 81.1 1642.88 76.6C1684.48 73.5 1726.93 72.3 1769.39 72.2C1873.23 71.9 1974.32 75 2030.64 89" stroke="#29282B" stroke-miterlimit="10"/>
<path d="M-404.367 919C-398.446 782.5 -293.166 652.6 -131.13 575.3C-38.2704 531.1 72.3527 504.6 184.998 500C218.069 498.6 250.13 499.7 281.324 502.6C368.551 510.6 449.136 532.3 537.374 546.6C554.993 549.5 572.757 552 590.664 554.2C669.227 563.8 749.956 564.6 825.486 548.9C866.933 540.3 906.215 526.7 941.741 508.1C987.377 484.4 1024.93 454.3 1058.29 421.8C1063.2 417.1 1067.82 412.3 1072.29 407.6C1149.12 327.4 1196.64 260.1 1266.39 210C1277.08 202.3 1288.2 194.9 1300.04 187.9C1348.85 159.1 1410.66 138.2 1482 124C1534.72 113.5 1593.35 106.7 1654.58 103.1C1696.61 100.6 1739.5 99.6 1782.25 99.1C1887.09 97.9 1989.05 96.5 2041.62 104.4" stroke="#29282B" stroke-miterlimit="10"/>
<path d="M-419.819 919.2C-414.476 784.1 -311.362 655.3 -151.782 577.9C-58.4888 532.7 53.1453 505.7 166.946 501.1C200.306 499.8 232.655 500.8 264.282 503.8C352.377 512 433.683 534.2 522.499 549C540.263 552 558.17 554.7 576.223 557C655.507 567.1 737.247 568.2 813.355 552.2C855.091 543.4 894.517 529.5 930.332 510.4C975.968 486 1012.94 455.2 1046.44 422.3C1051.35 417.5 1055.97 412.7 1060.6 407.9C1138.58 326.8 1193.75 263 1268.99 218.3C1280.54 211.5 1292.24 204.9 1304.8 198.8C1356.36 173.7 1419.62 156.6 1492.11 145.4C1545.55 137.1 1604.76 132.1 1666.71 129.4C1709.17 127.6 1752.5 126.7 1795.68 125.9C1901.53 123.9 2004.36 118 2053.17 119.7" stroke="#29282B" stroke-miterlimit="10"/>
<path d="M-435.128 919.3C-430.507 785.5 -329.27 657.8 -172.29 580.5C-78.7076 534.4 34.2262 506.7 149.182 502.2C182.831 500.9 215.469 502 247.53 505C336.49 513.4 418.663 536.1 508.057 551.5C525.965 554.6 544.017 557.4 562.214 559.8C642.22 570.5 724.827 571.8 801.512 555.6C843.537 546.7 883.252 532.5 919.067 512.7C964.558 487.7 1001.1 456 1034.74 422.7C1039.66 417.9 1044.42 413 1049.04 408.2C1128.18 326.1 1191 265.8 1271.88 226.6C1284.15 220.6 1296.72 214.9 1310 209.7C1364.3 188.2 1429 175 1502.51 166.8C1556.67 160.7 1616.6 157.5 1679.13 155.7C1722.02 154.5 1765.78 153.8 1809.4 152.7C1916.26 149.9 2019.81 139.4 2065.01 135" stroke="#29282B" stroke-miterlimit="10"/>
<path d="M-450.58 919.5C-446.536 787.2 -347.467 660.4 -192.796 583.1C-98.7811 536 15.1637 507.8 131.275 503.4C165.213 502.1 198.14 503.2 230.489 506.3C320.316 514.9 403.356 538.1 493.183 554C511.235 557.2 529.431 560.2 547.772 562.7C628.646 573.9 712.118 575.6 789.381 559C831.695 549.9 871.555 535.4 907.514 515.1C953.006 489.4 988.965 457 1022.76 423.3C1027.67 418.4 1032.43 413.5 1037.2 408.6C1117.5 325.5 1187.83 268.7 1274.33 235C1287.47 229.9 1300.76 225 1314.62 220.7C1371.67 202.9 1437.81 193.5 1512.33 188.3C1567.21 184.4 1627.86 183 1690.97 182.1C1734.3 181.5 1778.49 181 1822.54 179.6C1930.42 176 2034.83 160.9 2076.13 150.4" stroke="#29282B" stroke-miterlimit="10"/>
<path d="M-465.888 919.7C-462.567 788.7 -365.374 663 -213.448 585.7C-118.999 537.7 -4.04364 508.9 113.223 504.5C147.305 503.2 180.81 504.4 213.448 507.5C304.141 516.3 388.048 540 478.452 556.5C496.649 559.9 514.99 562.9 533.475 565.6C615.071 577.3 699.554 579.3 777.395 562.4C819.998 553.2 860.146 538.4 896.25 517.5C941.741 491.2 977.267 458 1011.06 423.9C1015.97 418.9 1020.74 414 1025.5 409.1C1106.95 325 1184.94 271.8 1276.93 243.5C1290.8 239.2 1304.95 235.2 1319.53 231.8C1379.32 217.7 1446.91 212.1 1522.44 210C1578.04 208.4 1639.42 208.7 1703.11 208.7C1746.86 208.7 1791.49 208.4 1835.97 206.7C1944.86 202.3 2049.99 182.7 2087.69 166" stroke="#29282B" stroke-miterlimit="10"/>
<path d="M-481.341 919.9C-478.742 790.3 -383.571 665.5 -234.1 588.3C-139.218 539.3 -23.1072 510 95.17 505.6C129.541 504.3 163.335 505.5 196.262 508.8C287.822 517.8 372.594 542 463.433 559C481.773 562.5 500.259 565.7 518.888 568.4C601.35 580.7 686.556 582.9 764.975 565.8C807.866 556.5 848.159 541.3 884.407 519.8C929.898 492.8 964.847 458.9 998.785 424.3C1003.7 419.3 1008.61 414.3 1013.37 409.3C1095.98 324.2 1181.62 274.5 1279.1 251.6C1293.83 248.2 1308.56 245.1 1323.87 242.5C1386.4 232 1455.43 230.3 1532.12 231.2C1588.58 231.8 1650.54 233.9 1714.8 234.7C1758.99 235.3 1804.05 235.3 1848.97 233.1C1958.87 227.9 2064.87 203.7 2098.81 180.9" stroke="#29282B" stroke-miterlimit="10"/>
<path d="M-496.793 920.1C-494.772 791.9 -401.767 668.1 -254.751 590.9C-159.581 540.9 -42.3142 511 77.2628 506.8C111.923 505.6 146.005 506.8 179.365 510.1C271.648 519.3 357.431 543.9 448.847 561.6C467.332 565.2 485.962 568.5 504.736 571.4C587.92 584.2 674.137 586.7 753.133 569.3C796.313 559.8 836.894 544.4 873.143 522.3C918.634 494.7 953.005 460 987.088 425C991.998 419.9 996.908 414.9 1001.82 409.8C1085.58 323.7 1178.73 277.5 1281.84 260.1C1297.29 257.5 1312.89 255.3 1328.78 253.6C1394.05 246.8 1464.53 248.9 1542.23 252.8C1599.41 255.6 1661.95 259.5 1726.79 261.2C1771.41 262.4 1816.91 262.6 1862.25 260.1C1973.16 254.1 2080.03 225.3 2110.22 196.4" stroke="#29282B" stroke-miterlimit="10"/>
<path d="M-512.102 920.2C-510.802 793.4 -419.819 670.5 -275.114 593.4C-179.51 542.5 -61.2327 512 59.4996 507.8C94.4485 506.6 128.82 507.8 162.613 511.2C255.762 520.6 342.412 545.7 434.261 564C452.891 567.7 471.665 571.1 490.583 574.1C574.489 587.4 661.717 590.2 741.291 572.5C784.76 562.9 825.486 547.1 862.023 524.5C907.37 496.2 941.308 460.8 975.534 425.3C980.445 420.2 985.355 415.1 990.409 410C1075.33 322.9 1176.13 280.1 1284.73 268.3C1301.05 266.5 1317.37 265.2 1333.98 264.4C1402 261.2 1473.92 267.2 1552.62 274.1C1610.53 279.1 1673.79 284.8 1739.21 287.4C1784.27 289.2 1830.19 289.6 1875.97 286.8C1987.9 280 2095.49 246.6 2121.91 211.5" stroke="#29282B" stroke-miterlimit="10"/>
<path d="M-527.555 920.4C-526.833 795 -438.016 673 -295.766 596C-199.873 544.1 -80.2963 513.1 41.447 508.9C76.6846 507.7 111.345 508.9 145.427 512.4C239.442 522 326.959 547.6 419.385 566.4C438.16 570.2 457.078 573.8 476.141 576.9C560.914 590.8 649.008 593.8 729.015 575.9C772.773 566.1 813.787 550.1 850.325 526.8C895.816 498 929.032 461.7 963.403 425.8C968.313 420.6 973.368 415.4 978.278 410.3C1064.35 322.2 1172.66 282.9 1286.9 276.6C1304.08 275.7 1321.12 275.2 1338.31 275.3C1409.07 275.8 1482.44 285.6 1562.15 295.5C1620.79 302.7 1684.76 310.2 1750.76 313.7C1796.25 316.2 1842.61 316.7 1888.83 313.6C2001.9 306 2110.22 268.1 2132.89 226.8" stroke="#29282B" stroke-miterlimit="10"/>
<path d="M-542.863 920.6C-542.863 796.6 -456.213 675.5 -316.273 598.6C-220.092 545.6 -99.3592 514.2 23.5393 510.1C58.9214 508.9 94.0147 510.2 128.53 513.8C223.412 523.6 311.795 549.7 404.655 569.1C423.574 573.1 442.637 576.7 461.844 580C547.339 594.4 636.299 597.7 717.028 579.5C761.075 569.6 802.379 553.3 838.916 529.4C884.407 499.9 917.045 462.8 951.561 426.6C956.616 421.4 961.526 416.1 966.58 411C1053.81 321.9 1169.77 286 1289.5 285.2C1307.4 285.1 1325.17 285.5 1343.07 286.5C1416.58 290.6 1491.39 304.3 1572.12 317.2C1631.62 326.6 1696.17 335.9 1762.75 340.3C1808.67 343.4 1855.46 344.1 1901.97 340.6C2016.06 332.2 2125.09 289.7 2144.15 242.3" stroke="#29282B" stroke-miterlimit="10"/>
<path d="M-558.315 920.8C-559.037 798.2 -474.409 678 -336.924 601.2C-240.454 547.2 -118.422 515.3 5.63184 511.2C41.3028 510 76.6849 511.3 111.489 515C207.238 525 296.343 551.6 389.925 571.5C408.988 575.6 428.195 579.4 447.547 582.7C533.764 597.6 623.735 601.2 705.042 582.8C749.378 572.7 790.97 556.1 827.651 531.7C873.143 501.6 905.348 463.7 939.863 427C944.918 421.7 949.828 416.4 955.027 411.2C1043.41 321.1 1167.03 288.6 1292.24 293.4C1311.01 294.1 1329.5 295.4 1348.13 297.3C1424.38 305.1 1500.63 322.6 1582.52 338.5C1642.74 350.2 1708.02 361.2 1775.17 366.5C1821.53 370.2 1868.75 371.1 1915.69 367.3C2030.79 358.1 2140.69 311 2156 257.5" stroke="#29282B" stroke-miterlimit="10"/>
<path d="M-573.768 920.9C-575.067 799.7 -492.75 680.4 -357.576 603.7C-260.672 548.7 -137.629 516.2 -12.42 512.3C23.5398 511.2 59.3551 512.5 94.4484 516.2C191.063 526.4 281.035 553.5 375.05 574C394.257 578.2 413.609 582.1 433.105 585.6C520.189 601.1 611.027 604.9 692.767 586.2C737.391 576 779.128 559.1 815.954 534C861.301 503.2 893.073 464.6 927.733 427.5C932.787 422.1 937.842 416.8 943.041 411.5C1032.43 320.4 1163.85 291.4 1294.55 301.7C1314.05 303.2 1333.4 305.4 1352.61 308.2C1431.46 319.7 1509.3 341 1592.19 359.9C1653.14 373.8 1718.99 386.6 1786.87 392.8C1833.66 397.1 1881.32 398.2 1928.68 394.1C2044.8 384.1 2155.56 332.4 2166.97 272.8" stroke="#29282B" stroke-miterlimit="10"/>
<path d="M-589.075 921.1C-591.097 801.3 -510.802 682.9 -378.083 606.3C-280.89 550.3 -156.692 517.3 -30.3274 513.4C5.92119 512.3 42.0254 513.6 77.5519 517.4C175.033 527.8 265.871 555.4 360.32 576.5C379.672 580.8 399.168 584.9 418.808 588.4C506.614 604.4 598.318 608.5 680.78 589.5C725.694 579.1 767.719 561.9 804.545 536.3C849.892 504.9 881.086 465.5 915.89 428C920.945 422.6 926 417.2 931.199 411.9C1021.75 319.8 1160.82 294.2 1297.01 310.1C1317.37 312.5 1337.44 315.5 1357.23 319.2C1438.82 334.3 1518.11 359.5 1602.01 381.4C1663.68 397.5 1730.26 412.1 1798.71 419.2C1845.93 424.1 1894.02 425.4 1941.83 421C2058.95 410.2 2170.44 354 2178.24 288.2" stroke="#29282B" stroke-miterlimit="10"/>
<path d="M-604.528 921.3C-607.128 802.9 -529.143 685.4 -398.735 608.9C-301.398 551.8 -175.755 518.4 -48.3797 514.5C-11.9867 513.4 24.5507 514.8 60.366 518.6C158.714 529.2 250.418 557.3 345.445 578.9C364.941 583.3 384.581 587.5 404.367 591.2C492.894 607.8 585.609 612.1 668.649 592.9C713.851 582.4 756.021 564.9 792.992 538.7C838.339 506.6 868.955 466.5 903.904 428.5C908.958 423 914.157 417.6 919.356 412.2C1011.06 319.1 1157.93 296.8 1299.46 318.4C1320.69 321.6 1341.34 325.6 1361.99 330.1C1446.33 348.9 1527.06 377.9 1611.98 402.8C1674.37 421.1 1741.66 437.5 1810.7 445.5C1858.35 451 1906.88 452.5 1955.11 447.8C2073.25 436.2 2185.6 375.4 2189.65 303.5" stroke="#29282B" stroke-miterlimit="10"/>
<path d="M-619.837 921.5C-623.158 804.5 -547.484 687.7 -419.242 611.5C-321.761 553.2 -194.819 519.5 -66.2878 515.7C-29.606 514.6 7.22028 516 43.4689 520C142.683 530.8 235.254 559.4 330.714 581.6C350.354 586.2 370.139 590.4 390.069 594.3C479.463 611.4 573.045 616.1 656.518 596.5C702.009 585.9 744.467 568 781.582 541.2C826.929 508.5 856.968 467.6 892.061 429.2C897.116 423.7 902.315 418.2 907.658 412.8C1000.52 318.7 1155.04 299.9 1302.06 326.9C1324.01 330.9 1345.53 335.8 1366.76 341.2C1453.84 363.6 1536.02 396.5 1622.09 424.4C1685.34 444.9 1753.22 463.1 1822.68 472C1870.77 478.1 1919.73 479.8 1968.4 474.7C2087.54 462.2 2200.62 396.9 2200.91 318.9" stroke="#29282B" stroke-miterlimit="10"/>
<path d="M-635.289 921.6C-639.189 806 -565.68 690.2 -439.894 614.1C-314.107 538 -138.496 503 26.4279 521.2C147.16 534.5 258.072 574.1 375.772 597.1C514.989 624.3 664.605 621.3 770.174 543.5C822.019 505.3 853.213 456.3 895.961 413.1C989.976 318.1 1152.16 302.7 1304.66 335.2C1420.92 360 1523.88 407.4 1632.05 445.9C1740.22 484.4 1861.53 514.9 1981.69 501.6C2101.84 488.3 2215.78 418.5 2212.32 334.2" stroke="#29282B" stroke-miterlimit="10"/>
<path d="M-604.528 921.5C-603.229 808.5 -526.254 697.8 -400.468 623.6C-386.026 615.1 -371.007 607.1 -355.41 599.6C-235.255 541.7 -84.4839 514.1 57.6221 526.1C123.909 531.6 187.019 545.1 249.985 559.2C298.509 570.1 347.033 581.3 396.712 589.5C531.598 612 676.447 605.5 780.283 528.5C831.407 490.5 863.178 442.3 906.359 400C1000.23 307.3 1160.1 291.5 1310.44 323.1C1339.03 329.1 1366.76 336.5 1394.05 344.8C1476.23 370 1553.35 403.7 1633.5 432.4C1651.84 439 1670.47 445.3 1689.53 451.2C1781.24 479.6 1880.3 498.2 1978.51 487.5C2097.07 474.6 2209.72 407 2209.57 324.8" stroke="#29282B" stroke-miterlimit="10"/>
<path d="M-573.913 921.3C-567.414 811 -486.974 705.4 -361.187 633C-346.745 624.7 -331.726 616.9 -316.273 609.5C-196.841 552.5 -49.5357 523.1 88.671 530.8C153.081 534.4 214.458 545.4 275.402 557.1C322.482 566.1 369.417 575.4 417.508 581.8C547.916 599.5 688.145 589.7 790.247 513.4C840.649 475.6 873.142 428.4 916.612 386.8C1010.63 296.7 1167.9 280.2 1316.21 310.9C1344.37 316.7 1371.81 324 1398.82 332.2C1479.98 357 1555.8 390.5 1634.8 419C1652.85 425.5 1671.33 431.8 1690.11 437.6C1780.51 465.8 1878.28 483.8 1975.33 473.5C2092.45 461 2203.65 395.6 2206.83 315.5" stroke="#29282B" stroke-miterlimit="10"/>
<path d="M-543.151 921.1C-531.454 813.5 -447.548 712.9 -321.761 642.5C-307.319 634.4 -292.444 626.8 -276.991 619.5C-158.137 563.5 -14.4419 532.1 119.866 535.6C182.542 537.2 241.898 545.8 300.964 555.1C346.6 562.2 391.946 569.5 438.449 574.2C564.669 586.9 699.987 574 800.501 498.3C850.325 460.7 883.396 414.4 927.01 373.6C1020.88 285.9 1175.84 269 1321.99 298.7C1349.86 304.3 1377.01 311.4 1403.59 319.5C1483.74 343.9 1558.4 377.2 1636.24 405.5C1654 412 1672.2 418.2 1690.69 424C1779.79 451.9 1876.41 469.4 1972.15 459.4C2087.69 447.3 2197.59 384.1 2204.09 306.1" stroke="#29282B" stroke-miterlimit="10"/>
<path d="M-512.391 920.9C-495.349 816 -408.122 720.5 -282.19 651.9C-267.749 644 -252.874 636.5 -237.566 629.4C-119.433 574.4 20.7957 541 151.204 540.3C212.003 539.9 269.626 546.1 326.526 553C370.573 558.2 414.476 563.5 459.534 566.4C581.277 574.3 711.974 558 810.755 483.1C859.857 445.7 893.506 400.3 937.553 360.3C1031.28 275.1 1184.07 257.6 1328.06 286.4C1355.64 291.9 1382.36 298.8 1408.64 306.7C1487.78 330.7 1561.14 363.8 1637.83 391.9C1655.3 398.3 1673.21 404.5 1691.55 410.2C1779.36 437.8 1874.67 454.9 1969.27 445.2C2083.35 433.5 2191.96 372.5 2201.63 296.6" stroke="#29282B" stroke-miterlimit="10"/>
<path d="M-481.774 920.8C-459.534 818.5 -368.84 728.1 -242.909 661.4C-228.467 653.8 -213.592 646.4 -198.428 639.4C-81.0177 585.3 55.7449 550 182.109 545.1C241.031 542.8 296.776 546.5 351.799 550.9C394.402 554.2 436.716 557.6 480.185 558.7C597.596 561.8 723.672 542.2 820.576 468C868.955 430.8 903.326 386.3 947.662 347.1C1041.39 264.3 1191.73 246.4 1333.54 274.1C1360.69 279.4 1387.12 286.1 1413.12 293.9C1491.25 317.4 1563.45 350.4 1638.84 378.2C1656.17 384.6 1673.79 390.7 1691.7 396.4C1778.2 423.7 1872.36 440.3 1965.51 431C2078.01 419.7 2185.31 360.9 2198.31 287.1" stroke="#29282B" stroke-miterlimit="10"/>
<path d="M-451.014 920.6C-423.575 821 -329.415 735.7 -203.483 670.9C-189.042 663.5 -174.167 656.3 -159.148 649.4C-42.3145 596.3 90.8377 559.1 213.303 550C270.492 545.7 324.359 547.1 377.36 549C418.375 550.5 459.245 551.8 501.125 551.2C614.204 549.4 735.514 526.5 830.684 453C878.342 416 913.291 372.4 958.06 334C1051.64 253.7 1199.67 235.2 1339.32 262C1366.18 267.1 1392.32 273.7 1417.88 281.3C1495 304.4 1565.91 337.2 1640.14 364.8C1657.18 371.1 1674.51 377.2 1692.13 382.8C1777.34 409.8 1870.2 426 1962.19 417C2073.1 406.1 2179.1 349.5 2195.42 277.7" stroke="#29282B" stroke-miterlimit="10"/>
<path d="M-420.252 920.4C-387.47 823.5 -289.989 743.2 -164.057 680.3C-149.616 673.1 -134.885 666.1 -119.721 659.4C-3.61035 607.3 125.931 568.1 244.497 554.8C299.809 548.5 351.943 547.5 402.923 547C442.493 546.6 481.774 546 522.066 543.5C630.812 536.9 747.356 510.7 840.794 437.9C887.729 401.1 923.256 358.4 968.314 320.8C1061.75 242.9 1207.47 223.9 1345.1 249.8C1371.53 254.8 1397.38 261.1 1422.65 268.7C1498.76 291.4 1568.36 324 1641.58 351.4C1658.34 357.7 1675.38 363.7 1692.85 369.2C1776.76 395.9 1868.46 411.6 1959.16 402.9C2068.62 392.4 2173.18 338 2192.82 268.3" stroke="#29282B" stroke-miterlimit="10"/>
<path d="M-389.637 920.2C-351.655 825.9 -250.708 750.8 -124.777 689.8C-110.335 682.8 -95.6044 676 -80.585 669.4C34.9483 618.2 161.024 577.1 275.691 559.6C329.125 551.4 379.382 547.9 428.484 545C466.61 542.8 504.302 540.1 543.006 535.9C647.275 524.5 759.198 495 851.047 422.9C897.405 386.4 933.509 344.5 978.856 307.8C1072.15 232.3 1215.7 212.9 1351.02 237.8C1377.16 242.6 1402.57 248.8 1427.56 256.2C1502.65 278.5 1571.11 310.9 1643.03 338.1C1659.49 344.3 1676.39 350.3 1693.43 355.8C1776.04 382.3 1866.44 397.4 1955.98 389.1C2063.86 379 2167.12 326.8 2190.22 259.2" stroke="#29282B" stroke-miterlimit="10"/>
<path d="M-358.875 920.1C-315.695 828.5 -211.282 758.4 -85.3503 699.3C-70.9087 692.5 -56.1782 685.9 -41.3032 679.4C73.508 629.2 196.118 586.1 306.741 564.4C358.442 554.2 406.822 548.3 453.901 543C490.439 538.9 526.688 534.3 563.803 528.3C663.739 512.1 770.896 479.2 861.012 407.8C906.648 371.5 943.33 330.5 989.11 294.6C1082.11 221.5 1223.5 201.6 1356.79 225.6C1382.5 230.2 1407.77 236.2 1432.32 243.5C1506.41 265.4 1573.56 297.6 1644.33 324.5C1660.5 330.7 1677.11 336.6 1694.01 342C1775.31 368.2 1864.56 382.9 1952.8 374.9C2059.09 365.2 2161.05 315.2 2187.48 249.7" stroke="#29282B" stroke-miterlimit="10"/>
<path d="M-328.115 919.9C-279.735 831 -171.856 766 -45.7802 708.8C-31.3385 702.2 -16.608 695.8 -1.87751 689.4C112.212 640.1 231.211 595.1 337.935 569.2C387.759 557 434.405 548.7 479.463 541C514.556 535 549.216 528.4 584.743 520.6C680.202 499.7 782.883 463.4 871.121 392.7C916.035 356.6 953.294 316.5 999.508 281.4C1092.37 210.8 1231.44 190.4 1362.57 213.4C1387.99 217.8 1412.83 223.7 1437.09 230.8C1510.16 252.3 1576.16 284.3 1645.77 311C1661.66 317.1 1677.98 323 1694.58 328.4C1774.59 354.3 1862.54 368.5 1949.48 360.8C2054.33 351.5 2154.84 303.7 2184.59 240.3" stroke="#29282B" stroke-miterlimit="10"/>
<path d="M-297.499 919.7C-243.776 833.5 -132.575 773.6 -6.49895 718.2C7.94271 711.9 22.5288 705.6 37.2593 699.3C150.771 651 266.304 604.1 369.129 574C417.22 559.8 461.844 549.1 505.025 539C538.674 531.1 571.601 522.6 605.828 513C696.955 487.3 794.869 447.6 881.375 377.7C925.566 341.8 963.403 302.6 1009.91 268.3C1102.48 200.1 1239.38 179.2 1368.49 201.3C1393.62 205.6 1418.03 211.3 1442 218.2C1514.06 239.3 1578.76 271.1 1647.22 297.6C1662.96 303.7 1678.84 309.5 1695.31 314.8C1774.01 340.4 1860.81 354.1 1946.45 346.8C2049.71 337.9 2149.06 292.3 2181.99 230.9" stroke="#29282B" stroke-miterlimit="10"/>
<path d="M-266.738 919.5C-207.816 835.9 -93.149 781.1 32.9268 727.7C47.3684 721.6 61.9545 715.5 76.5406 709.3C189.474 662 301.397 613.1 400.323 578.8C446.536 562.7 489.428 549.5 530.587 537C562.647 527.2 594.13 516.8 626.768 505.4C713.418 475 806.711 431.9 891.484 362.6C935.098 326.9 973.368 288.6 1020.3 255.1C1112.73 189.2 1247.47 167.9 1374.27 189.1C1398.96 193.2 1423.23 198.7 1446.77 205.6C1517.82 226.3 1581.36 257.9 1648.52 284.2C1663.97 290.2 1679.71 296 1695.74 301.2C1773.15 326.5 1858.64 339.8 1943.13 332.8C2044.94 324.4 2142.85 280.9 2179.1 221.6" stroke="#29282B" stroke-miterlimit="10"/>
<path d="M-236.121 919.4C-172 838.5 -53.8673 788.8 72.2085 737.2C86.6502 731.3 101.236 725.4 115.822 719.3C228.034 672.9 336.491 622.1 431.373 583.6C475.709 565.5 516.867 549.9 556.004 535C586.621 523.3 616.515 511 647.565 497.7C729.882 462.6 818.409 416.1 901.449 347.5C944.341 312 983.189 274.5 1030.56 241.9C1122.7 178.4 1255.27 156.7 1379.9 176.9C1404.31 180.8 1428.14 186.2 1451.39 192.9C1521.43 213.1 1583.67 244.6 1649.82 270.6C1664.98 276.6 1680.43 282.3 1696.32 287.5C1772.43 312.6 1856.77 325.3 1939.95 318.6C2040.17 310.6 2136.79 269.3 2176.36 212.1" stroke="#29282B" stroke-miterlimit="10"/>
<path d="M-205.361 919.2C-135.896 841 -14.442 796.3 111.634 746.6C126.075 740.9 140.662 735.1 155.103 729.3C266.593 683.9 371.584 631.1 462.566 588.4C505.169 568.3 544.306 550.3 581.566 533C610.593 519.4 639.044 505.2 668.505 490.1C746.345 450.2 830.251 400.3 911.702 332.4C953.872 297.1 993.298 260.5 1041.1 228.7C1132.95 167.6 1263.36 145.4 1385.97 164.6C1409.94 168.3 1433.48 173.5 1456.44 180.1C1525.47 199.9 1586.42 231.2 1651.4 257C1666.28 262.9 1681.44 268.6 1697.04 273.7C1771.85 298.5 1854.89 310.8 1936.92 304.4C2035.55 296.8 2130.87 257.8 2173.76 202.6" stroke="#29282B" stroke-miterlimit="10"/>
<path d="M-174.6 919C-99.9367 843.5 24.9837 803.9 151.059 756.1C165.501 750.6 179.943 745 194.384 739.3C305.296 694.9 406.677 640.2 493.76 593.2C534.486 571.2 571.89 550.7 607.127 530.9C634.711 515.4 661.573 499.3 689.445 482.4C762.953 437.8 842.093 384.5 921.811 317.3C963.259 282.2 1003.26 246.5 1051.35 215.5C1142.91 156.7 1271.16 134.2 1391.6 152.4C1415.28 156 1438.39 161 1461.06 167.4C1529.08 186.8 1588.87 217.9 1652.56 243.5C1667.15 249.4 1682.17 255 1697.33 260.1C1770.84 284.6 1852.72 296.4 1933.31 290.4C2030.5 283.2 2124.37 246.4 2170.58 193.3" stroke="#29282B" stroke-miterlimit="10"/>
<path d="M-143.984 918.8C-64.1215 845.9 64.265 811.4 190.485 765.5C204.927 760.2 219.368 754.8 233.666 749.2C343.856 705.7 441.77 649.1 524.954 598C563.947 574 599.329 551.1 632.689 528.9C658.828 511.6 684.101 493.5 710.385 474.7C779.561 425.4 854.08 368.6 931.92 302.2C972.79 267.3 1013.08 232.4 1061.75 202.3C1153.02 145.9 1279.1 122.9 1397.52 140.2C1420.77 143.6 1443.73 148.4 1465.97 154.8C1532.98 173.8 1591.47 204.7 1654.15 230.1C1668.59 235.9 1683.18 241.5 1698.2 246.5C1770.4 270.7 1850.99 282 1930.42 276.3C2026.02 269.5 2118.59 234.9 2168.13 183.8" stroke="#29282B" stroke-miterlimit="10"/>
<path d="M-113.223 918.7C-28.1617 848.5 103.691 819.1 229.911 775.1C244.353 770.1 258.794 764.8 272.947 759.3C382.559 716.8 476.863 658.2 556.004 602.9C593.119 576.9 626.768 551.6 658.106 527C682.657 507.8 706.486 487.7 731.181 467.2C796.024 413.2 865.777 353 941.885 287.2C982.033 252.5 1022.9 218.5 1072 189.3C1162.99 135.2 1287.04 111.8 1403.15 128.2C1426.11 131.4 1448.64 136.1 1470.59 142.3C1536.59 160.9 1593.93 191.6 1655.3 216.7C1669.46 222.5 1683.75 228 1698.48 233C1769.39 256.9 1848.82 267.8 1926.95 262.4C2020.97 256 2112.24 223.6 2165.09 174.6" stroke="#29282B" stroke-miterlimit="10"/>
<path d="M-82.4619 918.5C7.94292 851 143.117 826.6 269.337 784.5C283.779 779.7 298.076 774.6 312.229 769.2C421.119 727.6 511.957 667.1 587.198 607.6C622.436 579.7 654.207 551.8 683.668 524.9C706.631 503.7 729.015 481.8 752.266 459.5C812.921 400.8 877.765 337.2 952.139 272.1C991.565 237.6 1033.01 204.4 1082.55 176.1C1173.1 124.3 1295.13 100.6 1409.07 116C1431.75 119 1453.84 123.6 1475.5 129.6C1540.49 147.8 1596.53 178.3 1656.75 203.2C1670.61 208.9 1684.62 214.4 1699.21 219.3C1768.82 242.9 1846.94 253.3 1923.92 248.3C2016.49 242.3 2106.46 212.1 2162.5 165.2" stroke="#29282B" stroke-miterlimit="10"/>
<path d="M-51.8462 918.3C43.7576 853.4 182.398 834.2 308.618 794C323.059 789.4 337.357 784.5 351.365 779.2C459.678 738.6 546.905 676.2 618.247 612.4C651.752 582.5 681.502 552.2 709.085 522.9C730.603 499.8 751.544 476 773.062 451.8C829.384 388.4 889.462 321.3 962.248 257C1000.95 222.7 1042.83 190.3 1092.8 162.9C1183.06 113.4 1302.93 89.3 1414.85 103.8C1437.09 106.7 1459.04 111 1480.27 116.9C1544.25 134.7 1598.98 165 1658.19 189.7C1671.77 195.4 1685.63 200.8 1699.78 205.6C1768.09 229 1845.07 238.8 1920.74 234.2C2011.72 228.6 2100.4 200.6 2159.75 155.8" stroke="#29282B" stroke-miterlimit="10"/>
<path d="M-21.085 918.1C79.7179 855.9 221.824 841.8 348.044 803.4C362.486 799 376.783 794.3 390.791 789.1C498.382 749.5 582.143 685.1 649.586 617.2C681.213 585.3 709.23 552.6 734.792 520.9C754.721 496 774.218 470.2 794.147 444.2C846.426 376.2 901.449 305.6 972.502 241.9C1010.48 207.8 1052.94 176.2 1103.34 149.7C1193.17 102.4 1311.01 78.1 1420.77 91.6C1442.72 94.3 1464.24 98.5 1485.18 104.2C1548.15 121.5 1601.73 151.7 1659.64 176.2C1672.92 181.8 1686.5 187.2 1700.51 192C1767.52 215.1 1843.19 224.5 1917.56 220.1C2007.1 214.9 2094.33 189.1 2157.01 146.4" stroke="#29282B" stroke-miterlimit="10"/>
<path d="M9.67529 918C127.953 851.7 295.187 848 430.072 799.2C587.198 742.4 686.556 625.9 760.209 519C853.213 384.2 932.209 227.9 1113.6 136.7C1221.04 82.6 1366.33 58 1489.95 91.7C1566.2 112.5 1627.72 153 1700.94 178.5C1845.5 228.7 2033.24 211.6 2154.12 137.2" stroke="#29282B" stroke-miterlimit="10"/>
</g>
<g filter="url(#filter4_dddddd_8_3)">
<rect width="1728" height="1117" fill="url(#paint0_linear_8_3)" fill-opacity="0.39"/>
</g>
</g>
<defs>
<filter id="filter0_f_8_3" x="-957.868" y="-482.339" width="3062.9" height="3062.9" filterUnits="userSpaceOnUse" color-interpolation-filters="sRGB">
<feFlood flood-opacity="0" result="BackgroundImageFix"/>
<feBlend mode="normal" in="SourceGraphic" in2="BackgroundImageFix" result="shape"/>
<feGaussianBlur stdDeviation="486.05" result="effect1_foregroundBlur_8_3"/>
</filter>
<filter id="filter1_f_8_3" x="82.5499" y="-1978.21" width="3062.9" height="3062.9" filterUnits="userSpaceOnUse" color-interpolation-filters="sRGB">
<feFlood flood-opacity="0" result="BackgroundImageFix"/>
<feBlend mode="normal" in="SourceGraphic" in2="BackgroundImageFix" result="shape"/>
<feGaussianBlur stdDeviation="486.05" result="effect1_foregroundBlur_8_3"/>
</filter>
<filter id="filter2_f_8_3" x="-169.37" y="-633.206" width="3062.9" height="3062.9" filterUnits="userSpaceOnUse" color-interpolation-filters="sRGB">
<feFlood flood-opacity="0" result="BackgroundImageFix"/>
<feBlend mode="normal" in="SourceGraphic" in2="BackgroundImageFix" result="shape"/>
<feGaussianBlur stdDeviation="486.05" result="effect1_foregroundBlur_8_3"/>
</filter>
<filter id="filter3_f_8_3" x="-972.1" y="-1199.67" width="2791.05" height="2791.05" filterUnits="userSpaceOnUse" color-interpolation-filters="sRGB">
<feFlood flood-opacity="0" result="BackgroundImageFix"/>
<feBlend mode="normal" in="SourceGraphic" in2="BackgroundImageFix" result="shape"/>
<feGaussianBlur stdDeviation="486.05" result="effect1_foregroundBlur_8_3"/>
</filter>
<filter id="filter4_dddddd_8_3" x="-80" y="0" width="1888" height="1297" filterUnits="userSpaceOnUse" color-interpolation-filters="sRGB">
<feFlood flood-opacity="0" result="BackgroundImageFix"/>
<feColorMatrix in="SourceAlpha" type="matrix" values="0 0 0 0 0 0 0 0 0 0 0 0 0 0 0 0 0 0 127 0" result="hardAlpha"/>
<feOffset dy="2.76726"/>
<feGaussianBlur stdDeviation="1.1069"/>
<feColorMatrix type="matrix" values="0 0 0 0 0 0 0 0 0 0 0 0 0 0 0 0 0 0 0.0196802 0"/>
<feBlend mode="normal" in2="BackgroundImageFix" result="effect1_dropShadow_8_3"/>
<feColorMatrix in="SourceAlpha" type="matrix" values="0 0 0 0 0 0 0 0 0 0 0 0 0 0 0 0 0 0 127 0" result="hardAlpha"/>
<feOffset dy="6.6501"/>
<feGaussianBlur stdDeviation="2.66004"/>
<feColorMatrix type="matrix" values="0 0 0 0 0 0 0 0 0 0 0 0 0 0 0 0 0 0 0.0282725 0"/>
<feBlend mode="normal" in2="effect1_dropShadow_8_3" result="effect2_dropShadow_8_3"/>
<feColorMatrix in="SourceAlpha" type="matrix" values="0 0 0 0 0 0 0 0 0 0 0 0 0 0 0 0 0 0 127 0" result="hardAlpha"/>
<feOffset dy="12.5216"/>
<feGaussianBlur stdDeviation="5.00862"/>
<feColorMatrix type="matrix" values="0 0 0 0 0 0 0 0 0 0 0 0 0 0 0 0 0 0 0.035 0"/>
<feBlend mode="normal" in2="effect2_dropShadow_8_3" result="effect3_dropShadow_8_3"/>
<feColorMatrix in="SourceAlpha" type="matrix" values="0 0 0 0 0 0 0 0 0 0 0 0 0 0 0 0 0 0 127 0" result="hardAlpha"/>
<feOffset dy="22.3363"/>
<feGaussianBlur stdDeviation="8.93452"/>
<feColorMatrix type="matrix" values="0 0 0 0 0 0 0 0 0 0 0 0 0 0 0 0 0 0 0.0417275 0"/>
<feBlend mode="normal" in2="effect3_dropShadow_8_3" result="effect4_dropShadow_8_3"/>
<feColorMatrix in="SourceAlpha" type="matrix" values="0 0 0 0 0 0 0 0 0 0 0 0 0 0 0 0 0 0 127 0" result="hardAlpha"/>
<feOffset dy="41.7776"/>
<feGaussianBlur stdDeviation="16.711"/>
<feColorMatrix type="matrix" values="0 0 0 0 0 0 0 0 0 0 0 0 0 0 0 0 0 0 0.0503198 0"/>
<feBlend mode="normal" in2="effect4_dropShadow_8_3" result="effect5_dropShadow_8_3"/>
<feColorMatrix in="SourceAlpha" type="matrix" values="0 0 0 0 0 0 0 0 0 0 0 0 0 0 0 0 0 0 127 0" result="hardAlpha"/>
<feOffset dy="100"/>
<feGaussianBlur stdDeviation="40"/>
<feColorMatrix type="matrix" values="0 0 0 0 0 0 0 0 0 0 0 0 0 0 0 0 0 0 0.07 0"/>
<feBlend mode="normal" in2="effect5_dropShadow_8_3" result="effect6_dropShadow_8_3"/>
<feBlend mode="normal" in="SourceGraphic" in2="effect6_dropShadow_8_3" result="shape"/>
</filter>
<linearGradient id="paint0_linear_8_3" x1="864" y1="1117" x2="864" y2="0" gradientUnits="userSpaceOnUse">
<stop offset="0.201529"/>
<stop offset="0.21"/>
</linearGradient>
<clipPath id="clip0_8_3">
<rect width="1728" height="1117" fill="white"/>
</clipPath>
<clipPath id="clip1_8_3">
<rect width="1728" height="1117" fill="white" transform="translate(0 -1)"/>
</clipPath>
</defs>
</svg>
