<svg width="1728" height="1117" viewBox="0 0 1728 1117" fill="none" xmlns="http://www.w3.org/2000/svg">
<g clip-path="url(#clip0_14_335)">
<rect width="1728" height="1117" fill="#292929"/>
<g clip-path="url(#clip1_14_335)">
<rect width="1728" height="1117" fill="black"/>
<g filter="url(#filter0_f_14_335)">
<circle cx="573.582" cy="1050.11" r="559.349" transform="rotate(-90 573.582 1050.11)" fill="#11025E"/>
</g>
<g filter="url(#filter1_f_14_335)">
<circle cx="1614" cy="-445.757" r="559.349" transform="rotate(-90 1614 -445.757)" fill="#1D004D"/>
</g>
<g filter="url(#filter2_f_14_335)">
<circle cx="1362.08" cy="899.244" r="559.349" transform="rotate(-90 1362.08 899.244)" fill="#1D1D1D"/>
</g>
<g filter="url(#filter3_f_14_335)">
<circle cx="423.426" cy="196.854" r="423.426" transform="rotate(-90 423.426 196.854)" fill="#015C68"/>
</g>
</g>
<mask id="mask0_14_335" style="mask-type:luminance" maskUnits="userSpaceOnUse" x="-61" y="-1" width="1200" height="552">
<path d="M1139 -0.689331H-61V550.788H1139V-0.689331Z" fill="white"/>
</mask>
<g mask="url(#mask0_14_335)">
<path d="M-267.4 435.253C-203.8 403.474 -136.9 370.662 -59.1999 362.665C-10.7999 357.702 39.1001 362.734 87.2001 356.392C159.7 346.879 223.3 309.861 249.2 262.158C256.4 248.854 261 234.654 272.7 223.004C294.1 201.565 334.4 193.568 371.9 190.673C409.4 187.778 448.5 188.329 483.1 178.058C545.5 159.515 577.8 103.54 551 60.5246C539 41.2229 510.9 23.6446 481 27.9874C438.9 34.1916 430.4 75.3456 393.8 90.9248C369.8 101.196 338.4 98.1629 312.2 90.8558C286 83.4798 262.3 72.2435 235.5 66.1772C168.7 51.0116 88.2001 74.0358 56.7001 117.327C30.1001 153.862 37.0001 198.67 10.5001 235.343C-6.8999 259.47 -38.6999 278.496 -75.8999 286.975C-113.1 295.454 -155 293.317 -189.9 281.184L-267.4 435.253Z" fill="#194D59"/>
</g>
<path d="M-113.9 537C-38.0999 569.2 60.2001 527.7 90.2001 451.1C107.1 407.9 103.7 359.8 98.9001 313.7C92.1001 248.5 81.0001 155.8 139.3 108.9C162.2 90.5 193.2 82.6 222.1 87.9C265.8 95.9 299.5 130.9 341 146.4C387.2 163.7 433.4 157.7 469.7 125C504.3 93.9 531.6 55.6 567 25.4C627.6 -26.3 710.9 -49.7 789.7 -39.4C880.9 -27.4 966.1 15.4 1060.1 8C1096.5 5.2 1131.1 -7.4 1159.6 -30.5C1211.1 -72.2 1250.6 -126.2 1287.5 -181" stroke="#F2F2F2" stroke-miterlimit="10"/>
<path d="M-114.5 525.3C-60.1 545.9 6.59999 528.7 50.9 489.5C66.7 475.4 79.7 458.5 88 439.3C96.3 420.3 100.4 400.3 102.2 379.9C104.3 356.2 103.2 332.1 101.7 308.3C100.8 292.6 99.5 275.1 99.1 257C97.8 202.8 103.2 142.7 145.9 107.4C168.3 88.7999 198.5 80.3999 226.9 84.6999C269.8 91.1999 303.7 124 345.1 138.8C369.6 147.6 394.1 150.2 417 146.1C437 142.5 456 133.8 472.9 119.7C507.5 90.7999 535.2 55.2999 570.6 27.4999C631.1 -20.3001 713.3 -41.3001 791.6 -31.7001C796 -31.2001 800.3 -30.6001 804.7 -29.9001C886.1 -17.5001 963.2 14.5999 1046 9.89993C1050.2 9.69993 1054.4 9.29993 1058.6 8.89993C1094.3 5.19993 1128.2 -7.80007 1156.2 -30.9001C1206.9 -72.6001 1245.9 -126.3 1282.3 -180.7" stroke="#E8F2F3" stroke-miterlimit="10"/>
<path d="M-115.2 513.6C-62.2002 531.1 3.19977 513 47.6998 475.4C63.5998 461.9 76.7998 445.8 85.5998 427.5C94.2998 409.5 99.1998 390.5 101.7 371.2C104.7 348.7 104.7 325.7 104.3 302.9C104.1 287.8 103.6 270.9 103.8 253.3C104.5 200.6 110.6 141.3 152.3 105.7C174.2 87 203.6 77.9 231.5 81.2C273.7 86.2 307.7 116.8 348.9 130.9C373.2 139.3 397.4 141.9 420.3 138.3C440.2 135.1 459 127.1 475.9 114.1C510.5 87.3999 538.6 54.8 573.9 29.2C634.3 -14.6 715.5 -33.3001 793.1 -24.4001C797.4 -23.9001 801.8 -23.3001 806.1 -22.7001C886.9 -11.4001 963.3 17.4 1044.4 10.7C1048.5 10.4 1052.6 9.89995 1056.8 9.39995C1091.8 4.89995 1125 -8.60006 1152.5 -31.7001C1202.3 -73.5001 1240.8 -126.8 1276.8 -180.8" stroke="#DDF2F3" stroke-miterlimit="10"/>
<path d="M-115.9 501.8C-64.2999 516.1 -0.199902 497.1 44.6001 461.1C60.6001 448.2 74.0001 432.9 83.3001 415.6C92.5001 398.5 98.0001 380.7 101.4 362.4C105.3 341.1 106.4 319.3 107.1 297.4C107.6 282.9 107.9 266.7 108.8 249.6C111.5 198.4 118.2 140 158.9 104.1C180.3 85.2 208.9 75.5 236.3 77.8C277.8 81.3 311.9 109.8 352.9 123.1C377 131 401 133.7 423.7 130.5C443.4 127.7 462.1 120.4 479 108.5C513.7 83.9 542.1 54.2 577.4 31C637.6 -8.80003 717.8 -25.2 794.9 -17C799.2 -16.5 803.5 -16 807.8 -15.5C887.9 -5.20003 963.6 20.2 1043.1 11.5C1047.1 11 1051.2 10.5 1055.2 9.89998C1089.5 4.49998 1122 -9.40003 1149 -32.5C1197.9 -74.3 1235.9 -127.3 1271.5 -180.9" stroke="#D3F1F4" stroke-miterlimit="10"/>
<path d="M-116.6 490.1C-66.4001 501.3 -3.60006 481.4 41.4999 446.9C57.5999 434.6 71.2999 420.1 80.9999 403.8C90.6999 387.7 96.7999 370.9 101 353.6C105.9 333.5 108 312.8 109.8 291.9C111 278 112.2 262.4 113.7 245.8C118.4 196.1 125.7 138.5 165.5 102.4C186.4 83.4 214.2 73.1 241.1 74.3C281.8 76.3 316.1 102.5 356.9 115.2C380.8 122.6 404.6 125.3 427.1 122.6C446.7 120.2 465.2 113.7 482 102.8C516.7 80.4 545.5 53.5 580.7 32.7C640.8 -3.09997 719.9 -17.2 796.4 -9.69998C800.7 -9.29998 804.9 -8.79997 809.2 -8.29997C888.6 1.00003 963.6 23.1 1041.5 12.3C1045.5 11.7 1049.4 11.1 1053.4 10.4C1087 4.20002 1118.7 -10.2 1145.3 -33.4C1193.3 -75.3 1230.8 -127.9 1266 -181.1" stroke="#C9F1F4" stroke-miterlimit="10"/>
<path d="M-117.2 478.4C-68.3002 486.5 -6.90018 465.7 38.4998 432.8C54.6998 421 68.5998 407.4 78.7998 392.1C88.8998 377 95.7998 361.2 100.7 345C106.5 326.2 109.7 306.6 112.7 286.6C114.7 273.3 116.5 258.3 118.7 242.2C125.2 193.9 133.4 137.2 172.2 100.8C192.6 81.6 219.5 70.7 246 71C286 71.4 320.4 95.6 361 107.5C384.7 114.5 408.3 117.2 430.6 115C450 113.1 468.4 107.2 485.2 97.4C520 77.2 549.1 53.3 584.3 34.7C644.3 3.00003 722.4 -8.89998 798.3 -2.09998C802.5 -1.69998 806.7 -1.29998 811 -0.899979C889.7 7.40002 964 26.1 1040.3 13.2C1044.2 12.5 1048.1 11.8 1051.9 11C1084.8 4.00002 1115.8 -10.9 1141.9 -34.1C1189.1 -76 1226 -128.3 1260.8 -181.1" stroke="#BEF1F5" stroke-miterlimit="10"/>
<path d="M-117.9 466.6C-70.3999 471.6 -10.2999 449.8 35.4001 418.5C51.7001 407.3 65.8001 394.5 76.6001 380.2C87.2001 366.1 94.7001 351.4 100.5 336.2C107.2 318.6 111.5 300.1 115.6 281.1C118.3 268.4 121 254.1 123.8 238.5C132.3 191.7 141.1 135.8 178.9 99.2C198.8 79.8 224.9 68.2999 250.9 67.5999C290.2 66.4999 324.8 88.5 365.1 99.7C388.6 106.2 412 109 434.1 107.2C453.4 105.7 471.6 100.5 488.4 91.8C523.2 73.8 552.7 52.6999 587.8 36.3999C647.7 8.69995 724.7 -0.900049 800.1 5.19995C804.3 5.49995 808.5 5.89994 812.6 6.29994C890.7 13.4999 964.3 28.8999 1038.9 13.9999C1042.7 13.1999 1046.5 12.3999 1050.3 11.3999C1082.5 3.49995 1112.8 -11.8001 1138.4 -35.0001C1184.7 -77.0001 1221.1 -128.9 1255.5 -181.3" stroke="#B4F1F6" stroke-miterlimit="10"/>
<path d="M-118.6 454.9C-72.5001 456.8 -13.7001 434.1 32.2999 404.3C48.6999 393.7 62.9999 381.7 74.2999 368.4C85.3999 355.2 93.5999 341.6 100.1 327.4C107.7 311 113.1 293.6 118.3 275.6C121.8 263.5 125.2 249.8 128.6 234.7C139.1 189.4 148.6 134.3 185.4 97.5C204.8 78 230.1 65.9 255.6 64.1C294.1 61.5 328.9 81.3 369 91.8C392.3 97.9 415.5 100.7 437.4 99.3C456.5 98.2 474.7 93.7 491.4 86.1C526.3 70.2 556.1 52.1 591.2 38.1C651 14.4 726.9 7.19997 801.7 12.5C805.8 12.8 810 13.1 814.1 13.5C891.5 19.7 964.4 31.9 1037.4 14.8C1041.1 13.9 1044.8 13 1048.6 11.9C1080.1 3.19998 1109.7 -12.6 1134.8 -35.8C1180.2 -77.8 1216.1 -129.4 1250.1 -181.4" stroke="#AAF1F6" stroke-miterlimit="10"/>
<path d="M-119.2 443.2C-74.5002 442 -17.0002 418.3 29.2998 390.2C45.7998 380.1 60.3998 369 72.0998 356.7C83.5998 344.5 92.4998 331.9 99.7998 318.8C108.4 303.6 114.8 287.4 121.1 270.3C125.3 258.8 129.5 245.7 133.6 231.2C146.1 187.4 156.2 133.1 192 96.1C210.9 76.4 235.4 63.7 260.4 61C298.2 56.9 333.1 74.6 373 84.3C396 89.9 419.1 92.7 440.9 91.9C459.9 91.2 477.9 87.5 494.6 80.9C529.6 67.2 559.7 51.9 594.7 40.3C654.3 20.6 729.3 15.7 803.5 20.3C807.6 20.6 811.7 20.8 815.8 21.1C892.5 26.3 964.8 35.2 1036.2 16C1039.8 15 1043.5 14 1047.1 12.8C1077.9 3.30002 1106.7 -13 1131.4 -36.3C1175.9 -78.4 1211.3 -129.6 1244.9 -181.1" stroke="#9FF0F7" stroke-miterlimit="10"/>
<path d="M-119.9 431.5C-76.5999 427.2 -20.3999 402.6 26.2001 376C42.8001 366.5 57.6001 356.2 69.8001 344.9C81.8001 333.7 91.3001 322.2 99.4001 310.1C108.9 296 116.4 281 123.8 265C128.8 254.1 133.7 241.6 138.5 227.6C152.9 185.3 163.8 131.8 198.6 94.5C217 74.7 240.6 61.3 265.2 57.6C302.3 52 337.3 67.5 377 76.5C399.8 81.7 422.7 84.5 444.3 84.1C463.1 83.8 481 80.8 497.7 75.3C532.7 63.8 563.2 51.4 598.2 42.1C657.7 26.3 731.6 23.8 805.2 27.7C809.3 27.9 813.3 28.1 817.4 28.4C893.4 32.6 965 38.1 1034.8 16.9C1038.4 15.8 1041.9 14.7 1045.5 13.4C1075.6 3.00002 1103.7 -13.7 1127.8 -37C1171.5 -79.1 1206.3 -130 1239.5 -181.1" stroke="#95F0F8" stroke-miterlimit="10"/>
<path d="M-120.6 419.7C-78.7001 412.3 -23.8001 386.8 23.0999 361.8C39.6999 352.9 54.7999 343.4 67.4999 333C79.9999 322.8 90.1999 312.3 99.0999 301.2C109.5 288.3 118.2 274.4 126.6 259.4C132.4 249.1 138 237.3 143.4 223.7C159.8 182.9 171.3 130.2 205.2 92.7C223.1 72.7 245.9 58.7999 270 53.9999C306.3 46.8999 341.5 60.1999 381 68.4999C403.6 73.1999 426.3 76.1 447.7 76.2C466.4 76.3 484.2 73.9999 500.8 69.5999C535.9 60.2999 566.6 50.6999 601.6 43.7999C660.9 31.9999 733.8 31.7999 806.9 34.9999C810.9 35.1999 815 35.3999 819 35.4999C894.4 38.5999 965.3 40.7999 1033.4 17.5999C1036.9 16.3999 1040.4 15.0999 1043.8 13.7999C1073.2 2.59994 1100.6 -14.6001 1124.2 -37.9001C1167 -80.1001 1201.3 -130.6 1234.1 -181.3" stroke="#8BF0F8" stroke-miterlimit="10"/>
<path d="M-121.3 408C-80.7998 397.5 -27.1998 371 20.0002 347.6C36.7002 339.2 52.1002 330.6 65.2002 321.2C78.1002 311.9 89.0002 302.5 98.7002 292.5C110 280.8 119.8 268.1 129.3 254C135.8 244.3 142.2 233.1 148.3 220.1C166.7 180.7 178.9 128.9 211.7 91.1999C229.1 71.0999 251.1 56.4999 274.7 50.6999C310.3 41.9999 345.6 53.2999 384.9 60.7999C407.3 65.0999 429.8 67.8999 451 68.4999C469.5 68.9999 487.2 67.4999 503.7 64.1999C538.9 57.1999 569.9 50.2999 604.9 45.6999C664.1 37.8999 736 39.9999 808.4 42.4999C812.4 42.5999 816.4 42.7999 820.4 42.8999C895.1 44.9999 965.3 43.8999 1031.8 18.5999C1035.2 17.2999 1038.6 15.8999 1042 14.4999C1070.7 2.39992 1097.4 -15.2001 1120.5 -38.5001C1162.4 -80.7001 1196.2 -130.9 1228.6 -181.2" stroke="#80F0F9" stroke-miterlimit="10"/>
<path d="M-121.9 396.3C-82.6999 382.7 -30.4999 355.3 16.9001 333.4C33.7001 325.6 49.3001 317.8 62.9001 309.4C76.3001 301.1 87.8001 292.8 98.3001 283.8C110.5 273.3 121.5 261.7 132 248.6C139.3 239.5 146.4 228.9 153.2 216.4C173.6 178.5 186.4 127.5 218.3 89.5C235.2 69.2 256.4 54.1 279.5 47.3C314.4 37.1 349.8 46.2 388.9 53C411.1 56.9 433.4 59.7 454.4 60.7C472.8 61.6 490.3 60.8 506.8 58.6C542.1 53.8 573.4 49.8 608.3 47.5C667.3 43.7 738.2 48.1 810.1 49.9C814.1 50 818 50.1 822 50.1C896 51.2 965.5 46.7 1030.4 19.4C1033.7 18 1037 16.5 1040.3 15C1068.3 2.09997 1094.3 -16 1116.9 -39.4C1157.9 -81.7 1191.3 -131.5 1223.2 -181.4" stroke="#76F0F9" stroke-miterlimit="10"/>
<path d="M-122.6 384.5C-84.8001 367.8 -33.9001 339.4 13.7999 319.2C30.6999 312 46.4999 305 60.5999 297.6C74.4999 290.3 86.6999 283 97.9999 275C111.2 265.7 123.2 255.2 134.8 243.1C142.9 234.6 150.7 224.6 158.1 212.7C180.5 176.3 194 126.1 224.9 87.8999C241.3 67.3999 261.7 51.6999 284.3 43.8999C318.4 32.1999 354 39.2 393 45.2C415 48.6 437.1 51.4999 457.9 52.9999C476.1 54.2999 493.6 54.2999 510 53.0999C545.4 50.4999 577 49.5999 611.9 49.3999C670.8 49.0999 740.6 56.2999 811.9 57.3999C815.8 57.4999 819.8 57.4999 823.7 57.4999C897.1 57.5999 965.9 49.6999 1029.1 20.3999C1032.3 18.8999 1035.6 17.3 1038.8 15.7C1066 1.99995 1091.3 -16.6001 1113.5 -40.0001C1153.7 -82.4001 1186.5 -131.8 1218 -181.3" stroke="#6CF0FA" stroke-miterlimit="10"/>
<path d="M-123.3 372.8C-86.8998 352.9 -37.2998 323.7 10.7002 305C27.7002 298.3 43.8002 292.2 58.3002 285.8C72.6002 279.5 85.5002 273.2 97.6002 266.3C111.7 258.2 124.9 248.9 137.6 237.7C146.5 229.9 155.1 220.5 163.1 209C187.5 174.1 201.6 124.7 231.5 86.3C247.4 65.7 266.9 49.2999 289.1 40.4999C322.5 27.2999 358.2 32.0999 397 37.3999C418.8 40.3999 440.7 43.3 461.4 45.2C479.5 46.9 496.8 47.1999 513.2 47.4999C548.7 48.0999 580.6 48.7 615.5 51.2C674.2 55.3 743.1 64.4999 813.8 64.7999C817.7 64.7999 821.6 64.7999 825.5 64.7999C898.2 63.8999 966.3 52.5999 1027.9 21.2999C1031.1 19.6999 1034.2 17.9999 1037.4 16.2999C1063.9 1.69994 1088.5 -17.3001 1110.2 -40.7001C1149.5 -83.1001 1181.8 -132.2 1212.9 -181.3" stroke="#61EFFB" stroke-miterlimit="10"/>
<path d="M-124 361.1C-89 338.1 -40.7 308 7.60001 290.8C24.7 284.7 41 279.4 56 274C70.8 268.6 84.4 263.5 97.2 257.6C112.2 250.8 126.6 242.6 140.3 232.3C150 225.1 159.3 216.3 167.9 205.3C194.3 171.9 209.1 123.3 238 84.7C253.4 63.9 272.1 47 293.8 37.2C326.5 22.5 362.3 25.2 400.9 29.7C422.5 32.2 444.2 35.1 464.7 37.5C482.6 39.6 499.9 41.1 516.2 42C551.8 44 584 48.3 618.8 53C677.4 61 745.2 72.6 815.3 72.2C819.1 72.2 823 72.1 826.9 72C898.9 70 966.3 55.4 1026.3 22.1C1029.4 20.4 1032.5 18.6 1035.5 16.8C1061.3 1.39997 1085.2 -18.1 1106.4 -41.5C1144.8 -84 1176.6 -132.7 1207.3 -181.4" stroke="#57EFFB" stroke-miterlimit="10"/>
<path d="M-124.6 349.3C-91.0001 323.2 -44.0001 292.1 4.59991 276.6C21.7999 271.1 38.2999 266.6 53.7999 262.2C69.0999 257.8 83.2999 253.7 96.9999 248.8C113 243.2 128.5 236.1 143.2 226.8C153.6 220.2 163.7 212 173 201.6C201.4 169.7 216.8 121.9 244.8 83C259.7 62.1 277.6 44.5 298.8 33.7C330.7 17.5 366.7 18 405.1 21.8C426.5 23.9 448 26.8 468.3 29.7C486.1 32.2 503.2 34.5 519.5 36.4C555.2 40.6 587.7 47.7 622.5 54.8C681 66.8 747.7 80.7 817.3 79.6C821.1 79.5 824.9 79.4 828.8 79.3C900.1 76.3 966.9 58.4 1025.2 23C1028.2 21.2 1031.2 19.3 1034.2 17.4C1059.3 1.10001 1082.5 -18.9 1103.2 -42.3C1140.7 -84.8 1172 -133.2 1202.3 -181.5" stroke="#4DEFFC" stroke-miterlimit="10"/>
<path d="M-125.3 337.6C-93.0998 308.4 -47.3998 276.4 1.50018 262.4C18.8002 257.4 35.6002 253.8 51.5002 250.4C67.2002 247 82.2002 243.9 96.6002 240.1C113.5 235.7 130.1 229.8 145.9 221.5C157.1 215.5 167.9 208 177.9 198C208.3 167.6 224.4 120.6 251.3 81.5C265.7 60.4 282.8 42.2 303.5 30.4C334.7 12.7 370.8 11.1 409 14.1C430.2 15.8 451.5 18.7 471.6 22C489.2 24.9 506.2 27.9 522.5 30.9C558.3 37.4 591 47.2 625.8 56.7C684.1 72.6 749.9 88.9 818.9 87.1C822.7 87 826.5 86.9 830.3 86.6C901 82.6 966.9 61.2 1023.7 23.9C1026.6 22 1029.5 20 1032.4 18C1056.8 0.9 1079.3 -19.6 1099.4 -43C1136.1 -85.6 1166.8 -133.6 1196.7 -181.5" stroke="#42EFFD" stroke-miterlimit="10"/>
<path d="M-126 325.9C-95.2 293.6 -50.8 260.6 -1.60001 248.2C15.7 243.8 32.8 241 49.2 238.6C65.4 236.2 81 234.2 96.2 231.4C114 228.2 131.8 223.5 148.6 216.1C160.6 210.8 172.2 203.8 182.7 194.4C215.1 165.6 231.8 119.4 257.8 80C271.7 58.8 288 40 308.2 27.1C338.7 7.79998 375 4.19998 412.9 6.39998C433.9 7.59998 455 10.5 474.9 14.4C492.4 17.8 509.3 21.5 525.5 25.5C561.3 34.3 594.5 46.8 629.2 58.7C687.4 78.5 752.1 97.2 820.5 94.7C824.2 94.6 828 94.4 831.7 94.1C901.7 89.1 966.9 64.3 1022.1 25C1025 23 1027.8 20.9 1030.6 18.7C1054.3 0.799982 1076 -20.2 1095.7 -43.6C1131.5 -86.2 1161.7 -133.9 1191.3 -181.4" stroke="#38EFFD" stroke-miterlimit="10"/>
<path d="M-126.6 314.2C-97.1001 278.8 -54.1001 244.9 -4.6001 234.1C12.7999 230.3 30.0999 228.3 46.9999 226.8C63.6999 225.3 79.9999 224.4 95.9999 222.6C114.7 220.6 133.6 217.1 151.5 210.6C164.3 205.9 176.6 199.5 187.8 190.6C222.2 163.3 239.6 117.9 264.5 78.2C278 56.8 293.3 37.4 313.1 23.6C342.8 2.80001 379.3 -2.9 417 -1.5C437.7 -0.7 458.6 2.2 478.4 6.5C495.7 10.3 512.5 14.8 528.6 19.8C564.5 31 598 46.1 632.6 60.4C690.7 84.1 754.4 105.2 822.2 102C825.9 101.8 829.6 101.6 833.3 101.3C902.6 95.2 967.2 67.1 1020.7 25.8C1023.5 23.6 1026.2 21.5 1028.9 19.2C1051.9 0.400013 1072.9 -21 1092.1 -44.4C1127 -87.1 1156.7 -134.4 1185.9 -181.5" stroke="#2EEEFE" stroke-miterlimit="10"/>
<path d="M-127.3 302.4C-99.1998 263.9 -57.4998 229.1 -7.6998 219.8C9.8002 216.5 27.4002 215.4 44.7002 214.9C61.8002 214.4 78.8002 214.5 95.6002 213.8C115.3 213 135.3 210.7 154.2 205.1C167.8 201.1 180.8 195.3 192.6 186.8C229 161 247 116.4 271 76.5C284 54.9 298.5 34.9 317.8 20.1C346.8 -2.20002 383.4 -10.1 420.9 -9.40002C441.4 -9.00002 462.1 -6.10002 481.7 -1.40002C498.9 2.79998 515.5 8.09998 531.6 14.1C567.6 27.6 601.3 45.4 636 62C694 89.7 756.6 113.1 823.8 109.2C827.5 109 831.1 108.7 834.8 108.3C903.5 101.2 967.3 69.8 1019.2 26.3C1021.9 24 1024.6 21.7 1027.2 19.4C1049.5 -0.200022 1069.8 -22.1 1088.5 -45.5C1122.5 -88.2 1151.7 -135.2 1180.5 -181.9" stroke="#23EEFE" stroke-miterlimit="10"/>
<path d="M-128 290.7C-101.3 249.1 -60.9 213.3 -10.8 205.7C24.2 200.3 59.8 204.6 95.2 205.2C130.6 205.8 167.6 202.2 197.5 183.3C256.7 145.8 269 62 322.6 16.9C366.2 -19.9 430.1 -23.8 485.2 -8.99998C540.3 5.80002 589.5 36.6 639.5 64.1C700.5 97.5 765.6 124.3 836.5 115.9C904.5 107.8 967.6 73 1017.9 27.5C1082.8 -31.2 1129.5 -107 1175.2 -181.6" stroke="#19EEFF" stroke-miterlimit="10"/>
<path d="M1785.46 -68.035C1719.36 -99.635 1636.46 -92.935 1576.36 -51.035C1556.46 -37.235 1539.16 -19.935 1519.36 -5.93503C1499.56 8.06497 1476.26 19.065 1452.06 17.765C1413.96 15.665 1384.46 -15.235 1349.96 -31.635C1295.66 -57.435 1231.16 -46.135 1174.16 -27.135C1117.06 -8.13498 1061.06 18.065 1001.06 20.965C982.159 21.865 962.759 20.365 945.459 12.665C928.159 4.965 913.159 -9.43503 908.259 -27.735C899.759 -59.635 925.159 -92.835 956.159 -104.035C987.159 -115.235 1021.56 -109.735 1053.66 -101.935C1085.76 -94.135 1118.06 -84.135 1150.96 -86.735C1207.66 -91.235 1254.36 -131.835 1293.26 -173.235C1332.16 -214.635 1370.16 -260.535 1422.96 -281.535C1468.86 -299.835 1520.46 -296.935 1568.96 -287.835C1617.46 -278.735 1664.96 -263.735 1714.06 -258.535C1763.16 -253.335 1815.76 -259.035 1855.96 -287.835L1785.46 -68.035Z" fill="#194D59"/>
<mask id="mask1_14_335" style="mask-type:luminance" maskUnits="userSpaceOnUse" x="6" y="-112" width="1734" height="800">
<path d="M1739.6 -112H6.6001V688H1739.6V-112Z" fill="white"/>
</mask>
<g mask="url(#mask1_14_335)">
<path d="M-305.34 916.9C-295.375 772 -178.686 635.5 -0.909529 558.8C89.2065 519.9 193.62 497.2 299.477 492.2C419.921 486.5 517.402 515.6 632.791 530.4C722.618 541.9 815.911 544.7 904.583 527.3C996.288 509.4 1078.89 470.2 1136.23 417.5C1231.83 329.6 1216.09 218.6 1278.33 121C1334.66 32.8 1453.66 -35 1589.55 -56.2C1725.45 -77.4 1874.92 -51.6 1980.49 11.4" stroke="#29282B" stroke-miterlimit="10"/>
<path d="M-320.793 917.1C-311.55 773.6 -196.883 638 -21.5616 561.4C68.9876 521.5 174.412 498.3 281.425 493.4C313.196 491.9 343.524 492.9 372.985 495.3C455.88 502.3 532.132 521.5 617.915 533C634.812 535.3 651.853 537.2 668.894 538.8C743.558 545.7 819.665 545.2 892.451 530.8C932.455 522.9 970.581 510.9 1005.67 495.2C1051.45 474.8 1091.6 448.4 1124.24 418.1C1129.01 413.7 1133.48 409.2 1137.82 404.7C1208.87 329.5 1217.53 244.4 1260.42 167.3C1267.07 155.4 1274.43 143.6 1282.95 132.1C1318.05 84.9999 1372.64 44.8999 1438.78 15.6999C1487.59 -5.90008 1543.05 -21.5001 1601.39 -29.7001C1641.11 -35.2001 1682.12 -37.2001 1722.7 -36.1001C1822.49 -33.2001 1920.41 -11.8001 1991.61 26.7999" stroke="#29282B" stroke-miterlimit="10"/>
<path d="M-336.101 917.3C-327.436 775.2 -214.502 641 -42.0687 564C49.0582 523.4 155.349 499.4 263.517 494.5C295.577 493.1 326.194 494 356.088 496.6C439.85 503.8 516.968 523.5 603.185 535.5C620.226 537.9 637.412 540 654.597 541.7C729.983 549.1 807.101 548.9 880.321 534.2C920.613 526.2 959.028 513.8 994.121 497.5C1039.9 476.4 1079.47 449.3 1112.25 418.6C1117.02 414.1 1121.64 409.6 1125.97 405C1198.18 328.8 1214.79 247.3 1262.88 175.5C1270.39 164.4 1278.48 153.5 1287.72 142.9C1325.56 99.4999 1381.59 63.1999 1448.74 36.9999C1498.42 17.5999 1554.46 3.69994 1613.38 -3.50006C1653.53 -8.40006 1694.98 -10.2001 1735.99 -9.40005C1836.79 -7.30005 1935.57 9.49994 2003.02 41.9999" stroke="#29282B" stroke-miterlimit="10"/>
<path d="M-351.553 917.5C-343.61 776.8 -232.554 643.7 -62.7199 566.6C28.8403 525.1 136.286 500.5 245.61 495.6C277.959 494.2 309.009 495.2 339.192 497.8C423.82 505.2 501.805 525.4 588.599 538C605.785 540.5 623.115 542.7 640.445 544.5C716.697 552.5 794.682 552.5 868.479 537.6C909.06 529.4 947.619 516.8 983.001 499.9C1028.78 478.2 1067.92 450.3 1100.7 419.1C1105.47 414.6 1110.09 410 1114.42 405.4C1187.78 328.2 1212.05 250.2 1265.62 183.9C1273.86 173.7 1282.67 163.7 1292.63 153.9C1333.21 114.1 1390.69 81.6999 1459 58.4999C1509.4 41.2999 1566.01 29.1999 1625.51 22.8999C1666.09 18.5999 1707.83 16.9999 1749.42 17.4999C1851.23 18.7999 1950.74 31.0999 2014.57 57.3999" stroke="#29282B" stroke-miterlimit="10"/>
<path d="M-367.006 917.6C-359.785 778.3 -250.606 646.3 -83.3715 569.1C8.6219 526.7 117.079 501.4 227.558 496.7C260.196 495.3 291.534 496.3 322.006 499C407.501 506.6 486.352 527.3 573.58 540.4C590.91 543 608.384 545.4 626.003 547.3C702.977 555.8 781.829 556.1 856.348 540.9C897.218 532.6 936.066 519.6 971.448 502.2C1017.23 479.8 1055.79 451.2 1088.71 419.6C1093.48 415 1098.1 410.4 1102.58 405.7C1177.1 327.5 1209.16 253.1 1268.08 192.2C1277.18 182.8 1286.71 173.7 1297.25 164.8C1340.58 128.7 1399.5 100.1 1468.82 79.8999C1519.94 64.8999 1577.28 54.6 1637.35 49.2C1678.51 45.5 1720.54 44.1 1762.56 44.3C1865.39 44.8 1965.76 52.5 2025.83 72.6" stroke="#29282B" stroke-miterlimit="10"/>
<path d="M-382.314 917.8C-375.671 779.9 -268.514 649 -103.879 571.7C-11.4525 528.4 98.0153 502.5 209.649 497.8C242.432 496.4 274.204 497.4 305.109 500.2C391.47 508 471.188 529.2 558.993 542.9C576.468 545.6 594.087 548.1 611.85 550.2C689.546 559.3 769.408 559.8 844.361 544.4C885.519 535.9 924.512 522.7 960.038 504.6C1005.82 481.6 1043.8 452.2 1076.87 420.2C1081.64 415.5 1086.4 410.9 1090.88 406.1C1166.55 326.9 1206.41 256 1270.68 200.6C1280.64 192.1 1290.9 183.8 1302.16 175.8C1348.23 143.4 1408.6 118.6 1478.93 101.4C1530.77 88.6999 1588.83 80.0999 1649.48 75.5999C1691.08 72.4999 1733.53 71.2999 1775.99 71.1999C1879.83 70.8999 1980.92 73.9999 2037.24 87.9999" stroke="#29282B" stroke-miterlimit="10"/>
<path d="M-397.767 918C-391.846 781.5 -286.566 651.6 -124.53 574.3C-31.6703 530.1 78.9528 503.6 191.598 499C224.669 497.6 256.73 498.7 287.924 501.6C375.151 509.6 455.736 531.3 543.975 545.6C561.593 548.5 579.357 551 597.264 553.2C675.827 562.8 756.556 563.6 832.086 547.9C873.533 539.3 912.815 525.7 948.341 507.1C993.977 483.4 1031.53 453.3 1064.89 420.8C1069.8 416.1 1074.42 411.3 1078.89 406.6C1155.72 326.4 1203.24 259.1 1272.99 209C1283.68 201.3 1294.8 193.9 1306.64 186.9C1355.45 158.1 1417.26 137.2 1488.6 123C1541.32 112.5 1599.95 105.7 1661.18 102.1C1703.21 99.6 1746.1 98.6 1788.85 98.1C1893.69 96.9 1995.65 95.4999 2048.22 103.4" stroke="#29282B" stroke-miterlimit="10"/>
<path d="M-413.219 918.2C-407.876 783.1 -304.762 654.3 -145.182 576.9C-51.8887 531.7 59.7454 504.7 173.546 500.1C206.906 498.8 239.255 499.8 270.883 502.8C358.977 511 440.283 533.2 529.1 548C546.863 551 564.771 553.7 582.823 556C662.107 566.1 743.847 567.2 819.955 551.2C861.691 542.4 901.117 528.5 936.932 509.4C982.568 485 1019.54 454.2 1053.04 421.3C1057.95 416.5 1062.57 411.7 1067.2 406.9C1145.18 325.8 1200.35 262 1275.59 217.3C1287.14 210.5 1298.84 203.9 1311.4 197.8C1362.96 172.7 1426.22 155.6 1498.71 144.4C1552.15 136.1 1611.36 131.1 1673.31 128.4C1715.77 126.6 1759.1 125.7 1802.28 124.9C1908.13 122.9 2010.96 117 2059.77 118.7" stroke="#29282B" stroke-miterlimit="10"/>
<path d="M-428.528 918.3C-423.906 784.5 -322.67 656.8 -165.689 579.5C-72.1075 533.4 40.8263 505.7 155.782 501.2C189.431 499.9 222.069 501 254.13 504C343.09 512.4 425.263 535.1 514.657 550.5C532.565 553.6 550.617 556.4 568.814 558.8C648.82 569.5 731.427 570.8 808.112 554.6C850.137 545.7 889.852 531.5 925.667 511.7C971.159 486.7 1007.7 455 1041.34 421.7C1046.26 416.9 1051.02 412 1055.64 407.2C1134.78 325.1 1197.6 264.8 1278.48 225.6C1290.75 219.6 1303.32 213.9 1316.6 208.7C1370.9 187.2 1435.6 174 1509.11 165.8C1563.27 159.7 1623.2 156.5 1685.73 154.7C1728.62 153.5 1772.38 152.8 1816 151.7C1922.86 148.9 2026.41 138.4 2071.61 134" stroke="#29282B" stroke-miterlimit="10"/>
<path d="M-443.98 918.5C-439.936 786.2 -340.866 659.4 -186.196 582.1C-92.181 535 21.7638 506.8 137.875 502.4C171.813 501.1 204.74 502.2 237.089 505.3C326.916 513.9 409.956 537.1 499.783 553C517.835 556.2 536.031 559.2 554.372 561.7C635.246 572.9 718.719 574.6 795.981 558C838.296 548.9 878.155 534.4 914.114 514.1C959.606 488.4 995.565 456 1029.36 422.3C1034.27 417.4 1039.03 412.5 1043.8 407.6C1124.1 324.5 1194.43 267.7 1280.93 234C1294.07 228.9 1307.36 224 1321.22 219.7C1378.27 201.9 1444.41 192.5 1518.93 187.3C1573.81 183.4 1634.46 182 1697.57 181.1C1740.9 180.5 1785.09 180 1829.14 178.6C1937.02 175 2041.43 159.9 2082.73 149.4" stroke="#29282B" stroke-miterlimit="10"/>
<path d="M-459.288 918.7C-455.967 787.7 -358.774 662 -206.848 584.7C-112.399 536.7 2.55646 507.9 119.823 503.5C153.905 502.2 187.41 503.4 220.048 506.5C310.742 515.3 394.648 539 485.052 555.5C503.249 558.9 521.59 561.9 540.075 564.6C621.671 576.3 706.154 578.3 783.995 561.4C826.598 552.2 866.746 537.4 902.85 516.5C948.341 490.2 983.868 457 1017.66 422.9C1022.57 417.9 1027.34 413 1032.1 408.1C1113.55 324 1191.54 270.8 1283.53 242.5C1297.4 238.2 1311.55 234.2 1326.14 230.8C1385.92 216.7 1453.51 211.1 1529.04 209C1584.64 207.4 1646.02 207.7 1709.71 207.7C1753.46 207.7 1798.09 207.4 1842.57 205.7C1951.46 201.3 2056.59 181.7 2094.29 165" stroke="#29282B" stroke-miterlimit="10"/>
<path d="M-474.741 918.9C-472.142 789.3 -376.971 664.5 -227.5 587.3C-132.618 538.3 -16.5071 509 101.77 504.6C136.141 503.3 169.935 504.5 202.862 507.8C294.422 516.8 379.195 541 470.033 558C488.374 561.5 506.859 564.7 525.489 567.4C607.95 579.7 693.156 581.9 771.575 564.8C814.466 555.5 854.759 540.3 891.007 518.8C936.498 491.8 971.447 457.9 1005.39 423.3C1010.3 418.3 1015.21 413.3 1019.97 408.3C1102.58 323.2 1188.22 273.5 1285.7 250.6C1300.43 247.2 1315.16 244.1 1330.47 241.5C1393 231 1462.03 229.3 1538.72 230.2C1595.18 230.8 1657.14 232.9 1721.4 233.7C1765.59 234.3 1810.65 234.3 1855.57 232.1C1965.47 226.9 2071.47 202.7 2105.41 179.9" stroke="#29282B" stroke-miterlimit="10"/>
<path d="M-490.193 919.1C-488.172 790.9 -395.167 667.1 -248.151 589.9C-152.98 539.9 -35.7141 510 83.8629 505.8C118.523 504.6 152.605 505.8 185.965 509.1C278.248 518.3 364.031 542.9 455.447 560.6C473.932 564.2 492.562 567.5 511.336 570.4C594.52 583.2 680.737 585.7 759.733 568.3C802.913 558.8 843.495 543.4 879.743 521.3C925.234 493.7 959.606 459 993.688 424C998.598 418.9 1003.51 413.9 1008.42 408.8C1092.18 322.7 1185.33 276.5 1288.44 259.1C1303.89 256.5 1319.49 254.3 1335.38 252.6C1400.65 245.8 1471.13 247.9 1548.83 251.8C1606.01 254.6 1668.55 258.5 1733.39 260.2C1778.01 261.4 1823.51 261.6 1868.85 259.1C1979.76 253.1 2086.63 224.3 2116.82 195.4" stroke="#29282B" stroke-miterlimit="10"/>
<path d="M-505.501 919.2C-504.202 792.4 -413.219 669.5 -268.514 592.4C-172.91 541.5 -54.6326 511 66.0997 506.8C101.049 505.6 135.42 506.8 169.213 510.2C262.362 519.6 349.012 544.7 440.861 563C459.491 566.7 478.265 570.1 497.183 573.1C581.09 586.4 668.317 589.2 747.891 571.5C791.36 561.9 832.086 546.1 868.623 523.5C913.97 495.2 947.908 459.8 982.135 424.3C987.045 419.2 991.955 414.1 997.01 409C1081.93 321.9 1182.73 279.1 1291.33 267.3C1307.65 265.5 1323.97 264.2 1340.58 263.4C1408.6 260.2 1480.52 266.2 1559.22 273.1C1617.13 278.1 1680.39 283.8 1745.81 286.4C1790.87 288.2 1836.79 288.6 1882.57 285.8C1994.5 279 2102.09 245.6 2128.51 210.5" stroke="#29282B" stroke-miterlimit="10"/>
<path d="M-520.955 919.4C-520.233 794 -431.416 672 -289.166 595C-193.273 543.1 -73.6962 512.1 48.0471 507.9C83.2847 506.7 117.945 507.9 152.027 511.4C246.042 521 333.559 546.6 425.986 565.4C444.76 569.2 463.678 572.8 482.741 575.9C567.514 589.8 655.608 592.8 735.615 574.9C779.373 565.1 820.387 549.1 856.925 525.8C902.416 497 935.632 460.7 970.003 424.8C974.913 419.6 979.968 414.4 984.878 409.3C1070.95 321.2 1179.26 281.9 1293.5 275.6C1310.68 274.7 1327.72 274.2 1344.91 274.3C1415.67 274.8 1489.04 284.6 1568.75 294.5C1627.39 301.7 1691.36 309.2 1757.36 312.7C1802.85 315.2 1849.21 315.7 1895.43 312.6C2008.5 305 2116.82 267.1 2139.49 225.8" stroke="#29282B" stroke-miterlimit="10"/>
<path d="M-536.263 919.6C-536.263 795.6 -449.613 674.5 -309.673 597.6C-213.491 544.6 -92.7591 513.2 30.1394 509.1C65.5215 507.9 100.615 509.2 135.13 512.8C230.012 522.6 318.395 548.7 411.255 568.1C430.174 572.1 449.237 575.7 468.444 579C553.939 593.4 642.899 596.7 723.628 578.5C767.675 568.6 808.979 552.3 845.516 528.4C891.007 498.9 923.645 461.8 958.161 425.6C963.216 420.4 968.126 415.1 973.18 410C1060.41 320.9 1176.37 285 1296.1 284.2C1314 284.1 1331.77 284.5 1349.67 285.5C1423.18 289.6 1497.99 303.3 1578.72 316.2C1638.22 325.6 1702.77 334.9 1769.35 339.3C1815.27 342.4 1862.06 343.1 1908.57 339.6C2022.66 331.2 2131.69 288.7 2150.75 241.3" stroke="#29282B" stroke-miterlimit="10"/>
<path d="M-551.715 919.8C-552.437 797.2 -467.809 677 -330.324 600.2C-233.854 546.2 -111.822 514.3 12.2319 510.2C47.9029 509 83.285 510.3 118.089 514C213.838 524 302.943 550.6 396.525 570.5C415.588 574.6 434.795 578.4 454.147 581.7C540.364 596.6 630.335 600.2 711.642 581.8C755.978 571.7 797.57 555.1 834.252 530.7C879.743 500.6 911.948 462.7 946.463 426C951.518 420.7 956.428 415.4 961.627 410.2C1050.01 320.1 1173.63 287.6 1298.84 292.4C1317.61 293.1 1336.1 294.4 1354.73 296.3C1430.98 304.1 1507.23 321.6 1589.12 337.5C1649.34 349.2 1714.62 360.2 1781.77 365.5C1828.13 369.2 1875.35 370.1 1922.29 366.3C2037.39 357.1 2147.29 310 2162.6 256.5" stroke="#29282B" stroke-miterlimit="10"/>
<path d="M-567.167 919.9C-568.467 798.7 -486.15 679.4 -350.976 602.7C-254.072 547.7 -131.029 515.2 -5.81986 511.3C30.1399 510.2 65.9552 511.5 101.048 515.2C197.663 525.4 287.635 552.5 381.65 573C400.857 577.2 420.209 581.1 439.706 584.6C526.789 600.1 617.627 603.9 699.367 585.2C743.991 575 785.728 558.1 822.554 533C867.901 502.2 899.673 463.6 934.333 426.5C939.387 421.1 944.442 415.8 949.641 410.5C1039.03 319.4 1170.45 290.4 1301.15 300.7C1320.65 302.2 1340 304.4 1359.21 307.2C1438.06 318.7 1515.9 340 1598.79 358.9C1659.74 372.8 1725.59 385.6 1793.47 391.8C1840.26 396.1 1887.92 397.2 1935.28 393.1C2051.4 383.1 2162.16 331.4 2173.57 271.8" stroke="#29282B" stroke-miterlimit="10"/>
<path d="M-582.475 920.1C-584.497 800.3 -504.202 681.9 -371.483 605.3C-274.29 549.3 -150.092 516.3 -23.7273 512.4C12.5213 511.3 48.6255 512.6 84.152 516.4C181.633 526.8 272.471 554.4 366.92 575.5C386.272 579.8 405.768 583.9 425.409 587.4C513.214 603.4 604.918 607.5 687.38 588.5C732.294 578.1 774.319 560.9 811.145 535.3C856.492 503.9 887.686 464.5 922.491 427C927.545 421.6 932.6 416.2 937.799 410.9C1028.35 318.8 1167.42 293.2 1303.61 309.1C1323.97 311.5 1344.04 314.5 1363.83 318.2C1445.42 333.3 1524.71 358.5 1608.61 380.4C1670.28 396.5 1736.86 411.1 1805.31 418.2C1852.53 423.1 1900.62 424.4 1948.43 420C2065.55 409.2 2177.04 353 2184.84 287.2" stroke="#29282B" stroke-miterlimit="10"/>
<path d="M-597.928 920.3C-600.528 801.9 -522.543 684.4 -392.134 607.9C-294.798 550.8 -169.155 517.4 -41.7796 513.5C-5.38664 512.4 31.1508 513.8 66.9661 517.6C165.314 528.2 257.018 556.3 352.045 577.9C371.541 582.3 391.182 586.5 410.967 590.2C499.494 606.8 592.21 611.1 675.249 591.9C720.452 581.4 762.621 563.9 799.592 537.7C844.939 505.6 875.555 465.5 910.504 427.5C915.559 422 920.757 416.6 925.956 411.2C1017.66 318.1 1164.53 295.8 1306.06 317.4C1327.29 320.6 1347.94 324.6 1368.59 329.1C1452.93 347.9 1533.66 376.9 1618.58 401.8C1680.97 420.1 1748.27 436.5 1817.3 444.5C1864.95 450 1913.48 451.5 1961.71 446.8C2079.85 435.2 2192.2 374.4 2196.25 302.5" stroke="#29282B" stroke-miterlimit="10"/>
<path d="M-613.237 920.5C-616.558 803.5 -540.884 686.7 -412.642 610.5C-315.161 552.2 -188.219 518.5 -59.6877 514.7C-23.0059 513.6 13.8204 515 50.069 519C149.283 529.8 241.854 558.4 337.314 580.6C356.954 585.2 376.739 589.4 396.669 593.3C486.063 610.4 579.645 615.1 663.118 595.5C708.609 584.9 751.067 567 788.183 540.2C833.529 507.5 863.568 466.6 898.661 428.2C903.716 422.7 908.915 417.2 914.258 411.8C1007.12 317.7 1161.64 298.9 1308.66 325.9C1330.61 329.9 1352.13 334.8 1373.36 340.2C1460.44 362.6 1542.62 395.5 1628.69 423.4C1691.94 443.9 1759.82 462.1 1829.28 471C1877.37 477.1 1926.33 478.8 1975 473.7C2094.14 461.2 2207.22 395.9 2207.51 317.9" stroke="#29282B" stroke-miterlimit="10"/>
<path d="M-628.689 920.6C-632.588 805 -559.08 689.2 -433.293 613.1C-307.507 537 -131.896 502 33.028 520.2C153.76 533.5 264.672 573.1 382.372 596.1C521.59 623.3 671.205 620.3 776.774 542.5C828.619 504.3 859.813 455.3 902.561 412.1C996.576 317.1 1158.76 301.7 1311.26 334.2C1427.52 359 1530.48 406.4 1638.65 444.9C1746.82 483.4 1868.13 513.9 1988.29 500.6C2108.44 487.3 2222.38 417.5 2218.92 333.2" stroke="#29282B" stroke-miterlimit="10"/>
<path d="M-597.928 920.5C-596.628 807.5 -519.654 696.8 -393.867 622.6C-379.426 614.1 -364.406 606.1 -348.809 598.6C-228.655 540.7 -77.8838 513.1 64.2222 525.1C130.509 530.6 193.619 544.1 256.585 558.2C305.109 569.1 353.633 580.3 403.313 588.5C538.198 611 683.048 604.5 786.883 527.5C838.007 489.5 869.778 441.3 912.959 399C1006.83 306.3 1166.7 290.5 1317.04 322.1C1345.63 328.1 1373.36 335.5 1400.65 343.8C1482.83 369 1559.95 402.7 1640.1 431.4C1658.44 438 1677.07 444.3 1696.13 450.2C1787.84 478.6 1886.9 497.2 1985.11 486.5C2103.67 473.6 2216.32 406 2216.17 323.8" stroke="#29282B" stroke-miterlimit="10"/>
<path d="M-567.312 920.3C-560.814 810 -480.374 704.4 -354.587 632C-340.145 623.7 -325.126 615.9 -309.673 608.5C-190.241 551.5 -42.9356 522.1 95.2711 529.8C159.681 533.4 221.058 544.4 282.002 556.1C329.082 565.1 376.017 574.4 424.108 580.8C554.516 598.5 694.745 588.7 796.847 512.4C847.249 474.6 879.742 427.4 923.212 385.8C1017.23 295.7 1174.5 279.2 1322.81 309.9C1350.97 315.7 1378.41 323 1405.42 331.2C1486.58 356 1562.4 389.5 1641.4 418C1659.45 424.5 1677.93 430.8 1696.71 436.6C1787.11 464.8 1884.88 482.8 1981.93 472.5C2099.05 460 2210.25 394.6 2213.43 314.5" stroke="#29282B" stroke-miterlimit="10"/>
<path d="M-536.551 920.1C-524.854 812.5 -440.947 711.9 -315.161 641.5C-300.719 633.4 -285.844 625.8 -270.391 618.5C-151.536 562.5 -7.84185 531.1 126.466 534.6C189.142 536.2 248.498 544.8 307.564 554.1C353.2 561.2 398.547 568.5 445.049 573.2C571.269 585.9 706.587 573 807.101 497.3C856.925 459.7 889.997 413.4 933.61 372.6C1027.48 284.9 1182.44 268 1328.59 297.7C1356.46 303.3 1383.61 310.4 1410.19 318.5C1490.34 342.9 1565 376.2 1642.84 404.5C1660.6 411 1678.8 417.2 1697.29 423C1786.39 450.9 1883.01 468.4 1978.75 458.4C2094.29 446.3 2204.19 383.1 2210.69 305.1" stroke="#29282B" stroke-miterlimit="10"/>
<path d="M-505.791 919.9C-488.749 815 -401.522 719.5 -275.59 650.9C-261.149 643 -246.274 635.5 -230.966 628.4C-112.833 573.4 27.3958 540 157.804 539.3C218.603 538.9 276.226 545.1 333.126 552C377.173 557.2 421.076 562.5 466.134 565.4C587.877 573.3 718.574 557 817.355 482.1C866.457 444.7 900.106 399.3 944.153 359.3C1037.88 274.1 1190.67 256.6 1334.66 285.4C1362.24 290.9 1388.96 297.8 1415.24 305.7C1494.38 329.7 1567.74 362.8 1644.43 390.9C1661.9 397.3 1679.81 403.5 1698.15 409.2C1785.96 436.8 1881.27 453.9 1975.87 444.2C2089.95 432.5 2198.56 371.5 2208.23 295.6" stroke="#29282B" stroke-miterlimit="10"/>
<path d="M-475.174 919.8C-452.934 817.5 -362.24 727.1 -236.309 660.4C-221.867 652.8 -206.992 645.4 -191.828 638.4C-74.4176 584.3 62.345 549 188.71 544.1C247.632 541.8 303.376 545.5 358.399 549.9C401.002 553.2 443.316 556.6 486.786 557.7C604.196 560.8 730.272 541.2 827.176 467C875.555 429.8 909.926 385.3 954.262 346.1C1047.99 263.3 1198.33 245.4 1340.14 273.1C1367.29 278.4 1393.72 285.1 1419.72 292.9C1497.85 316.4 1570.06 349.4 1645.44 377.2C1662.77 383.6 1680.39 389.7 1698.3 395.4C1784.8 422.7 1878.96 439.3 1972.11 430C2084.61 418.7 2191.91 359.9 2204.91 286.1" stroke="#29282B" stroke-miterlimit="10"/>
<path d="M-444.414 919.6C-416.974 820 -322.815 734.7 -196.883 669.9C-182.442 662.5 -167.567 655.3 -152.548 648.4C-35.7144 595.3 97.4378 558.1 219.903 549C277.092 544.7 330.959 546.1 383.96 548C424.975 549.5 465.845 550.8 507.725 550.2C620.804 548.4 742.114 525.5 837.284 452C884.942 415 919.891 371.4 964.66 333C1058.24 252.7 1206.27 234.2 1345.92 261C1372.78 266.1 1398.92 272.7 1424.48 280.3C1501.6 303.4 1572.51 336.2 1646.74 363.8C1663.78 370.1 1681.11 376.2 1698.73 381.8C1783.94 408.8 1876.8 425 1968.79 416C2079.7 405.1 2185.7 348.5 2202.02 276.7" stroke="#29282B" stroke-miterlimit="10"/>
<path d="M-413.652 919.4C-380.87 822.5 -283.389 742.2 -157.457 679.3C-143.016 672.1 -128.285 665.1 -113.121 658.4C2.98975 606.3 132.531 567.1 251.098 553.8C306.409 547.5 358.544 546.5 409.523 546C449.093 545.6 488.374 545 528.666 542.5C637.412 535.9 753.956 509.7 847.394 436.9C894.329 400.1 929.856 357.4 974.914 319.8C1068.35 241.9 1214.07 222.9 1351.7 248.8C1378.13 253.8 1403.98 260.1 1429.25 267.7C1505.36 290.4 1574.97 323 1648.18 350.4C1664.94 356.7 1681.98 362.7 1699.45 368.2C1783.36 394.9 1875.06 410.6 1965.76 401.9C2075.22 391.4 2179.78 337 2199.42 267.3" stroke="#29282B" stroke-miterlimit="10"/>
<path d="M-383.037 919.2C-345.055 824.9 -244.108 749.8 -118.176 688.8C-103.735 681.8 -89.0043 675 -73.9849 668.4C41.5484 617.2 167.624 576.1 282.291 558.6C335.725 550.4 385.982 546.9 435.084 544C473.21 541.8 510.903 539.1 549.606 534.9C653.875 523.5 765.798 494 857.647 421.9C904.005 385.4 940.109 343.5 985.456 306.8C1078.75 231.3 1222.3 211.9 1357.62 236.8C1383.76 241.6 1409.17 247.8 1434.16 255.2C1509.26 277.5 1577.71 309.9 1649.63 337.1C1666.09 343.3 1682.99 349.3 1700.03 354.8C1782.64 381.3 1873.04 396.4 1962.58 388.1C2070.46 378 2173.72 325.8 2196.82 258.2" stroke="#29282B" stroke-miterlimit="10"/>
<path d="M-352.275 919.1C-309.095 827.5 -204.682 757.4 -78.7502 698.3C-64.3086 691.5 -49.5781 684.9 -34.7032 678.4C80.1081 628.2 202.718 585.1 313.341 563.4C365.042 553.2 413.422 547.3 460.502 542C497.039 537.9 533.288 533.3 570.403 527.3C670.339 511.1 777.496 478.2 867.612 406.8C913.248 370.5 949.93 329.5 995.71 293.6C1088.71 220.5 1230.1 200.6 1363.39 224.6C1389.1 229.2 1414.37 235.2 1438.92 242.5C1513.01 264.4 1580.16 296.6 1650.93 323.5C1667.1 329.7 1683.71 335.6 1700.61 341C1781.91 367.2 1871.16 381.9 1959.4 373.9C2065.69 364.2 2167.65 314.2 2194.08 248.7" stroke="#29282B" stroke-miterlimit="10"/>
<path d="M-321.515 918.9C-273.135 830 -165.256 765 -39.1801 707.8C-24.7384 701.2 -10.0079 694.8 4.72259 688.4C118.812 639.1 237.811 594.1 344.535 568.2C394.359 556 441.005 547.7 486.063 540C521.157 534 555.817 527.4 591.343 519.6C686.802 498.7 789.483 462.4 877.721 391.7C922.635 355.6 959.894 315.5 1006.11 280.4C1098.97 209.8 1238.04 189.4 1369.17 212.4C1394.59 216.8 1419.43 222.7 1443.69 229.8C1516.76 251.3 1582.76 283.3 1652.37 310C1668.26 316.1 1684.58 322 1701.18 327.4C1781.19 353.3 1869.14 367.5 1956.08 359.8C2060.93 350.5 2161.44 302.7 2191.19 239.3" stroke="#29282B" stroke-miterlimit="10"/>
<path d="M-290.898 918.7C-237.175 832.5 -125.975 772.6 0.101145 717.2C14.5428 710.9 29.1289 704.6 43.8594 698.3C157.371 650 272.904 603.1 375.729 573C423.82 558.8 468.444 548.1 511.625 538C545.274 530.1 578.201 521.6 612.428 512C703.555 486.3 801.469 446.6 887.975 376.7C932.166 340.8 970.004 301.6 1016.51 267.3C1109.08 199.1 1245.98 178.2 1375.09 200.3C1400.22 204.6 1424.63 210.3 1448.6 217.2C1520.66 238.3 1585.36 270.1 1653.82 296.6C1669.56 302.7 1685.44 308.5 1701.91 313.8C1780.61 339.4 1867.41 353.1 1953.05 345.8C2056.31 336.9 2155.66 291.3 2188.59 229.9" stroke="#29282B" stroke-miterlimit="10"/>
<path d="M-260.138 918.5C-201.216 834.9 -86.5489 780.1 39.5269 726.7C53.9685 720.6 68.5546 714.5 83.1407 708.3C196.075 661 307.998 612.1 406.923 577.8C453.136 561.7 496.028 548.5 537.187 536C569.247 526.2 600.73 515.8 633.368 504.4C720.018 474 813.311 430.9 898.084 361.6C941.698 325.9 979.968 287.6 1026.9 254.1C1119.33 188.2 1254.07 166.9 1380.87 188.1C1405.56 192.2 1429.83 197.7 1453.37 204.6C1524.42 225.3 1587.96 256.9 1655.12 283.2C1670.57 289.2 1686.31 295 1702.34 300.2C1779.75 325.5 1865.24 338.8 1949.73 331.8C2051.54 323.4 2149.45 279.9 2185.7 220.6" stroke="#29282B" stroke-miterlimit="10"/>
<path d="M-229.521 918.4C-165.4 837.5 -47.2672 787.8 78.8086 736.2C93.2503 730.3 107.836 724.4 122.422 718.3C234.634 671.9 343.091 621.1 437.973 582.6C482.309 564.5 523.468 548.9 562.604 534C593.221 522.3 623.115 510 654.165 496.7C736.482 461.6 825.009 415.1 908.049 346.5C950.941 311 989.789 273.5 1037.16 240.9C1129.3 177.4 1261.87 155.7 1386.5 175.9C1410.91 179.8 1434.74 185.2 1457.99 191.9C1528.03 212.1 1590.27 243.6 1656.42 269.6C1671.58 275.6 1687.03 281.3 1702.92 286.5C1779.03 311.6 1863.37 324.3 1946.55 317.6C2046.77 309.6 2143.39 268.3 2182.96 211.1" stroke="#29282B" stroke-miterlimit="10"/>
<path d="M-198.761 918.2C-129.296 840 -7.8419 795.3 118.234 745.6C132.676 739.9 147.262 734.1 161.703 728.3C273.193 682.9 378.184 630.1 469.166 587.4C511.769 567.3 550.906 549.3 588.166 532C617.194 518.4 645.644 504.2 675.105 489.1C752.945 449.2 836.851 399.3 918.302 331.4C960.472 296.1 999.898 259.5 1047.7 227.7C1139.55 166.6 1269.96 144.4 1392.57 163.6C1416.54 167.3 1440.08 172.5 1463.04 179.1C1532.07 198.9 1593.02 230.2 1658 256C1672.88 261.9 1688.04 267.6 1703.64 272.7C1778.45 297.5 1861.49 309.8 1943.52 303.4C2042.15 295.8 2137.47 256.8 2180.36 201.6" stroke="#29282B" stroke-miterlimit="10"/>
<path d="M-168 918C-93.3366 842.5 31.5838 802.9 157.66 755.1C172.101 749.6 186.543 744 200.985 738.3C311.897 693.9 413.277 639.2 500.36 592.2C541.086 570.2 578.49 549.7 613.728 529.9C641.311 514.4 668.173 498.3 696.045 481.4C769.553 436.8 848.694 383.5 928.412 316.3C969.859 281.2 1009.86 245.5 1057.95 214.5C1149.51 155.7 1277.76 133.2 1398.2 151.4C1421.88 155 1444.99 160 1467.66 166.4C1535.68 185.8 1595.47 216.9 1659.16 242.5C1673.75 248.4 1688.77 254 1703.93 259.1C1777.44 283.6 1859.32 295.4 1939.91 289.4C2037.1 282.2 2130.97 245.4 2177.18 192.3" stroke="#29282B" stroke-miterlimit="10"/>
<path d="M-137.384 917.8C-57.5214 844.9 70.8651 810.4 197.085 764.5C211.527 759.2 225.969 753.8 240.266 748.2C350.456 704.7 448.37 648.1 531.554 597C570.547 573 605.929 550.1 639.289 527.9C665.428 510.6 690.701 492.5 716.985 473.7C786.161 424.4 860.68 367.6 938.52 301.2C979.39 266.3 1019.68 231.4 1068.35 201.3C1159.62 144.9 1285.7 121.9 1404.12 139.2C1427.37 142.6 1450.33 147.4 1472.57 153.8C1539.58 172.8 1598.07 203.7 1660.75 229.1C1675.19 234.9 1689.78 240.5 1704.8 245.5C1777 269.7 1857.59 281 1937.02 275.3C2032.62 268.5 2125.19 233.9 2174.73 182.8" stroke="#29282B" stroke-miterlimit="10"/>
<path d="M-106.623 917.7C-21.5616 847.5 110.291 818.1 236.511 774.1C250.953 769.1 265.394 763.8 279.547 758.3C389.159 715.8 483.463 657.2 562.604 601.9C599.719 575.9 633.368 550.6 664.706 526C689.257 506.8 713.086 486.7 737.781 466.2C802.624 412.2 872.378 352 948.485 286.2C988.633 251.5 1029.5 217.5 1078.6 188.3C1169.59 134.2 1293.64 110.8 1409.75 127.2C1432.71 130.4 1455.24 135.1 1477.19 141.3C1543.19 159.9 1600.53 190.6 1661.9 215.7C1676.06 221.5 1690.35 227 1705.08 232C1775.99 255.9 1855.42 266.8 1933.55 261.4C2027.57 255 2118.84 222.6 2171.69 173.6" stroke="#29282B" stroke-miterlimit="10"/>
<path d="M-75.8618 917.5C14.543 850 149.717 825.6 275.937 783.5C290.379 778.7 304.676 773.6 318.829 768.2C427.719 726.6 518.557 666.1 593.798 606.6C629.036 578.7 660.808 550.8 690.269 523.9C713.231 502.7 735.615 480.8 758.867 458.5C819.522 399.8 884.365 336.2 958.739 271.1C998.165 236.6 1039.61 203.4 1089.15 175.1C1179.7 123.3 1301.73 99.6001 1415.67 115C1438.35 118 1460.44 122.6 1482.11 128.6C1547.09 146.8 1603.13 177.3 1663.35 202.2C1677.21 207.9 1691.22 213.4 1705.81 218.3C1775.42 241.9 1853.54 252.3 1930.52 247.3C2023.09 241.3 2113.06 211.1 2169.1 164.2" stroke="#29282B" stroke-miterlimit="10"/>
<path d="M-45.2461 917.3C50.3577 852.4 188.998 833.2 315.218 793C329.66 788.4 343.957 783.5 357.965 778.2C466.278 737.6 553.505 675.2 624.847 611.4C658.352 581.5 688.102 551.2 715.685 521.9C737.203 498.8 758.144 475 779.662 450.8C835.984 387.4 896.062 320.3 968.848 256C1007.55 221.7 1049.43 189.3 1099.4 161.9C1189.66 112.4 1309.53 88.2999 1421.45 102.8C1443.69 105.7 1465.64 110 1486.87 115.9C1550.85 133.7 1605.58 164 1664.79 188.7C1678.37 194.4 1692.23 199.8 1706.38 204.6C1774.69 228 1851.67 237.8 1927.34 233.2C2018.32 227.6 2107 199.6 2166.35 154.8" stroke="#29282B" stroke-miterlimit="10"/>
<path d="M-14.4849 917.1C86.318 854.9 228.424 840.8 354.644 802.4C369.086 798 383.383 793.3 397.391 788.1C504.982 748.5 588.744 684.1 656.186 616.2C687.813 584.3 715.83 551.6 741.392 519.9C761.322 495 780.818 469.2 800.747 443.2C853.026 375.2 908.049 304.6 979.102 240.9C1017.08 206.8 1059.54 175.2 1109.94 148.7C1199.77 101.4 1317.61 77.1 1427.37 90.6C1449.32 93.3 1470.84 97.5 1491.78 103.2C1554.75 120.5 1608.33 150.7 1666.24 175.2C1679.52 180.8 1693.1 186.2 1707.11 191C1774.12 214.1 1849.79 223.5 1924.16 219.1C2013.7 213.9 2100.93 188.1 2163.61 145.4" stroke="#29282B" stroke-miterlimit="10"/>
<path d="M16.2754 917C134.553 850.7 301.787 847 436.672 798.2C593.798 741.4 693.156 624.9 766.809 518C859.813 383.2 938.809 226.9 1120.2 135.7C1227.64 81.6 1372.93 57 1496.55 90.7C1572.8 111.5 1634.32 152 1707.54 177.5C1852.1 227.7 2039.84 210.6 2160.72 136.2" stroke="#29282B" stroke-miterlimit="10"/>
</g>
<g filter="url(#filter4_dddddd_14_335)">
<rect width="1728" height="1117" fill="url(#paint0_linear_14_335)" fill-opacity="0.39"/>
</g>
</g>
<defs>
<filter id="filter0_f_14_335" x="-957.868" y="-481.339" width="3062.9" height="3062.9" filterUnits="userSpaceOnUse" color-interpolation-filters="sRGB">
<feFlood flood-opacity="0" result="BackgroundImageFix"/>
<feBlend mode="normal" in="SourceGraphic" in2="BackgroundImageFix" result="shape"/>
<feGaussianBlur stdDeviation="486.05" result="effect1_foregroundBlur_14_335"/>
</filter>
<filter id="filter1_f_14_335" x="82.5499" y="-1977.21" width="3062.9" height="3062.9" filterUnits="userSpaceOnUse" color-interpolation-filters="sRGB">
<feFlood flood-opacity="0" result="BackgroundImageFix"/>
<feBlend mode="normal" in="SourceGraphic" in2="BackgroundImageFix" result="shape"/>
<feGaussianBlur stdDeviation="486.05" result="effect1_foregroundBlur_14_335"/>
</filter>
<filter id="filter2_f_14_335" x="-169.37" y="-632.206" width="3062.9" height="3062.9" filterUnits="userSpaceOnUse" color-interpolation-filters="sRGB">
<feFlood flood-opacity="0" result="BackgroundImageFix"/>
<feBlend mode="normal" in="SourceGraphic" in2="BackgroundImageFix" result="shape"/>
<feGaussianBlur stdDeviation="486.05" result="effect1_foregroundBlur_14_335"/>
</filter>
<filter id="filter3_f_14_335" x="-972.1" y="-1198.67" width="2791.05" height="2791.05" filterUnits="userSpaceOnUse" color-interpolation-filters="sRGB">
<feFlood flood-opacity="0" result="BackgroundImageFix"/>
<feBlend mode="normal" in="SourceGraphic" in2="BackgroundImageFix" result="shape"/>
<feGaussianBlur stdDeviation="486.05" result="effect1_foregroundBlur_14_335"/>
</filter>
<filter id="filter4_dddddd_14_335" x="-80" y="0" width="1888" height="1297" filterUnits="userSpaceOnUse" color-interpolation-filters="sRGB">
<feFlood flood-opacity="0" result="BackgroundImageFix"/>
<feColorMatrix in="SourceAlpha" type="matrix" values="0 0 0 0 0 0 0 0 0 0 0 0 0 0 0 0 0 0 127 0" result="hardAlpha"/>
<feOffset dy="2.76726"/>
<feGaussianBlur stdDeviation="1.1069"/>
<feColorMatrix type="matrix" values="0 0 0 0 0 0 0 0 0 0 0 0 0 0 0 0 0 0 0.0196802 0"/>
<feBlend mode="normal" in2="BackgroundImageFix" result="effect1_dropShadow_14_335"/>
<feColorMatrix in="SourceAlpha" type="matrix" values="0 0 0 0 0 0 0 0 0 0 0 0 0 0 0 0 0 0 127 0" result="hardAlpha"/>
<feOffset dy="6.6501"/>
<feGaussianBlur stdDeviation="2.66004"/>
<feColorMatrix type="matrix" values="0 0 0 0 0 0 0 0 0 0 0 0 0 0 0 0 0 0 0.0282725 0"/>
<feBlend mode="normal" in2="effect1_dropShadow_14_335" result="effect2_dropShadow_14_335"/>
<feColorMatrix in="SourceAlpha" type="matrix" values="0 0 0 0 0 0 0 0 0 0 0 0 0 0 0 0 0 0 127 0" result="hardAlpha"/>
<feOffset dy="12.5216"/>
<feGaussianBlur stdDeviation="5.00862"/>
<feColorMatrix type="matrix" values="0 0 0 0 0 0 0 0 0 0 0 0 0 0 0 0 0 0 0.035 0"/>
<feBlend mode="normal" in2="effect2_dropShadow_14_335" result="effect3_dropShadow_14_335"/>
<feColorMatrix in="SourceAlpha" type="matrix" values="0 0 0 0 0 0 0 0 0 0 0 0 0 0 0 0 0 0 127 0" result="hardAlpha"/>
<feOffset dy="22.3363"/>
<feGaussianBlur stdDeviation="8.93452"/>
<feColorMatrix type="matrix" values="0 0 0 0 0 0 0 0 0 0 0 0 0 0 0 0 0 0 0.0417275 0"/>
<feBlend mode="normal" in2="effect3_dropShadow_14_335" result="effect4_dropShadow_14_335"/>
<feColorMatrix in="SourceAlpha" type="matrix" values="0 0 0 0 0 0 0 0 0 0 0 0 0 0 0 0 0 0 127 0" result="hardAlpha"/>
<feOffset dy="41.7776"/>
<feGaussianBlur stdDeviation="16.711"/>
<feColorMatrix type="matrix" values="0 0 0 0 0 0 0 0 0 0 0 0 0 0 0 0 0 0 0.0503198 0"/>
<feBlend mode="normal" in2="effect4_dropShadow_14_335" result="effect5_dropShadow_14_335"/>
<feColorMatrix in="SourceAlpha" type="matrix" values="0 0 0 0 0 0 0 0 0 0 0 0 0 0 0 0 0 0 127 0" result="hardAlpha"/>
<feOffset dy="100"/>
<feGaussianBlur stdDeviation="40"/>
<feColorMatrix type="matrix" values="0 0 0 0 0 0 0 0 0 0 0 0 0 0 0 0 0 0 0.07 0"/>
<feBlend mode="normal" in2="effect5_dropShadow_14_335" result="effect6_dropShadow_14_335"/>
<feBlend mode="normal" in="SourceGraphic" in2="effect6_dropShadow_14_335" result="shape"/>
</filter>
<linearGradient id="paint0_linear_14_335" x1="864" y1="1117" x2="864" y2="0" gradientUnits="userSpaceOnUse">
<stop offset="0.201529"/>
<stop offset="0.21"/>
</linearGradient>
<clipPath id="clip0_14_335">
<rect width="1728" height="1117" fill="white"/>
</clipPath>
<clipPath id="clip1_14_335">
<rect width="1728" height="1117" fill="white"/>
</clipPath>
</defs>
</svg>
